<?xml version="1.0" encoding="UTF-8" standalone="no"?>
<!DOCTYPE svg PUBLIC "-//W3C//DTD SVG 1.1//EN"
 "http://www.w3.org/Graphics/SVG/1.1/DTD/svg11.dtd">
<!-- Generated by graphviz version 2.43.0 (0)
 -->
<!-- Title: %3 Pages: 1 -->
<svg width="686pt" height="222pt"
 viewBox="0.00 0.00 686.00 222.45" xmlns="http://www.w3.org/2000/svg" xmlns:xlink="http://www.w3.org/1999/xlink">
<g id="graph0" class="graph" transform="scale(1 1) rotate(0) translate(4 218.45)">
<title>%3</title>
<polygon fill="white" stroke="transparent" points="-4,4 -4,-218.45 682,-218.45 682,4 -4,4"/>
<!-- angle closest rock -->
<g id="node1" class="node">
<title>angle closest rock</title>
<polygon fill="lightgray" stroke="black" points="292.5,-214.45 192.5,-214.45 192.5,-196.45 292.5,-196.45 292.5,-214.45"/>
<text text-anchor="middle" x="242.5" y="-203.25" font-family="Times,serif" font-size="9.00">angle closest rock</text>
</g>
<!-- LEFT -->
<g id="node7" class="node">
<title>LEFT</title>
<ellipse fill="lightblue" stroke="black" cx="170.5" cy="-126.51" rx="28.98" ry="28.98"/>
<text text-anchor="middle" x="170.5" y="-124.31" font-family="Times,serif" font-size="9.00">LEFT</text>
</g>
<!-- angle closest rock&#45;&gt;LEFT -->
<g id="edge5" class="edge">
<title>angle closest rock&#45;&gt;LEFT</title>
<path fill="none" stroke="red" stroke-width="1.19" d="M234.79,-196.22C225.86,-186.67 210.63,-170.4 197.24,-156.09"/>
<polygon fill="red" stroke="red" stroke-width="1.19" points="199.43,-153.3 190.04,-148.39 194.32,-158.09 199.43,-153.3"/>
</g>
<!-- RIGHT -->
<g id="node8" class="node">
<title>RIGHT</title>
<ellipse fill="lightblue" stroke="black" cx="612.5" cy="-126.51" rx="33.88" ry="33.88"/>
<text text-anchor="middle" x="612.5" y="-124.31" font-family="Times,serif" font-size="9.00">RIGHT</text>
</g>
<!-- angle closest rock&#45;&gt;RIGHT -->
<g id="edge2" class="edge">
<title>angle closest rock&#45;&gt;RIGHT</title>
<path fill="none" stroke="green" stroke-width="1.02" d="M292.57,-200.97C371.64,-194.92 521.47,-181.14 570.5,-160.45 573.49,-159.19 576.44,-157.66 579.32,-155.95"/>
<polygon fill="green" stroke="green" stroke-width="1.02" points="581.27,-158.86 587.67,-150.42 577.4,-153.03 581.27,-158.86"/>
</g>
<!-- DASH -->
<g id="node9" class="node">
<title>DASH</title>
<ellipse fill="lightblue" stroke="black" cx="92.5" cy="-126.51" rx="31.23" ry="31.23"/>
<text text-anchor="middle" x="92.5" y="-124.31" font-family="Times,serif" font-size="9.00">DASH</text>
</g>
<!-- angle closest rock&#45;&gt;DASH -->
<g id="edge4" class="edge">
<title>angle closest rock&#45;&gt;DASH</title>
<path fill="none" stroke="red" stroke-width="0.17" d="M215.65,-196.3C192.69,-188.74 159.22,-176.28 132.5,-160.45 129.47,-158.65 126.42,-156.64 123.45,-154.51"/>
<polygon fill="red" stroke="red" stroke-width="0.17" points="125.37,-151.57 115.29,-148.3 121.13,-157.14 125.37,-151.57"/>
</g>
<!-- 407 -->
<g id="node11" class="node">
<title>407</title>
<ellipse fill="white" stroke="black" cx="242.5" cy="-126.51" rx="25" ry="25"/>
<text text-anchor="middle" x="242.5" y="-124.31" font-family="Times,serif" font-size="9.00">407</text>
</g>
<!-- angle closest rock&#45;&gt;407 -->
<g id="edge9" class="edge">
<title>angle closest rock&#45;&gt;407</title>
<path fill="none" stroke="green" stroke-width="0.28" d="M242.5,-196.22C242.5,-187.84 242.5,-174.28 242.5,-161.42"/>
<polygon fill="green" stroke="green" stroke-width="0.28" points="246,-161.36 242.5,-151.36 239,-161.36 246,-161.36"/>
</g>
<!-- distance closest rock -->
<g id="node2" class="node">
<title>distance closest rock</title>
<polygon fill="lightgray" stroke="black" points="398,-135.51 285,-135.51 285,-117.51 398,-117.51 398,-135.51"/>
<text text-anchor="middle" x="341.5" y="-124.31" font-family="Times,serif" font-size="9.00">distance closest rock</text>
</g>
<!-- FIRE -->
<g id="node10" class="node">
<title>FIRE</title>
<ellipse fill="lightblue" stroke="black" cx="341.5" cy="-28.28" rx="28.07" ry="28.07"/>
<text text-anchor="middle" x="341.5" y="-26.08" font-family="Times,serif" font-size="9.00">FIRE</text>
</g>
<!-- distance closest rock&#45;&gt;FIRE -->
<g id="edge1" class="edge">
<title>distance closest rock&#45;&gt;FIRE</title>
<path fill="none" stroke="green" stroke-width="0.23" d="M341.5,-117.31C341.5,-106.11 341.5,-85.31 341.5,-66.73"/>
<polygon fill="green" stroke="green" stroke-width="0.23" points="345,-66.72 341.5,-56.72 338,-66.72 345,-66.72"/>
</g>
<!-- angle ship -->
<g id="node3" class="node">
<title>angle ship</title>
<polygon fill="lightgray" stroke="black" points="65,-214.45 0,-214.45 0,-196.45 65,-196.45 65,-214.45"/>
<text text-anchor="middle" x="32.5" y="-203.25" font-family="Times,serif" font-size="9.00">angle ship</text>
</g>
<!-- angle ship&#45;&gt;DASH -->
<g id="edge11" class="edge">
<title>angle ship&#45;&gt;DASH</title>
<path fill="none" stroke="red" stroke-width="0.19" d="M38.92,-196.22C45.73,-187.48 56.92,-173.14 67.31,-159.81"/>
<polygon fill="red" stroke="red" stroke-width="0.19" points="70.25,-161.73 73.64,-151.7 64.73,-157.43 70.25,-161.73"/>
</g>
<!-- angle closest rock (OLD) -->
<g id="node4" class="node">
<title>angle closest rock (OLD)</title>
<polygon fill="lightgray" stroke="black" points="678,-214.45 547,-214.45 547,-196.45 678,-196.45 678,-214.45"/>
<text text-anchor="middle" x="612.5" y="-203.25" font-family="Times,serif" font-size="9.00">angle closest rock (OLD)</text>
</g>
<!-- angle closest rock (OLD)&#45;&gt;RIGHT -->
<g id="edge6" class="edge">
<title>angle closest rock (OLD)&#45;&gt;RIGHT</title>
<path fill="none" stroke="green" stroke-width="0.57" d="M612.5,-196.22C612.5,-189.89 612.5,-180.61 612.5,-170.9"/>
<polygon fill="green" stroke="green" stroke-width="0.57" points="616,-170.74 612.5,-160.74 609,-170.74 616,-170.74"/>
</g>
<!-- distance closest rock (OLD) -->
<g id="node5" class="node">
<title>distance closest rock (OLD)</title>
<polygon fill="lightgray" stroke="black" points="561,-135.51 416,-135.51 416,-117.51 561,-117.51 561,-135.51"/>
<text text-anchor="middle" x="488.5" y="-124.31" font-family="Times,serif" font-size="9.00">distance closest rock (OLD)</text>
</g>
<!-- distance closest rock (OLD)&#45;&gt;FIRE -->
<g id="edge3" class="edge">
<title>distance closest rock (OLD)&#45;&gt;FIRE</title>
<path fill="none" stroke="green" stroke-width="0.38" d="M476.22,-117.47C453.83,-102.81 405.71,-71.31 373.46,-50.21"/>
<polygon fill="green" stroke="green" stroke-width="0.38" points="375.11,-47.1 364.82,-44.55 371.27,-52.96 375.11,-47.1"/>
</g>
<!-- two valid values -->
<g id="node6" class="node">
<title>two valid values</title>
<polygon fill="lightgray" stroke="black" points="174,-214.45 83,-214.45 83,-196.45 174,-196.45 174,-214.45"/>
<text text-anchor="middle" x="128.5" y="-203.25" font-family="Times,serif" font-size="9.00">two valid values</text>
</g>
<!-- two valid values&#45;&gt;LEFT -->
<g id="edge7" class="edge">
<title>two valid values&#45;&gt;LEFT</title>
<path fill="none" stroke="green" stroke-width="0.62" d="M132.99,-196.22C137.56,-187.86 144.93,-174.35 151.94,-161.51"/>
<polygon fill="green" stroke="green" stroke-width="0.62" points="155.21,-162.83 156.93,-152.37 149.07,-159.47 155.21,-162.83"/>
</g>
<!-- two valid values&#45;&gt;DASH -->
<g id="edge8" class="edge">
<title>two valid values&#45;&gt;DASH</title>
<path fill="none" stroke="red" stroke-width="1.13" d="M124.65,-196.22C121,-188.43 115.27,-176.18 109.65,-164.17"/>
<polygon fill="red" stroke="red" stroke-width="1.13" points="112.82,-162.68 105.41,-155.11 106.48,-165.65 112.82,-162.68"/>
</g>
<!-- 407&#45;&gt;FIRE -->
<g id="edge10" class="edge">
<title>407&#45;&gt;FIRE</title>
<path fill="none" stroke="green" stroke-width="0.88" d="M259.56,-108.35C264.67,-103.25 270.29,-97.66 275.5,-92.57 288.07,-80.27 302.11,-66.77 314,-55.41"/>
<polygon fill="green" stroke="green" stroke-width="0.88" points="316.65,-57.72 321.47,-48.29 311.82,-52.66 316.65,-57.72"/>
</g>
</g>
</svg>
