<?xml version="1.0" encoding="UTF-8" standalone="no"?>
<!DOCTYPE svg PUBLIC "-//W3C//DTD SVG 1.1//EN"
 "http://www.w3.org/Graphics/SVG/1.1/DTD/svg11.dtd">
<!-- Generated by graphviz version 2.43.0 (0)
 -->
<!-- Title: %3 Pages: 1 -->
<svg width="622pt" height="399pt"
 viewBox="0.00 0.00 622.37 399.10" xmlns="http://www.w3.org/2000/svg" xmlns:xlink="http://www.w3.org/1999/xlink">
<g id="graph0" class="graph" transform="scale(1 1) rotate(0) translate(4 395.1)">
<title>%3</title>
<polygon fill="white" stroke="transparent" points="-4,4 -4,-395.1 618.37,-395.1 618.37,4 -4,4"/>
<!-- angle closest rock -->
<g id="node1" class="node">
<title>angle closest rock</title>
<polygon fill="lightgray" stroke="black" points="208.5,-321.35 108.5,-321.35 108.5,-303.35 208.5,-303.35 208.5,-321.35"/>
<text text-anchor="middle" x="158.5" y="-310.15" font-family="Times,serif" font-size="9.00">angle closest rock</text>
</g>
<!-- LEFT -->
<g id="node8" class="node">
<title>LEFT</title>
<ellipse fill="lightblue" stroke="black" cx="271.5" cy="-31.11" rx="28.98" ry="28.98"/>
<text text-anchor="middle" x="271.5" y="-28.91" font-family="Times,serif" font-size="9.00">LEFT</text>
</g>
<!-- angle closest rock&#45;&gt;LEFT -->
<g id="edge2" class="edge">
<title>angle closest rock&#45;&gt;LEFT</title>
<path fill="none" stroke="red" stroke-width="0.12" d="M158.49,-303.02C158.8,-273.22 162.82,-169.97 202.5,-98.23 211.76,-81.48 226.69,-66.4 240.29,-54.89"/>
<polygon fill="red" stroke="red" stroke-width="0.12" points="242.55,-57.56 248.1,-48.53 238.13,-52.13 242.55,-57.56"/>
</g>
<!-- FIRE -->
<g id="node11" class="node">
<title>FIRE</title>
<ellipse fill="lightblue" stroke="black" cx="88.5" cy="-217.66" rx="28.07" ry="28.07"/>
<text text-anchor="middle" x="88.5" y="-215.46" font-family="Times,serif" font-size="9.00">FIRE</text>
</g>
<!-- angle closest rock&#45;&gt;FIRE -->
<g id="edge11" class="edge">
<title>angle closest rock&#45;&gt;FIRE</title>
<path fill="none" stroke="red" stroke-width="0.11" d="M152.29,-303.13C143.19,-291.09 125.78,-268.03 111.44,-249.04"/>
<polygon fill="red" stroke="red" stroke-width="0.11" points="114.14,-246.8 105.32,-240.93 108.55,-251.02 114.14,-246.8"/>
</g>
<!-- 33 -->
<g id="node12" class="node">
<title>33</title>
<ellipse fill="white" stroke="black" cx="244.5" cy="-217.66" rx="20.51" ry="20.51"/>
<text text-anchor="middle" x="244.5" y="-215.46" font-family="Times,serif" font-size="9.00">33</text>
</g>
<!-- angle closest rock&#45;&gt;33 -->
<g id="edge8" class="edge">
<title>angle closest rock&#45;&gt;33</title>
<path fill="none" stroke="red" stroke-width="0.76" d="M166.13,-303.13C178.98,-289.28 205.34,-260.87 223.93,-240.83"/>
<polygon fill="red" stroke="red" stroke-width="0.76" points="226.64,-243.06 230.87,-233.35 221.51,-238.3 226.64,-243.06"/>
</g>
<!-- distance closest rock -->
<g id="node2" class="node">
<title>distance closest rock</title>
<polygon fill="lightgray" stroke="black" points="349,-321.35 236,-321.35 236,-303.35 349,-303.35 349,-321.35"/>
<text text-anchor="middle" x="292.5" y="-310.15" font-family="Times,serif" font-size="9.00">distance closest rock</text>
</g>
<!-- distance closest rock&#45;&gt;LEFT -->
<g id="edge15" class="edge">
<title>distance closest rock&#45;&gt;LEFT</title>
<path fill="none" stroke="green" stroke-width="0.31" d="M292.08,-303.21C290.61,-274.89 285.34,-178.03 278.5,-98.23 277.72,-89.12 276.75,-79.32 275.79,-70.13"/>
<polygon fill="green" stroke="green" stroke-width="0.31" points="279.26,-69.65 274.71,-60.08 272.3,-70.39 279.26,-69.65"/>
</g>
<!-- distance closest rock&#45;&gt;33 -->
<g id="edge1" class="edge">
<title>distance closest rock&#45;&gt;33</title>
<path fill="none" stroke="red" stroke-width="0.66" d="M288.24,-303.13C281.58,-290.26 268.4,-264.81 258.24,-245.19"/>
<polygon fill="red" stroke="red" stroke-width="0.66" points="261.24,-243.38 253.53,-236.11 255.03,-246.6 261.24,-243.38"/>
</g>
<!-- 533 -->
<g id="node15" class="node">
<title>533</title>
<ellipse fill="white" stroke="black" cx="549.5" cy="-122.97" rx="25" ry="25"/>
<text text-anchor="middle" x="549.5" y="-120.77" font-family="Times,serif" font-size="9.00">533</text>
</g>
<!-- distance closest rock&#45;&gt;533 -->
<g id="edge16" class="edge">
<title>distance closest rock&#45;&gt;533</title>
<path fill="none" stroke="green" stroke-width="0.37" d="M313.8,-303.35C326.46,-298.65 342.85,-292.66 357.5,-287.61 406.53,-270.7 428.4,-284.5 468.5,-251.61 495.23,-229.68 487.93,-212.89 506.5,-183.72 513.35,-172.97 521.39,-161.52 528.66,-151.55"/>
<polygon fill="green" stroke="green" stroke-width="0.37" points="531.67,-153.36 534.79,-143.23 526.04,-149.2 531.67,-153.36"/>
</g>
<!-- angle ship -->
<g id="node3" class="node">
<title>angle ship</title>
<polygon fill="lightgray" stroke="black" points="595,-321.35 530,-321.35 530,-303.35 595,-303.35 595,-321.35"/>
<text text-anchor="middle" x="562.5" y="-310.15" font-family="Times,serif" font-size="9.00">angle ship</text>
</g>
<!-- RIGHT -->
<g id="node9" class="node">
<title>RIGHT</title>
<ellipse fill="lightblue" stroke="black" cx="549.5" cy="-217.66" rx="33.88" ry="33.88"/>
<text text-anchor="middle" x="549.5" y="-215.46" font-family="Times,serif" font-size="9.00">RIGHT</text>
</g>
<!-- angle ship&#45;&gt;RIGHT -->
<g id="edge7" class="edge">
<title>angle ship&#45;&gt;RIGHT</title>
<path fill="none" stroke="green" stroke-width="0.65" d="M561.35,-303.13C560.02,-293.68 557.74,-277.44 555.54,-261.72"/>
<polygon fill="green" stroke="green" stroke-width="0.65" points="558.97,-260.95 554.11,-251.53 552.03,-261.92 558.97,-260.95"/>
</g>
<!-- angle closest rock (OLD) -->
<g id="node4" class="node">
<title>angle closest rock (OLD)</title>
<polygon fill="lightgray" stroke="black" points="131,-391.1 0,-391.1 0,-373.1 131,-373.1 131,-391.1"/>
<text text-anchor="middle" x="65.5" y="-379.9" font-family="Times,serif" font-size="9.00">angle closest rock (OLD)</text>
</g>
<!-- 500 -->
<g id="node14" class="node">
<title>500</title>
<ellipse fill="white" stroke="black" cx="65.5" cy="-312.35" rx="25" ry="25"/>
<text text-anchor="middle" x="65.5" y="-310.15" font-family="Times,serif" font-size="9.00">500</text>
</g>
<!-- angle closest rock (OLD)&#45;&gt;500 -->
<g id="edge13" class="edge">
<title>angle closest rock (OLD)&#45;&gt;500</title>
<path fill="none" stroke="red" stroke-width="0.47" d="M65.5,-373.06C65.5,-366.63 65.5,-357.13 65.5,-347.6"/>
<polygon fill="red" stroke="red" stroke-width="0.47" points="69,-347.38 65.5,-337.38 62,-347.38 69,-347.38"/>
</g>
<!-- distance closest rock (OLD) -->
<g id="node5" class="node">
<title>distance closest rock (OLD)</title>
<polygon fill="lightgray" stroke="black" points="512,-321.35 367,-321.35 367,-303.35 512,-303.35 512,-321.35"/>
<text text-anchor="middle" x="439.5" y="-310.15" font-family="Times,serif" font-size="9.00">distance closest rock (OLD)</text>
</g>
<!-- distance closest rock (OLD)&#45;&gt;LEFT -->
<g id="edge4" class="edge">
<title>distance closest rock (OLD)&#45;&gt;LEFT</title>
<path fill="none" stroke="green" stroke-width="0.69" d="M422.52,-303.34C403.51,-293.58 372.96,-275.41 354.5,-251.61 348.62,-244.02 306.39,-128.59 284.54,-68.26"/>
<polygon fill="green" stroke="green" stroke-width="0.69" points="287.78,-66.93 281.09,-58.72 281.2,-69.31 287.78,-66.93"/>
</g>
<!-- distance closest rock (OLD)&#45;&gt;RIGHT -->
<g id="edge3" class="edge">
<title>distance closest rock (OLD)&#45;&gt;RIGHT</title>
<path fill="none" stroke="red" stroke-width="0.38" d="M449.26,-303.13C464.12,-290.6 493.13,-266.16 516.13,-246.78"/>
<polygon fill="red" stroke="red" stroke-width="0.38" points="518.59,-249.29 523.98,-240.17 514.08,-243.93 518.59,-249.29"/>
</g>
<!-- DASH -->
<g id="node10" class="node">
<title>DASH</title>
<ellipse fill="lightblue" stroke="black" cx="580.5" cy="-31.11" rx="31.23" ry="31.23"/>
<text text-anchor="middle" x="580.5" y="-28.91" font-family="Times,serif" font-size="9.00">DASH</text>
</g>
<!-- distance closest rock (OLD)&#45;&gt;DASH -->
<g id="edge9" class="edge">
<title>distance closest rock (OLD)&#45;&gt;DASH</title>
<path fill="none" stroke="red" stroke-width="0.45" d="M464.55,-303.29C505.97,-289.71 584.94,-262.67 592.5,-251.61 629.58,-197.32 611.33,-116.72 595.42,-69.79"/>
<polygon fill="red" stroke="red" stroke-width="0.45" points="598.7,-68.58 592.08,-60.31 592.1,-70.9 598.7,-68.58"/>
</g>
<!-- distance closest rock (OLD)&#45;&gt;33 -->
<g id="edge5" class="edge">
<title>distance closest rock (OLD)&#45;&gt;33</title>
<path fill="none" stroke="red" stroke-width="0.12" d="M422.54,-303.29C388.74,-287.22 312.74,-251.1 271.82,-231.65"/>
<polygon fill="red" stroke="red" stroke-width="0.12" points="273.23,-228.44 262.69,-227.31 270.22,-234.77 273.23,-228.44"/>
</g>
<!-- angle ship (OLD) -->
<g id="node6" class="node">
<title>angle ship (OLD)</title>
<polygon fill="lightgray" stroke="black" points="459.5,-226.66 363.5,-226.66 363.5,-208.66 459.5,-208.66 459.5,-226.66"/>
<text text-anchor="middle" x="411.5" y="-215.46" font-family="Times,serif" font-size="9.00">angle ship (OLD)</text>
</g>
<!-- angle ship (OLD)&#45;&gt;LEFT -->
<g id="edge6" class="edge">
<title>angle ship (OLD)&#45;&gt;LEFT</title>
<path fill="none" stroke="green" stroke-width="0.38" d="M408.53,-208.56C400.89,-188.45 379.09,-135.19 349.5,-98.23 336.3,-81.74 318.53,-66.3 303.28,-54.49"/>
<polygon fill="green" stroke="green" stroke-width="0.38" points="305.2,-51.55 295.11,-48.32 300.98,-57.14 305.2,-51.55"/>
</g>
<!-- 467 -->
<g id="node13" class="node">
<title>467</title>
<ellipse fill="white" stroke="black" cx="473.5" cy="-122.97" rx="25" ry="25"/>
<text text-anchor="middle" x="473.5" y="-120.77" font-family="Times,serif" font-size="9.00">467</text>
</g>
<!-- angle ship (OLD)&#45;&gt;467 -->
<g id="edge12" class="edge">
<title>angle ship (OLD)&#45;&gt;467</title>
<path fill="none" stroke="red" stroke-width="0.11" d="M417,-208.44C425.33,-195.99 441.53,-171.77 454.46,-152.44"/>
<polygon fill="red" stroke="red" stroke-width="0.11" points="457.47,-154.23 460.13,-143.97 451.66,-150.33 457.47,-154.23"/>
</g>
<!-- two valid values -->
<g id="node7" class="node">
<title>two valid values</title>
<polygon fill="lightgray" stroke="black" points="240,-391.1 149,-391.1 149,-373.1 240,-373.1 240,-391.1"/>
<text text-anchor="middle" x="194.5" y="-379.9" font-family="Times,serif" font-size="9.00">two valid values</text>
</g>
<!-- RIGHT&#45;&gt;467 -->
<g id="edge18" class="edge">
<title>RIGHT&#45;&gt;467</title>
<path fill="none" stroke="red" stroke-width="0.43" d="M528.33,-190.84C518.03,-178.28 505.65,-163.19 495.27,-150.52"/>
<polygon fill="red" stroke="red" stroke-width="0.43" points="497.82,-148.12 488.78,-142.6 492.41,-152.56 497.82,-148.12"/>
</g>
<!-- RIGHT&#45;&gt;533 -->
<g id="edge21" class="edge">
<title>RIGHT&#45;&gt;533</title>
<path fill="none" stroke="green" stroke-width="0.26" d="M549.5,-183.46C549.5,-175.21 549.5,-166.35 549.5,-158.05"/>
<polygon fill="green" stroke="green" stroke-width="0.26" points="553,-157.93 549.5,-147.93 546,-157.93 553,-157.93"/>
</g>
<!-- 33&#45;&gt;LEFT -->
<g id="edge10" class="edge">
<title>33&#45;&gt;LEFT</title>
<path fill="none" stroke="green" stroke-width="0.87" d="M233.09,-200.26C218.49,-177.1 196.64,-133.69 210.5,-98.23 216.8,-82.12 229.06,-67.57 240.95,-56.26"/>
<polygon fill="green" stroke="green" stroke-width="0.87" points="243.57,-58.6 248.64,-49.3 238.88,-53.41 243.57,-58.6"/>
</g>
<!-- 767 -->
<g id="node16" class="node">
<title>767</title>
<ellipse fill="white" stroke="black" cx="244.5" cy="-122.97" rx="25" ry="25"/>
<text text-anchor="middle" x="244.5" y="-120.77" font-family="Times,serif" font-size="9.00">767</text>
</g>
<!-- 33&#45;&gt;767 -->
<g id="edge20" class="edge">
<title>33&#45;&gt;767</title>
<path fill="none" stroke="green" stroke-width="0.84" d="M244.5,-197.01C244.5,-185.69 244.5,-171.14 244.5,-158.02"/>
<polygon fill="green" stroke="green" stroke-width="0.84" points="248,-157.88 244.5,-147.88 241,-157.88 248,-157.88"/>
</g>
<!-- 500&#45;&gt;FIRE -->
<g id="edge14" class="edge">
<title>500&#45;&gt;FIRE</title>
<path fill="none" stroke="red" stroke-width="0.34" d="M71.3,-287.96C73.77,-278.03 76.7,-266.21 79.44,-255.17"/>
<polygon fill="red" stroke="red" stroke-width="0.34" points="82.87,-255.87 81.88,-245.33 76.08,-254.19 82.87,-255.87"/>
</g>
<!-- 533&#45;&gt;DASH -->
<g id="edge17" class="edge">
<title>533&#45;&gt;DASH</title>
<path fill="none" stroke="green" stroke-width="0.12" d="M557.32,-99.3C560.34,-90.56 563.87,-80.33 567.25,-70.52"/>
<polygon fill="green" stroke="green" stroke-width="0.12" points="570.61,-71.51 570.56,-60.92 563.99,-69.23 570.61,-71.51"/>
</g>
<!-- 767&#45;&gt;LEFT -->
<g id="edge19" class="edge">
<title>767&#45;&gt;LEFT</title>
<path fill="none" stroke="green" stroke-width="0.48" d="M251.45,-98.83C254.2,-89.71 257.41,-79 260.46,-68.86"/>
<polygon fill="green" stroke="green" stroke-width="0.48" points="263.9,-69.58 263.42,-59 257.19,-67.57 263.9,-69.58"/>
</g>
</g>
</svg>
