<?xml version="1.0" encoding="UTF-8" standalone="no"?>
<!DOCTYPE svg PUBLIC "-//W3C//DTD SVG 1.1//EN"
 "http://www.w3.org/Graphics/SVG/1.1/DTD/svg11.dtd">
<!-- Generated by graphviz version 2.43.0 (0)
 -->
<!-- Title: %3 Pages: 1 -->
<svg width="263pt" height="415pt"
 viewBox="0.00 0.00 263.44 414.66" xmlns="http://www.w3.org/2000/svg" xmlns:xlink="http://www.w3.org/1999/xlink">
<g id="graph0" class="graph" transform="scale(1 1) rotate(0) translate(4 410.66)">
<title>%3</title>
<polygon fill="white" stroke="transparent" points="-4,4 -4,-410.66 259.44,-410.66 259.44,4 -4,4"/>
<!-- angle closest rock -->
<g id="node1" class="node">
<title>angle closest rock</title>
<polygon fill="lightgray" stroke="black" points="123.94,-406.66 23.94,-406.66 23.94,-388.66 123.94,-388.66 123.94,-406.66"/>
<text text-anchor="middle" x="73.94" y="-395.46" font-family="Times,serif" font-size="9.00">angle closest rock</text>
</g>
<!-- RIGHT -->
<g id="node5" class="node">
<title>RIGHT</title>
<ellipse fill="lightblue" stroke="black" cx="33.94" cy="-318.72" rx="33.88" ry="33.88"/>
<text text-anchor="middle" x="33.94" y="-316.52" font-family="Times,serif" font-size="9.00">RIGHT</text>
</g>
<!-- angle closest rock&#45;&gt;RIGHT -->
<g id="edge2" class="edge">
<title>angle closest rock&#45;&gt;RIGHT</title>
<path fill="none" stroke="green" stroke-width="1.23" d="M69.66,-388.42C65.81,-381.02 59.87,-369.58 53.92,-358.15"/>
<polygon fill="green" stroke="green" stroke-width="1.23" points="56.91,-356.32 49.2,-349.06 50.7,-359.55 56.91,-356.32"/>
</g>
<!-- 1819 -->
<g id="node9" class="node">
<title>1819</title>
<ellipse fill="white" stroke="black" cx="114.94" cy="-318.72" rx="28.98" ry="28.98"/>
<text text-anchor="middle" x="114.94" y="-316.52" font-family="Times,serif" font-size="9.00">1819</text>
</g>
<!-- angle closest rock&#45;&gt;1819 -->
<g id="edge7" class="edge">
<title>angle closest rock&#45;&gt;1819</title>
<path fill="none" stroke="green" stroke-width="0.27" d="M78.33,-388.42C82.78,-380.06 89.98,-366.56 96.82,-353.72"/>
<polygon fill="green" stroke="green" stroke-width="0.27" points="100.08,-355.05 101.69,-344.58 93.9,-351.76 100.08,-355.05"/>
</g>
<!-- distance closest rock -->
<g id="node2" class="node">
<title>distance closest rock</title>
<polygon fill="lightgray" stroke="black" points="255.44,-406.66 142.44,-406.66 142.44,-388.66 255.44,-388.66 255.44,-406.66"/>
<text text-anchor="middle" x="198.94" y="-395.46" font-family="Times,serif" font-size="9.00">distance closest rock</text>
</g>
<!-- angle ship -->
<g id="node3" class="node">
<title>angle ship</title>
<polygon fill="lightgray" stroke="black" points="220.44,-228.79 155.44,-228.79 155.44,-210.79 220.44,-210.79 220.44,-228.79"/>
<text text-anchor="middle" x="187.94" y="-217.59" font-family="Times,serif" font-size="9.00">angle ship</text>
</g>
<!-- DASH -->
<g id="node6" class="node">
<title>DASH</title>
<ellipse fill="lightblue" stroke="black" cx="186.94" cy="-123.68" rx="31.23" ry="31.23"/>
<text text-anchor="middle" x="186.94" y="-121.48" font-family="Times,serif" font-size="9.00">DASH</text>
</g>
<!-- angle ship&#45;&gt;DASH -->
<g id="edge9" class="edge">
<title>angle ship&#45;&gt;DASH</title>
<path fill="none" stroke="red" stroke-width="0.4" d="M187.86,-210.76C187.75,-200.6 187.55,-182.36 187.37,-165.27"/>
<polygon fill="red" stroke="red" stroke-width="0.4" points="190.87,-164.83 187.26,-154.87 183.87,-164.91 190.87,-164.83"/>
</g>
<!-- FIRE -->
<g id="node7" class="node">
<title>FIRE</title>
<ellipse fill="lightblue" stroke="black" cx="176.94" cy="-28.28" rx="28.07" ry="28.07"/>
<text text-anchor="middle" x="176.94" y="-26.08" font-family="Times,serif" font-size="9.00">FIRE</text>
</g>
<!-- angle ship&#45;&gt;FIRE -->
<g id="edge1" class="edge">
<title>angle ship&#45;&gt;FIRE</title>
<path fill="none" stroke="green" stroke-width="0.41" d="M195.17,-210.4C204.64,-198.82 220.75,-176.84 226.94,-154.79 234.42,-128.17 236.02,-118.69 226.94,-92.57 222.22,-78.97 213.23,-66.09 204.15,-55.54"/>
<polygon fill="green" stroke="green" stroke-width="0.41" points="206.58,-53.01 197.27,-47.96 201.4,-57.72 206.58,-53.01"/>
</g>
<!-- 1581 -->
<g id="node8" class="node">
<title>1581</title>
<ellipse fill="white" stroke="black" cx="108.94" cy="-123.68" rx="28.98" ry="28.98"/>
<text text-anchor="middle" x="108.94" y="-121.48" font-family="Times,serif" font-size="9.00">1581</text>
</g>
<!-- angle ship&#45;&gt;1581 -->
<g id="edge3" class="edge">
<title>angle ship&#45;&gt;1581</title>
<path fill="none" stroke="green" stroke-width="0.27" d="M181.21,-210.76C170.78,-198.34 150.2,-173.83 133.66,-154.13"/>
<polygon fill="green" stroke="green" stroke-width="0.27" points="136.2,-151.71 127.09,-146.3 130.84,-156.21 136.2,-151.71"/>
</g>
<!-- LEFT -->
<g id="node4" class="node">
<title>LEFT</title>
<ellipse fill="lightblue" stroke="black" cx="108.94" cy="-219.79" rx="28.98" ry="28.98"/>
<text text-anchor="middle" x="108.94" y="-217.59" font-family="Times,serif" font-size="9.00">LEFT</text>
</g>
<!-- LEFT&#45;&gt;1581 -->
<g id="edge5" class="edge">
<title>LEFT&#45;&gt;1581</title>
<path fill="none" stroke="green" stroke-width="0.4" d="M108.94,-190.55C108.94,-181.9 108.94,-172.23 108.94,-163.02"/>
<polygon fill="green" stroke="green" stroke-width="0.4" points="112.44,-162.9 108.94,-152.9 105.44,-162.9 112.44,-162.9"/>
</g>
<!-- RIGHT&#45;&gt;1581 -->
<g id="edge6" class="edge">
<title>RIGHT&#45;&gt;1581</title>
<path fill="none" stroke="red" stroke-width="0.23" d="M41.1,-285.43C47.41,-259.33 57.67,-221.94 70.94,-190.79 75.76,-179.49 82.07,-167.69 88.17,-157.24"/>
<polygon fill="red" stroke="red" stroke-width="0.23" points="91.3,-158.84 93.43,-148.46 85.29,-155.24 91.3,-158.84"/>
</g>
<!-- 1581&#45;&gt;FIRE -->
<g id="edge4" class="edge">
<title>1581&#45;&gt;FIRE</title>
<path fill="none" stroke="green" stroke-width="0.38" d="M125.75,-99.59C134.46,-87.63 145.21,-72.86 154.61,-59.95"/>
<polygon fill="green" stroke="green" stroke-width="0.38" points="157.5,-61.93 160.56,-51.78 151.84,-57.81 157.5,-61.93"/>
</g>
<!-- 1819&#45;&gt;LEFT -->
<g id="edge8" class="edge">
<title>1819&#45;&gt;LEFT</title>
<path fill="none" stroke="red" stroke-width="1.26" d="M113.21,-289.68C112.61,-280.04 111.93,-269.07 111.29,-258.77"/>
<polygon fill="red" stroke="red" stroke-width="1.26" points="114.78,-258.52 110.67,-248.76 107.8,-258.96 114.78,-258.52"/>
</g>
</g>
</svg>
