<?xml version="1.0" encoding="UTF-8" standalone="no"?>
<!DOCTYPE svg PUBLIC "-//W3C//DTD SVG 1.1//EN"
 "http://www.w3.org/Graphics/SVG/1.1/DTD/svg11.dtd">
<!-- Generated by graphviz version 8.0.5 (0)
 -->
<!-- Pages: 1 -->
<svg width="833pt" height="337pt"
 viewBox="0.00 0.00 832.78 337.38" xmlns="http://www.w3.org/2000/svg" xmlns:xlink="http://www.w3.org/1999/xlink">
<g id="graph0" class="graph" transform="scale(1 1) rotate(0) translate(4 333.38)">
<polygon fill="white" stroke="none" points="-4,4 -4,-333.38 828.78,-333.38 828.78,4 -4,4"/>
<!-- &#45;1 -->
<g id="node1" class="node">
<title>&#45;1</title>
<polygon fill="lightgray" stroke="black" points="310.53,-263.27 287.03,-263.27 287.03,-244.77 310.53,-244.77 310.53,-263.27"/>
<text text-anchor="middle" x="298.78" y="-250.72" font-family="Times,serif" font-size="9.00">&#45;1</text>
</g>
<!-- 0 -->
<g id="node10" class="node">
<title>0</title>
<ellipse fill="lightblue" stroke="black" cx="121.78" cy="-173.12" rx="14.5" ry="14.5"/>
<text text-anchor="middle" x="121.78" y="-169.82" font-family="Times,serif" font-size="9.00">0</text>
</g>
<!-- &#45;1&#45;&gt;0 -->
<g id="edge34" class="edge">
<title>&#45;1&#45;&gt;0</title>
<path fill="none" stroke="red" stroke-width="0.36" d="M286.61,-247.59C257.09,-234.43 181.32,-200.66 143.68,-183.88"/>
<polygon fill="red" stroke="red" stroke-width="0.36" points="145.54,-180.88 134.98,-180 142.69,-187.27 145.54,-180.88"/>
</g>
<!-- 1 -->
<g id="node11" class="node">
<title>1</title>
<ellipse fill="lightblue" stroke="black" cx="164.78" cy="-14.5" rx="14.5" ry="14.5"/>
<text text-anchor="middle" x="164.78" y="-11.2" font-family="Times,serif" font-size="9.00">1</text>
</g>
<!-- &#45;1&#45;&gt;1 -->
<g id="edge27" class="edge">
<title>&#45;1&#45;&gt;1</title>
<path fill="none" stroke="green" stroke-width="0.42" d="M293.85,-244.28C274.64,-210.24 204.48,-85.87 176.45,-36.2"/>
<polygon fill="green" stroke="green" stroke-width="0.42" points="179.55,-34.56 171.59,-27.57 173.45,-38 179.55,-34.56"/>
</g>
<!-- 2 -->
<g id="node12" class="node">
<title>2</title>
<ellipse fill="lightblue" stroke="black" cx="378.78" cy="-14.5" rx="14.5" ry="14.5"/>
<text text-anchor="middle" x="378.78" y="-11.2" font-family="Times,serif" font-size="9.00">2</text>
</g>
<!-- &#45;1&#45;&gt;2 -->
<g id="edge10" class="edge">
<title>&#45;1&#45;&gt;2</title>
<path fill="none" stroke="red" stroke-width="0.27" d="M296.03,-244.42C287.62,-216.41 264.77,-126.01 298.78,-64.99 310.83,-43.37 336.65,-30 355.72,-22.69"/>
<polygon fill="red" stroke="red" stroke-width="0.27" points="356.71,-26.05 364.96,-19.41 354.37,-19.45 356.71,-26.05"/>
</g>
<!-- 1032 -->
<g id="node15" class="node">
<title>1032</title>
<ellipse fill="white" stroke="black" cx="405.78" cy="-173.12" rx="24.04" ry="24.04"/>
<text text-anchor="middle" x="405.78" y="-169.82" font-family="Times,serif" font-size="9.00">1032</text>
</g>
<!-- &#45;1&#45;&gt;1032 -->
<g id="edge40" class="edge">
<title>&#45;1&#45;&gt;1032</title>
<path fill="none" stroke="green" stroke-width="0.15" d="M310.64,-244.27C326.94,-232.25 356.76,-210.26 378.68,-194.1"/>
<polygon fill="green" stroke="green" stroke-width="0.15" points="380.68,-196.97 386.65,-188.22 376.53,-191.34 380.68,-196.97"/>
</g>
<!-- 266 -->
<g id="node16" class="node">
<title>266</title>
<ellipse fill="white" stroke="black" cx="682.78" cy="-89.03" rx="20.86" ry="20.86"/>
<text text-anchor="middle" x="682.78" y="-85.73" font-family="Times,serif" font-size="9.00">266</text>
</g>
<!-- &#45;1&#45;&gt;266 -->
<g id="edge45" class="edge">
<title>&#45;1&#45;&gt;266</title>
<path fill="none" stroke="green" stroke-width="0.28" d="M310.83,-246.9C320.15,-242.42 333.48,-236.57 345.78,-233.16 455.22,-202.8 500.41,-253.94 598.78,-197.16 607.66,-192.03 643.15,-144.56 665.06,-114.55"/>
<polygon fill="green" stroke="green" stroke-width="0.28" points="667.79,-116.75 670.84,-106.6 662.13,-112.63 667.79,-116.75"/>
</g>
<!-- 267 -->
<g id="node17" class="node">
<title>267</title>
<ellipse fill="white" stroke="black" cx="328.78" cy="-89.03" rx="20.86" ry="20.86"/>
<text text-anchor="middle" x="328.78" y="-85.73" font-family="Times,serif" font-size="9.00">267</text>
</g>
<!-- &#45;1&#45;&gt;267 -->
<g id="edge11" class="edge">
<title>&#45;1&#45;&gt;267</title>
<path fill="none" stroke="green" stroke-width="0.21" d="M305.32,-244.52C312.93,-234.05 325.05,-215.41 329.78,-197.16 336.42,-171.51 335.36,-141.24 333.11,-119.43"/>
<polygon fill="green" stroke="green" stroke-width="0.21" points="336.62,-119.28 331.98,-109.76 329.67,-120.09 336.62,-119.28"/>
</g>
<!-- &#45;2 -->
<g id="node2" class="node">
<title>&#45;2</title>
<polygon fill="lightgray" stroke="black" points="547.53,-182.37 524.03,-182.37 524.03,-163.87 547.53,-163.87 547.53,-182.37"/>
<text text-anchor="middle" x="535.78" y="-169.82" font-family="Times,serif" font-size="9.00">&#45;2</text>
</g>
<!-- &#45;2&#45;&gt;1 -->
<g id="edge4" class="edge">
<title>&#45;2&#45;&gt;1</title>
<path fill="none" stroke="red" stroke-width="0.27" d="M527.81,-163.46C522.99,-158.65 516.49,-152.89 509.78,-149.07 463.95,-123.03 440.12,-143.06 396.78,-113.07 374.38,-97.58 381.62,-79.83 358.78,-64.99 305.21,-30.21 228.61,-19.86 189.63,-16.79"/>
<polygon fill="red" stroke="red" stroke-width="0.27" points="189.9,-13.3 179.68,-16.1 189.41,-20.28 189.9,-13.3"/>
</g>
<!-- &#45;2&#45;&gt;2 -->
<g id="edge19" class="edge">
<title>&#45;2&#45;&gt;2</title>
<path fill="none" stroke="green" stroke-width="0.14" d="M531.54,-163.4C521.71,-143.84 495.63,-95.76 462.78,-64.99 444.36,-47.75 418.92,-33.81 400.88,-25.17"/>
<polygon fill="green" stroke="green" stroke-width="0.14" points="402.73,-22.17 392.19,-21.14 399.79,-28.52 402.73,-22.17"/>
</g>
<!-- 3 -->
<g id="node13" class="node">
<title>3</title>
<ellipse fill="lightblue" stroke="black" cx="657.78" cy="-14.5" rx="14.5" ry="14.5"/>
<text text-anchor="middle" x="657.78" y="-11.2" font-family="Times,serif" font-size="9.00">3</text>
</g>
<!-- &#45;2&#45;&gt;3 -->
<g id="edge32" class="edge">
<title>&#45;2&#45;&gt;3</title>
<path fill="none" stroke="red" stroke-width="0.43" d="M541.08,-163.44C552.64,-144.75 581.38,-99.59 609.78,-64.99 619.36,-53.31 631.17,-41.11 640.67,-31.75"/>
<polygon fill="red" stroke="red" stroke-width="0.43" points="642.98,-34.39 647.71,-24.91 638.1,-29.37 642.98,-34.39"/>
</g>
<!-- &#45;2&#45;&gt;266 -->
<g id="edge29" class="edge">
<title>&#45;2&#45;&gt;266</title>
<path fill="none" stroke="green" stroke-width="0.68" d="M542.09,-163.68C545.95,-158.94 551.2,-153.18 556.78,-149.07 586.69,-127.04 626.14,-110.17 652.87,-100.21"/>
<polygon fill="green" stroke="green" stroke-width="0.68" points="654.93,-103.19 663.14,-96.49 652.54,-96.61 654.93,-103.19"/>
</g>
<!-- &#45;2&#45;&gt;267 -->
<g id="edge15" class="edge">
<title>&#45;2&#45;&gt;267</title>
<path fill="none" stroke="green" stroke-width="0.28" d="M528.35,-163.74C523.52,-158.79 516.82,-152.78 509.78,-149.07 450.6,-118.01 425.02,-139.84 363.78,-113.07 360.38,-111.59 356.94,-109.78 353.62,-107.84"/>
<polygon fill="green" stroke="green" stroke-width="0.28" points="355.52,-104.9 345.2,-102.51 351.78,-110.81 355.52,-104.9"/>
</g>
<!-- 1335 -->
<g id="node18" class="node">
<title>1335</title>
<ellipse fill="white" stroke="black" cx="429.78" cy="-89.03" rx="24.04" ry="24.04"/>
<text text-anchor="middle" x="429.78" y="-85.73" font-family="Times,serif" font-size="9.00">1335</text>
</g>
<!-- &#45;2&#45;&gt;1335 -->
<g id="edge43" class="edge">
<title>&#45;2&#45;&gt;1335</title>
<path fill="none" stroke="green" stroke-width="0.44" d="M526.32,-163.37C521.47,-158.98 515.4,-153.63 509.78,-149.07 492.64,-135.2 472.68,-120.47 456.99,-109.2"/>
<polygon fill="green" stroke="green" stroke-width="0.44" points="459.38,-106.61 449.21,-103.64 455.31,-112.3 459.38,-106.61"/>
</g>
<!-- &#45;3 -->
<g id="node3" class="node">
<title>&#45;3</title>
<polygon fill="lightgray" stroke="black" points="272.53,-329.38 249.03,-329.38 249.03,-310.88 272.53,-310.88 272.53,-329.38"/>
<text text-anchor="middle" x="260.78" y="-316.83" font-family="Times,serif" font-size="9.00">&#45;3</text>
</g>
<!-- &#45;3&#45;&gt;0 -->
<g id="edge33" class="edge">
<title>&#45;3&#45;&gt;0</title>
<path fill="none" stroke="green" stroke-width="0.41" d="M248.59,-312.34C235.03,-304.44 212.91,-290.45 196.78,-274.88 171.11,-250.09 147.61,-215.83 134,-194.32"/>
<polygon fill="green" stroke="green" stroke-width="0.41" points="137.05,-192.6 128.79,-185.96 131.1,-196.3 137.05,-192.6"/>
</g>
<!-- &#45;3&#45;&gt;1 -->
<g id="edge2" class="edge">
<title>&#45;3&#45;&gt;1</title>
<path fill="none" stroke="green" stroke-width="0.18" d="M248.61,-316.1C228.19,-310.57 186.45,-297.3 157.78,-274.88 123.61,-248.16 112.61,-238.26 98.78,-197.16 78.53,-137.02 124.21,-66.6 149.46,-33.91"/>
<polygon fill="green" stroke="green" stroke-width="0.18" points="152.2,-36.09 155.68,-26.08 146.72,-31.73 152.2,-36.09"/>
</g>
<!-- 264 -->
<g id="node14" class="node">
<title>264</title>
<ellipse fill="white" stroke="black" cx="408.78" cy="-254.02" rx="20.86" ry="20.86"/>
<text text-anchor="middle" x="408.78" y="-250.72" font-family="Times,serif" font-size="9.00">264</text>
</g>
<!-- &#45;3&#45;&gt;264 -->
<g id="edge7" class="edge">
<title>&#45;3&#45;&gt;264</title>
<path fill="none" stroke="green" stroke-width="0.24" d="M272.89,-315.03C293.84,-307.79 338.02,-291.92 373.78,-274.88 376.68,-273.49 379.67,-271.97 382.62,-270.39"/>
<polygon fill="green" stroke="green" stroke-width="0.24" points="384.18,-273.53 391.23,-265.62 380.79,-267.41 384.18,-273.53"/>
</g>
<!-- &#45;3&#45;&gt;266 -->
<g id="edge3" class="edge">
<title>&#45;3&#45;&gt;266</title>
<path fill="none" stroke="red" stroke-width="0.19" d="M272.24,-310.54C300.71,-289.26 372.76,-235.6 378.78,-233.16 484.02,-190.45 540.26,-264.43 631.78,-197.16 657.01,-178.61 670.26,-144.3 676.86,-119.5"/>
<polygon fill="red" stroke="red" stroke-width="0.19" points="680.24,-120.4 679.22,-109.86 673.44,-118.74 680.24,-120.4"/>
</g>
<!-- &#45;4 -->
<g id="node4" class="node">
<title>&#45;4</title>
<polygon fill="lightgray" stroke="black" points="576.53,-329.38 553.03,-329.38 553.03,-310.88 576.53,-310.88 576.53,-329.38"/>
<text text-anchor="middle" x="564.78" y="-316.83" font-family="Times,serif" font-size="9.00">&#45;4</text>
</g>
<!-- &#45;4&#45;&gt;3 -->
<g id="edge24" class="edge">
<title>&#45;4&#45;&gt;3</title>
<path fill="none" stroke="green" stroke-width="0.38" d="M576.94,-314.84C593.87,-308.38 624.7,-294.76 644.78,-274.88 672.98,-246.95 673.44,-233.77 688.78,-197.16 711.84,-142.09 737.07,-119.53 712.78,-64.99 705.73,-49.16 690.84,-36.28 678.33,-27.62"/>
<polygon fill="green" stroke="green" stroke-width="0.38" points="680.47,-24.84 670.17,-22.32 676.65,-30.71 680.47,-24.84"/>
</g>
<!-- &#45;4&#45;&gt;264 -->
<g id="edge16" class="edge">
<title>&#45;4&#45;&gt;264</title>
<path fill="none" stroke="green" stroke-width="0.51" d="M552.83,-315.49C530.82,-308.62 482.55,-292.82 443.78,-274.88 440.86,-273.53 437.86,-272.02 434.9,-270.46"/>
<polygon fill="green" stroke="green" stroke-width="0.51" points="436.73,-267.47 426.28,-265.7 433.35,-273.6 436.73,-267.47"/>
</g>
<!-- &#45;4&#45;&gt;266 -->
<g id="edge13" class="edge">
<title>&#45;4&#45;&gt;266</title>
<path fill="none" stroke="green" stroke-width="0.13" d="M575.73,-310.42C597.86,-292.14 647.66,-247.26 669.78,-197.16 680.55,-172.75 683.36,-142.33 683.73,-120.16"/>
<polygon fill="green" stroke="green" stroke-width="0.13" points="687.23,-120.3 683.75,-110.3 680.23,-120.29 687.23,-120.3"/>
</g>
<!-- &#45;4&#45;&gt;267 -->
<g id="edge31" class="edge">
<title>&#45;4&#45;&gt;267</title>
<path fill="none" stroke="green" stroke-width="0.19" d="M559.35,-310.64C539.47,-279.76 470.19,-173.91 438.78,-149.07 406.91,-123.88 389.08,-134.82 354.78,-113.07 353.41,-112.21 352.05,-111.27 350.7,-110.29"/>
<polygon fill="green" stroke="green" stroke-width="0.19" points="353.23,-107.84 343.24,-104.31 348.85,-113.3 353.23,-107.84"/>
</g>
<!-- &#45;5 -->
<g id="node5" class="node">
<title>&#45;5</title>
<polygon fill="lightgray" stroke="black" points="94.53,-329.38 71.03,-329.38 71.03,-310.88 94.53,-310.88 94.53,-329.38"/>
<text text-anchor="middle" x="82.78" y="-316.83" font-family="Times,serif" font-size="9.00">&#45;5</text>
</g>
<!-- &#45;5&#45;&gt;0 -->
<g id="edge8" class="edge">
<title>&#45;5&#45;&gt;0</title>
<path fill="none" stroke="red" stroke-width="0.63" d="M85.1,-310.49C91.02,-288.48 106.82,-229.73 115.63,-196.98"/>
<polygon fill="red" stroke="red" stroke-width="0.63" points="119,-197.9 118.22,-187.34 112.24,-196.09 119,-197.9"/>
</g>
<!-- &#45;5&#45;&gt;1 -->
<g id="edge6" class="edge">
<title>&#45;5&#45;&gt;1</title>
<path fill="none" stroke="green" stroke-width="0.37" d="M74.92,-310.61C67.48,-302.13 56.48,-288.46 49.78,-274.88 8.28,-190.76 -26.11,-141.76 27.78,-64.99 53.23,-28.73 108.01,-18.92 140.05,-16.34"/>
<polygon fill="green" stroke="green" stroke-width="0.37" points="140.21,-19.83 149.97,-15.71 139.77,-12.85 140.21,-19.83"/>
</g>
<!-- &#45;5&#45;&gt;2 -->
<g id="edge20" class="edge">
<title>&#45;5&#45;&gt;2</title>
<path fill="none" stroke="red" stroke-width="0.54" d="M81,-310.46C76.04,-283.83 64.57,-201.82 98.78,-149.07 157.96,-57.83 297.99,-27.42 354.5,-18.64"/>
<polygon fill="red" stroke="red" stroke-width="0.54" points="354.66,-22.16 364.04,-17.25 353.64,-15.23 354.66,-22.16"/>
</g>
<!-- &#45;5&#45;&gt;264 -->
<g id="edge17" class="edge">
<title>&#45;5&#45;&gt;264</title>
<path fill="none" stroke="red" stroke-width="0.44" d="M94.89,-317.02C129.85,-310.91 233.87,-292.48 319.78,-274.88 339.48,-270.84 361.55,-265.92 378.78,-261.98"/>
<polygon fill="red" stroke="red" stroke-width="0.44" points="379.35,-265.44 388.32,-259.8 377.79,-258.62 379.35,-265.44"/>
</g>
<!-- &#45;6 -->
<g id="node6" class="node">
<title>&#45;6</title>
<polygon fill="lightgray" stroke="black" points="635.53,-329.38 612.03,-329.38 612.03,-310.88 635.53,-310.88 635.53,-329.38"/>
<text text-anchor="middle" x="623.78" y="-316.83" font-family="Times,serif" font-size="9.00">&#45;6</text>
</g>
<!-- &#45;6&#45;&gt;2 -->
<g id="edge12" class="edge">
<title>&#45;6&#45;&gt;2</title>
<path fill="none" stroke="green" stroke-width="0.88" d="M635.73,-311.47C646.99,-303.63 663.48,-290.42 672.78,-274.88 721.54,-193.39 774.81,-136.89 712.78,-64.99 672.69,-18.53 474.81,-14.96 404.02,-15.2"/>
<polygon fill="green" stroke="green" stroke-width="0.88" points="404.4,-11.7 394.43,-15.27 404.45,-18.7 404.4,-11.7"/>
</g>
<!-- &#45;6&#45;&gt;3 -->
<g id="edge9" class="edge">
<title>&#45;6&#45;&gt;3</title>
<path fill="none" stroke="red" stroke-width="0.19" d="M635.64,-317.69C669.52,-313.31 765.45,-298.96 783.78,-274.88 840.27,-200.64 836.31,-142.07 783.78,-64.99 760.92,-31.46 711.59,-20.65 681.88,-17.16"/>
<polygon fill="red" stroke="red" stroke-width="0.19" points="682.57,-13.71 672.27,-16.2 681.88,-20.67 682.57,-13.71"/>
</g>
<!-- &#45;6&#45;&gt;264 -->
<g id="edge23" class="edge">
<title>&#45;6&#45;&gt;264</title>
<path fill="none" stroke="red" stroke-width="0.27" d="M611.6,-315.5C578.51,-305.63 486.21,-278.11 438.37,-263.84"/>
<polygon fill="red" stroke="red" stroke-width="0.27" points="439.46,-260.51 428.87,-261.01 437.46,-267.22 439.46,-260.51"/>
</g>
<!-- &#45;6&#45;&gt;267 -->
<g id="edge22" class="edge">
<title>&#45;6&#45;&gt;267</title>
<path fill="none" stroke="red" stroke-width="0.44" d="M616.08,-310.58C598.21,-290.73 552.57,-239.93 514.78,-197.16 495.99,-175.89 496.6,-164.49 472.78,-149.07 426.75,-119.28 402.61,-139.87 354.78,-113.07 353.49,-112.36 352.22,-111.57 350.96,-110.72"/>
<polygon fill="red" stroke="red" stroke-width="0.44" points="353.11,-107.96 343.05,-104.63 348.84,-113.5 353.11,-107.96"/>
</g>
<!-- &#45;7 -->
<g id="node7" class="node">
<title>&#45;7</title>
<polygon fill="lightgray" stroke="black" points="589.53,-182.37 566.03,-182.37 566.03,-163.87 589.53,-163.87 589.53,-182.37"/>
<text text-anchor="middle" x="577.78" y="-169.82" font-family="Times,serif" font-size="9.00">&#45;7</text>
</g>
<!-- &#45;7&#45;&gt;1 -->
<g id="edge38" class="edge">
<title>&#45;7&#45;&gt;1</title>
<path fill="none" stroke="red" stroke-width="0.23" d="M570.94,-163.43C567.07,-158.85 561.98,-153.31 556.78,-149.07 532.35,-129.22 518.78,-134.56 495.78,-113.07 476.83,-95.38 484.64,-78.91 462.78,-64.99 417.19,-35.97 251.89,-21.6 189.15,-17.1"/>
<polygon fill="red" stroke="red" stroke-width="0.23" points="189.56,-13.62 179.34,-16.41 189.07,-20.6 189.56,-13.62"/>
</g>
<!-- &#45;7&#45;&gt;2 -->
<g id="edge1" class="edge">
<title>&#45;7&#45;&gt;2</title>
<path fill="none" stroke="green" stroke-width="0.15" d="M573.2,-163.4C562.32,-143.41 533,-93.81 495.78,-64.99 467.27,-42.92 427.46,-28.85 402.41,-21.57"/>
<polygon fill="green" stroke="green" stroke-width="0.15" points="403.53,-18.25 392.96,-18.94 401.66,-24.99 403.53,-18.25"/>
</g>
<!-- &#45;7&#45;&gt;3 -->
<g id="edge18" class="edge">
<title>&#45;7&#45;&gt;3</title>
<path fill="none" stroke="green" stroke-width="0.11" d="M582.66,-163.37C589.03,-151.9 600.46,-131.1 609.78,-113.07 623.18,-87.13 637.91,-56.91 647.47,-37.06"/>
<polygon fill="green" stroke="green" stroke-width="0.11" points="650.55,-38.74 651.72,-28.21 644.24,-35.71 650.55,-38.74"/>
</g>
<!-- &#45;7&#45;&gt;266 -->
<g id="edge36" class="edge">
<title>&#45;7&#45;&gt;266</title>
<path fill="none" stroke="green" stroke-width="0.32" d="M587.24,-163.39C592.1,-158.99 598.16,-153.65 603.78,-149.07 621.64,-134.53 642.55,-118.96 658.37,-107.47"/>
<polygon fill="green" stroke="green" stroke-width="0.32" points="660.08,-110.55 666.13,-101.85 655.98,-104.88 660.08,-110.55"/>
</g>
<!-- &#45;7&#45;&gt;267 -->
<g id="edge14" class="edge">
<title>&#45;7&#45;&gt;267</title>
<path fill="none" stroke="green" stroke-width="0.12" d="M572.12,-163.66C568.34,-158.68 562.95,-152.66 556.78,-149.07 493.76,-112.45 466.95,-132.8 396.78,-113.07 383.71,-109.4 369.46,-104.68 357.39,-100.48"/>
<polygon fill="green" stroke="green" stroke-width="0.12" points="358.84,-97.28 348.24,-97.24 356.5,-103.88 358.84,-97.28"/>
</g>
<!-- &#45;8 -->
<g id="node8" class="node">
<title>&#45;8</title>
<polygon fill="lightgray" stroke="black" points="229.53,-263.27 206.03,-263.27 206.03,-244.77 229.53,-244.77 229.53,-263.27"/>
<text text-anchor="middle" x="217.78" y="-250.72" font-family="Times,serif" font-size="9.00">&#45;8</text>
</g>
<!-- &#45;8&#45;&gt;0 -->
<g id="edge39" class="edge">
<title>&#45;8&#45;&gt;0</title>
<path fill="none" stroke="green" stroke-width="0.4" d="M207.17,-244.31C193.79,-233.33 170.07,-213.85 149.78,-197.16 146.69,-194.62 143.42,-191.93 140.23,-189.31"/>
<polygon fill="green" stroke="green" stroke-width="0.4" points="142.62,-186.74 132.68,-183.09 138.18,-192.15 142.62,-186.74"/>
</g>
<!-- &#45;8&#45;&gt;1 -->
<g id="edge26" class="edge">
<title>&#45;8&#45;&gt;1</title>
<path fill="none" stroke="red" stroke-width="0.3" d="M211.8,-244.39C197.56,-223.23 162.03,-166.59 150.78,-113.07 146.38,-92.16 147.84,-86.16 150.78,-64.99 152.03,-55.94 154.52,-46.21 157.06,-37.79"/>
<polygon fill="red" stroke="red" stroke-width="0.3" points="160.38,-38.9 160.1,-28.31 153.71,-36.77 160.38,-38.9"/>
</g>
<!-- &#45;8&#45;&gt;2 -->
<g id="edge21" class="edge">
<title>&#45;8&#45;&gt;2</title>
<path fill="none" stroke="green" stroke-width="0.36" d="M218.32,-244.4C220.56,-215.52 231.45,-120.9 279.78,-64.99 299.61,-42.05 332.62,-28.58 355.02,-21.63"/>
<polygon fill="green" stroke="green" stroke-width="0.36" points="355.85,-25.03 364.48,-18.88 353.9,-18.31 355.85,-25.03"/>
</g>
<!-- &#45;8&#45;&gt;267 -->
<g id="edge5" class="edge">
<title>&#45;8&#45;&gt;267</title>
<path fill="none" stroke="green" stroke-width="0.58" d="M223.43,-244.71C239.62,-220.95 286.56,-152.02 311.97,-114.71"/>
<polygon fill="green" stroke="green" stroke-width="0.58" points="314.61,-117.06 317.34,-106.82 308.82,-113.12 314.61,-117.06"/>
</g>
<!-- &#45;9 -->
<g id="node9" class="node">
<title>&#45;9</title>
<polygon fill="lightgray" stroke="black" points="420.53,-329.38 397.03,-329.38 397.03,-310.88 420.53,-310.88 420.53,-329.38"/>
<text text-anchor="middle" x="408.78" y="-316.83" font-family="Times,serif" font-size="9.00">&#45;9</text>
</g>
<!-- &#45;9&#45;&gt;264 -->
<g id="edge25" class="edge">
<title>&#45;9&#45;&gt;264</title>
<path fill="none" stroke="red" stroke-width="0.5" d="M408.78,-310.48C408.78,-303.91 408.78,-294.44 408.78,-285.18"/>
<polygon fill="red" stroke="red" stroke-width="0.5" points="412.28,-285.37 408.78,-275.37 405.28,-285.37 412.28,-285.37"/>
</g>
<!-- 264&#45;&gt;1032 -->
<g id="edge42" class="edge">
<title>264&#45;&gt;1032</title>
<path fill="none" stroke="red" stroke-width="0.31" d="M408,-232.7C407.71,-224.95 407.37,-215.91 407.04,-207.28"/>
<polygon fill="red" stroke="red" stroke-width="0.31" points="410.54,-207.3 406.66,-197.44 403.55,-207.56 410.54,-207.3"/>
</g>
<!-- 1032&#45;&gt;267 -->
<g id="edge41" class="edge">
<title>1032&#45;&gt;267</title>
<path fill="none" stroke="green" stroke-width="0.26" d="M389.82,-155.11C378.08,-142.59 362.01,-125.46 349.31,-111.92"/>
<polygon fill="green" stroke="green" stroke-width="0.26" points="352.04,-109.72 342.64,-104.82 346.93,-114.51 352.04,-109.72"/>
</g>
<!-- 266&#45;&gt;3 -->
<g id="edge30" class="edge">
<title>266&#45;&gt;3</title>
<path fill="none" stroke="red" stroke-width="0.12" d="M676.21,-68.97C672.91,-59.4 668.89,-47.75 665.45,-37.77"/>
<polygon fill="red" stroke="red" stroke-width="0.12" points="668.82,-36.8 662.25,-28.48 662.2,-39.08 668.82,-36.8"/>
</g>
<!-- 267&#45;&gt;1 -->
<g id="edge35" class="edge">
<title>267&#45;&gt;1</title>
<path fill="none" stroke="red" stroke-width="0.66" stroke-dasharray="1,5" d="M309.64,-79.57C279.28,-66.14 220.17,-40 187.63,-25.6"/>
<polygon fill="red" stroke="red" stroke-width="0.66" points="188.25,-22.05 177.69,-21.21 185.42,-28.45 188.25,-22.05"/>
</g>
<!-- 267&#45;&gt;2 -->
<g id="edge28" class="edge">
<title>267&#45;&gt;2</title>
<path fill="none" stroke="green" stroke-width="0.67" d="M340.37,-71.21C347.6,-60.72 356.95,-47.15 364.62,-36.03"/>
<polygon fill="green" stroke="green" stroke-width="0.67" points="368.03,-37.25 370.83,-27.03 362.27,-33.28 368.03,-37.25"/>
</g>
<!-- 267&#45;&gt;3 -->
<g id="edge37" class="edge">
<title>267&#45;&gt;3</title>
<path fill="none" stroke="green" stroke-width="0.59" d="M348.2,-80.65C361.68,-75.72 380.14,-69.36 396.78,-64.99 482.64,-42.42 586.96,-25.81 633.42,-18.95"/>
<polygon fill="green" stroke="green" stroke-width="0.59" points="633.8,-22.44 643.19,-17.53 632.79,-15.51 633.8,-22.44"/>
</g>
<!-- 1335&#45;&gt;2 -->
<g id="edge44" class="edge">
<title>1335&#45;&gt;2</title>
<path fill="none" stroke="red" stroke-width="0.16" d="M416.38,-68.97C408.92,-58.38 399.68,-45.22 392.22,-34.62"/>
<polygon fill="red" stroke="red" stroke-width="0.16" points="395.3,-32.92 386.69,-26.75 389.58,-36.94 395.3,-32.92"/>
</g>
</g>
</svg>
