<?xml version="1.0" encoding="utf-8" standalone="no"?>
<!DOCTYPE svg PUBLIC "-//W3C//DTD SVG 1.1//EN"
  "http://www.w3.org/Graphics/SVG/1.1/DTD/svg11.dtd">
<svg xmlns:xlink="http://www.w3.org/1999/xlink" width="460.8pt" height="345.6pt" viewBox="0 0 460.8 345.6" xmlns="http://www.w3.org/2000/svg" version="1.1">
 <metadata>
  <rdf:RDF xmlns:dc="http://purl.org/dc/elements/1.1/" xmlns:cc="http://creativecommons.org/ns#" xmlns:rdf="http://www.w3.org/1999/02/22-rdf-syntax-ns#">
   <cc:Work>
    <dc:type rdf:resource="http://purl.org/dc/dcmitype/StillImage"/>
    <dc:date>2023-05-17T13:39:57.904658</dc:date>
    <dc:format>image/svg+xml</dc:format>
    <dc:creator>
     <cc:Agent>
      <dc:title>Matplotlib v3.7.1, https://matplotlib.org/</dc:title>
     </cc:Agent>
    </dc:creator>
   </cc:Work>
  </rdf:RDF>
 </metadata>
 <defs>
  <style type="text/css">*{stroke-linejoin: round; stroke-linecap: butt}</style>
 </defs>
 <g id="figure_1">
  <g id="patch_1">
   <path d="M 0 345.6 
L 460.8 345.6 
L 460.8 0 
L 0 0 
z
" style="fill: #ffffff"/>
  </g>
  <g id="axes_1">
   <g id="patch_2">
    <path d="M 57.6 307.584 
L 414.72 307.584 
L 414.72 41.472 
L 57.6 41.472 
z
" style="fill: #ffffff"/>
   </g>
   <g id="matplotlib.axis_1">
    <g id="xtick_1">
     <g id="line2d_1">
      <path d="M 73.832727 307.584 
L 73.832727 41.472 
" clip-path="url(#p9ceb6b799b)" style="fill: none; stroke: #b0b0b0; stroke-width: 0.8; stroke-linecap: square"/>
     </g>
     <g id="line2d_2">
      <defs>
       <path id="m7ad95094e1" d="M 0 0 
L 0 3.5 
" style="stroke: #000000; stroke-width: 0.8"/>
      </defs>
      <g>
       <use xlink:href="#m7ad95094e1" x="73.832727" y="307.584" style="stroke: #000000; stroke-width: 0.8"/>
      </g>
     </g>
     <g id="text_1">
      <!-- 0 -->
      <g transform="translate(70.651477 322.182437) scale(0.1 -0.1)">
       <defs>
        <path id="DejaVuSans-30" d="M 2034 4250 
Q 1547 4250 1301 3770 
Q 1056 3291 1056 2328 
Q 1056 1369 1301 889 
Q 1547 409 2034 409 
Q 2525 409 2770 889 
Q 3016 1369 3016 2328 
Q 3016 3291 2770 3770 
Q 2525 4250 2034 4250 
z
M 2034 4750 
Q 2819 4750 3233 4129 
Q 3647 3509 3647 2328 
Q 3647 1150 3233 529 
Q 2819 -91 2034 -91 
Q 1250 -91 836 529 
Q 422 1150 422 2328 
Q 422 3509 836 4129 
Q 1250 4750 2034 4750 
z
" transform="scale(0.015625)"/>
       </defs>
       <use xlink:href="#DejaVuSans-30"/>
      </g>
     </g>
    </g>
    <g id="xtick_2">
     <g id="line2d_3">
      <path d="M 138.893758 307.584 
L 138.893758 41.472 
" clip-path="url(#p9ceb6b799b)" style="fill: none; stroke: #b0b0b0; stroke-width: 0.8; stroke-linecap: square"/>
     </g>
     <g id="line2d_4">
      <g>
       <use xlink:href="#m7ad95094e1" x="138.893758" y="307.584" style="stroke: #000000; stroke-width: 0.8"/>
      </g>
     </g>
     <g id="text_2">
      <!-- 100 -->
      <g transform="translate(129.350008 322.182437) scale(0.1 -0.1)">
       <defs>
        <path id="DejaVuSans-31" d="M 794 531 
L 1825 531 
L 1825 4091 
L 703 3866 
L 703 4441 
L 1819 4666 
L 2450 4666 
L 2450 531 
L 3481 531 
L 3481 0 
L 794 0 
L 794 531 
z
" transform="scale(0.015625)"/>
       </defs>
       <use xlink:href="#DejaVuSans-31"/>
       <use xlink:href="#DejaVuSans-30" x="63.623047"/>
       <use xlink:href="#DejaVuSans-30" x="127.246094"/>
      </g>
     </g>
    </g>
    <g id="xtick_3">
     <g id="line2d_5">
      <path d="M 203.95479 307.584 
L 203.95479 41.472 
" clip-path="url(#p9ceb6b799b)" style="fill: none; stroke: #b0b0b0; stroke-width: 0.8; stroke-linecap: square"/>
     </g>
     <g id="line2d_6">
      <g>
       <use xlink:href="#m7ad95094e1" x="203.95479" y="307.584" style="stroke: #000000; stroke-width: 0.8"/>
      </g>
     </g>
     <g id="text_3">
      <!-- 200 -->
      <g transform="translate(194.41104 322.182437) scale(0.1 -0.1)">
       <defs>
        <path id="DejaVuSans-32" d="M 1228 531 
L 3431 531 
L 3431 0 
L 469 0 
L 469 531 
Q 828 903 1448 1529 
Q 2069 2156 2228 2338 
Q 2531 2678 2651 2914 
Q 2772 3150 2772 3378 
Q 2772 3750 2511 3984 
Q 2250 4219 1831 4219 
Q 1534 4219 1204 4116 
Q 875 4013 500 3803 
L 500 4441 
Q 881 4594 1212 4672 
Q 1544 4750 1819 4750 
Q 2544 4750 2975 4387 
Q 3406 4025 3406 3419 
Q 3406 3131 3298 2873 
Q 3191 2616 2906 2266 
Q 2828 2175 2409 1742 
Q 1991 1309 1228 531 
z
" transform="scale(0.015625)"/>
       </defs>
       <use xlink:href="#DejaVuSans-32"/>
       <use xlink:href="#DejaVuSans-30" x="63.623047"/>
       <use xlink:href="#DejaVuSans-30" x="127.246094"/>
      </g>
     </g>
    </g>
    <g id="xtick_4">
     <g id="line2d_7">
      <path d="M 269.015821 307.584 
L 269.015821 41.472 
" clip-path="url(#p9ceb6b799b)" style="fill: none; stroke: #b0b0b0; stroke-width: 0.8; stroke-linecap: square"/>
     </g>
     <g id="line2d_8">
      <g>
       <use xlink:href="#m7ad95094e1" x="269.015821" y="307.584" style="stroke: #000000; stroke-width: 0.8"/>
      </g>
     </g>
     <g id="text_4">
      <!-- 300 -->
      <g transform="translate(259.472071 322.182437) scale(0.1 -0.1)">
       <defs>
        <path id="DejaVuSans-33" d="M 2597 2516 
Q 3050 2419 3304 2112 
Q 3559 1806 3559 1356 
Q 3559 666 3084 287 
Q 2609 -91 1734 -91 
Q 1441 -91 1130 -33 
Q 819 25 488 141 
L 488 750 
Q 750 597 1062 519 
Q 1375 441 1716 441 
Q 2309 441 2620 675 
Q 2931 909 2931 1356 
Q 2931 1769 2642 2001 
Q 2353 2234 1838 2234 
L 1294 2234 
L 1294 2753 
L 1863 2753 
Q 2328 2753 2575 2939 
Q 2822 3125 2822 3475 
Q 2822 3834 2567 4026 
Q 2313 4219 1838 4219 
Q 1578 4219 1281 4162 
Q 984 4106 628 3988 
L 628 4550 
Q 988 4650 1302 4700 
Q 1616 4750 1894 4750 
Q 2613 4750 3031 4423 
Q 3450 4097 3450 3541 
Q 3450 3153 3228 2886 
Q 3006 2619 2597 2516 
z
" transform="scale(0.015625)"/>
       </defs>
       <use xlink:href="#DejaVuSans-33"/>
       <use xlink:href="#DejaVuSans-30" x="63.623047"/>
       <use xlink:href="#DejaVuSans-30" x="127.246094"/>
      </g>
     </g>
    </g>
    <g id="xtick_5">
     <g id="line2d_9">
      <path d="M 334.076852 307.584 
L 334.076852 41.472 
" clip-path="url(#p9ceb6b799b)" style="fill: none; stroke: #b0b0b0; stroke-width: 0.8; stroke-linecap: square"/>
     </g>
     <g id="line2d_10">
      <g>
       <use xlink:href="#m7ad95094e1" x="334.076852" y="307.584" style="stroke: #000000; stroke-width: 0.8"/>
      </g>
     </g>
     <g id="text_5">
      <!-- 400 -->
      <g transform="translate(324.533102 322.182437) scale(0.1 -0.1)">
       <defs>
        <path id="DejaVuSans-34" d="M 2419 4116 
L 825 1625 
L 2419 1625 
L 2419 4116 
z
M 2253 4666 
L 3047 4666 
L 3047 1625 
L 3713 1625 
L 3713 1100 
L 3047 1100 
L 3047 0 
L 2419 0 
L 2419 1100 
L 313 1100 
L 313 1709 
L 2253 4666 
z
" transform="scale(0.015625)"/>
       </defs>
       <use xlink:href="#DejaVuSans-34"/>
       <use xlink:href="#DejaVuSans-30" x="63.623047"/>
       <use xlink:href="#DejaVuSans-30" x="127.246094"/>
      </g>
     </g>
    </g>
    <g id="xtick_6">
     <g id="line2d_11">
      <path d="M 399.137883 307.584 
L 399.137883 41.472 
" clip-path="url(#p9ceb6b799b)" style="fill: none; stroke: #b0b0b0; stroke-width: 0.8; stroke-linecap: square"/>
     </g>
     <g id="line2d_12">
      <g>
       <use xlink:href="#m7ad95094e1" x="399.137883" y="307.584" style="stroke: #000000; stroke-width: 0.8"/>
      </g>
     </g>
     <g id="text_6">
      <!-- 500 -->
      <g transform="translate(389.594133 322.182437) scale(0.1 -0.1)">
       <defs>
        <path id="DejaVuSans-35" d="M 691 4666 
L 3169 4666 
L 3169 4134 
L 1269 4134 
L 1269 2991 
Q 1406 3038 1543 3061 
Q 1681 3084 1819 3084 
Q 2600 3084 3056 2656 
Q 3513 2228 3513 1497 
Q 3513 744 3044 326 
Q 2575 -91 1722 -91 
Q 1428 -91 1123 -41 
Q 819 9 494 109 
L 494 744 
Q 775 591 1075 516 
Q 1375 441 1709 441 
Q 2250 441 2565 725 
Q 2881 1009 2881 1497 
Q 2881 1984 2565 2268 
Q 2250 2553 1709 2553 
Q 1456 2553 1204 2497 
Q 953 2441 691 2322 
L 691 4666 
z
" transform="scale(0.015625)"/>
       </defs>
       <use xlink:href="#DejaVuSans-35"/>
       <use xlink:href="#DejaVuSans-30" x="63.623047"/>
       <use xlink:href="#DejaVuSans-30" x="127.246094"/>
      </g>
     </g>
    </g>
    <g id="text_7">
     <!-- Generations -->
     <g transform="translate(205.662344 335.860562) scale(0.1 -0.1)">
      <defs>
       <path id="DejaVuSans-47" d="M 3809 666 
L 3809 1919 
L 2778 1919 
L 2778 2438 
L 4434 2438 
L 4434 434 
Q 4069 175 3628 42 
Q 3188 -91 2688 -91 
Q 1594 -91 976 548 
Q 359 1188 359 2328 
Q 359 3472 976 4111 
Q 1594 4750 2688 4750 
Q 3144 4750 3555 4637 
Q 3966 4525 4313 4306 
L 4313 3634 
Q 3963 3931 3569 4081 
Q 3175 4231 2741 4231 
Q 1884 4231 1454 3753 
Q 1025 3275 1025 2328 
Q 1025 1384 1454 906 
Q 1884 428 2741 428 
Q 3075 428 3337 486 
Q 3600 544 3809 666 
z
" transform="scale(0.015625)"/>
       <path id="DejaVuSans-65" d="M 3597 1894 
L 3597 1613 
L 953 1613 
Q 991 1019 1311 708 
Q 1631 397 2203 397 
Q 2534 397 2845 478 
Q 3156 559 3463 722 
L 3463 178 
Q 3153 47 2828 -22 
Q 2503 -91 2169 -91 
Q 1331 -91 842 396 
Q 353 884 353 1716 
Q 353 2575 817 3079 
Q 1281 3584 2069 3584 
Q 2775 3584 3186 3129 
Q 3597 2675 3597 1894 
z
M 3022 2063 
Q 3016 2534 2758 2815 
Q 2500 3097 2075 3097 
Q 1594 3097 1305 2825 
Q 1016 2553 972 2059 
L 3022 2063 
z
" transform="scale(0.015625)"/>
       <path id="DejaVuSans-6e" d="M 3513 2113 
L 3513 0 
L 2938 0 
L 2938 2094 
Q 2938 2591 2744 2837 
Q 2550 3084 2163 3084 
Q 1697 3084 1428 2787 
Q 1159 2491 1159 1978 
L 1159 0 
L 581 0 
L 581 3500 
L 1159 3500 
L 1159 2956 
Q 1366 3272 1645 3428 
Q 1925 3584 2291 3584 
Q 2894 3584 3203 3211 
Q 3513 2838 3513 2113 
z
" transform="scale(0.015625)"/>
       <path id="DejaVuSans-72" d="M 2631 2963 
Q 2534 3019 2420 3045 
Q 2306 3072 2169 3072 
Q 1681 3072 1420 2755 
Q 1159 2438 1159 1844 
L 1159 0 
L 581 0 
L 581 3500 
L 1159 3500 
L 1159 2956 
Q 1341 3275 1631 3429 
Q 1922 3584 2338 3584 
Q 2397 3584 2469 3576 
Q 2541 3569 2628 3553 
L 2631 2963 
z
" transform="scale(0.015625)"/>
       <path id="DejaVuSans-61" d="M 2194 1759 
Q 1497 1759 1228 1600 
Q 959 1441 959 1056 
Q 959 750 1161 570 
Q 1363 391 1709 391 
Q 2188 391 2477 730 
Q 2766 1069 2766 1631 
L 2766 1759 
L 2194 1759 
z
M 3341 1997 
L 3341 0 
L 2766 0 
L 2766 531 
Q 2569 213 2275 61 
Q 1981 -91 1556 -91 
Q 1019 -91 701 211 
Q 384 513 384 1019 
Q 384 1609 779 1909 
Q 1175 2209 1959 2209 
L 2766 2209 
L 2766 2266 
Q 2766 2663 2505 2880 
Q 2244 3097 1772 3097 
Q 1472 3097 1187 3025 
Q 903 2953 641 2809 
L 641 3341 
Q 956 3463 1253 3523 
Q 1550 3584 1831 3584 
Q 2591 3584 2966 3190 
Q 3341 2797 3341 1997 
z
" transform="scale(0.015625)"/>
       <path id="DejaVuSans-74" d="M 1172 4494 
L 1172 3500 
L 2356 3500 
L 2356 3053 
L 1172 3053 
L 1172 1153 
Q 1172 725 1289 603 
Q 1406 481 1766 481 
L 2356 481 
L 2356 0 
L 1766 0 
Q 1100 0 847 248 
Q 594 497 594 1153 
L 594 3053 
L 172 3053 
L 172 3500 
L 594 3500 
L 594 4494 
L 1172 4494 
z
" transform="scale(0.015625)"/>
       <path id="DejaVuSans-69" d="M 603 3500 
L 1178 3500 
L 1178 0 
L 603 0 
L 603 3500 
z
M 603 4863 
L 1178 4863 
L 1178 4134 
L 603 4134 
L 603 4863 
z
" transform="scale(0.015625)"/>
       <path id="DejaVuSans-6f" d="M 1959 3097 
Q 1497 3097 1228 2736 
Q 959 2375 959 1747 
Q 959 1119 1226 758 
Q 1494 397 1959 397 
Q 2419 397 2687 759 
Q 2956 1122 2956 1747 
Q 2956 2369 2687 2733 
Q 2419 3097 1959 3097 
z
M 1959 3584 
Q 2709 3584 3137 3096 
Q 3566 2609 3566 1747 
Q 3566 888 3137 398 
Q 2709 -91 1959 -91 
Q 1206 -91 779 398 
Q 353 888 353 1747 
Q 353 2609 779 3096 
Q 1206 3584 1959 3584 
z
" transform="scale(0.015625)"/>
       <path id="DejaVuSans-73" d="M 2834 3397 
L 2834 2853 
Q 2591 2978 2328 3040 
Q 2066 3103 1784 3103 
Q 1356 3103 1142 2972 
Q 928 2841 928 2578 
Q 928 2378 1081 2264 
Q 1234 2150 1697 2047 
L 1894 2003 
Q 2506 1872 2764 1633 
Q 3022 1394 3022 966 
Q 3022 478 2636 193 
Q 2250 -91 1575 -91 
Q 1294 -91 989 -36 
Q 684 19 347 128 
L 347 722 
Q 666 556 975 473 
Q 1284 391 1588 391 
Q 1994 391 2212 530 
Q 2431 669 2431 922 
Q 2431 1156 2273 1281 
Q 2116 1406 1581 1522 
L 1381 1569 
Q 847 1681 609 1914 
Q 372 2147 372 2553 
Q 372 3047 722 3315 
Q 1072 3584 1716 3584 
Q 2034 3584 2315 3537 
Q 2597 3491 2834 3397 
z
" transform="scale(0.015625)"/>
      </defs>
      <use xlink:href="#DejaVuSans-47"/>
      <use xlink:href="#DejaVuSans-65" x="77.490234"/>
      <use xlink:href="#DejaVuSans-6e" x="139.013672"/>
      <use xlink:href="#DejaVuSans-65" x="202.392578"/>
      <use xlink:href="#DejaVuSans-72" x="263.916016"/>
      <use xlink:href="#DejaVuSans-61" x="305.029297"/>
      <use xlink:href="#DejaVuSans-74" x="366.308594"/>
      <use xlink:href="#DejaVuSans-69" x="405.517578"/>
      <use xlink:href="#DejaVuSans-6f" x="433.300781"/>
      <use xlink:href="#DejaVuSans-6e" x="494.482422"/>
      <use xlink:href="#DejaVuSans-73" x="557.861328"/>
     </g>
    </g>
   </g>
   <g id="matplotlib.axis_2">
    <g id="ytick_1">
     <g id="line2d_13">
      <path d="M 57.6 288.562138 
L 414.72 288.562138 
" clip-path="url(#p9ceb6b799b)" style="fill: none; stroke: #b0b0b0; stroke-width: 0.8; stroke-linecap: square"/>
     </g>
     <g id="line2d_14">
      <defs>
       <path id="m2cb23b54d3" d="M 0 0 
L -3.5 0 
" style="stroke: #000000; stroke-width: 0.8"/>
      </defs>
      <g>
       <use xlink:href="#m2cb23b54d3" x="57.6" y="288.562138" style="stroke: #000000; stroke-width: 0.8"/>
      </g>
     </g>
     <g id="text_8">
      <!-- −34 -->
      <g transform="translate(29.495313 292.361357) scale(0.1 -0.1)">
       <defs>
        <path id="DejaVuSans-2212" d="M 678 2272 
L 4684 2272 
L 4684 1741 
L 678 1741 
L 678 2272 
z
" transform="scale(0.015625)"/>
       </defs>
       <use xlink:href="#DejaVuSans-2212"/>
       <use xlink:href="#DejaVuSans-33" x="83.789062"/>
       <use xlink:href="#DejaVuSans-34" x="147.412109"/>
      </g>
     </g>
    </g>
    <g id="ytick_2">
     <g id="line2d_15">
      <path d="M 57.6 256.362356 
L 414.72 256.362356 
" clip-path="url(#p9ceb6b799b)" style="fill: none; stroke: #b0b0b0; stroke-width: 0.8; stroke-linecap: square"/>
     </g>
     <g id="line2d_16">
      <g>
       <use xlink:href="#m2cb23b54d3" x="57.6" y="256.362356" style="stroke: #000000; stroke-width: 0.8"/>
      </g>
     </g>
     <g id="text_9">
      <!-- −32 -->
      <g transform="translate(29.495313 260.161575) scale(0.1 -0.1)">
       <use xlink:href="#DejaVuSans-2212"/>
       <use xlink:href="#DejaVuSans-33" x="83.789062"/>
       <use xlink:href="#DejaVuSans-32" x="147.412109"/>
      </g>
     </g>
    </g>
    <g id="ytick_3">
     <g id="line2d_17">
      <path d="M 57.6 224.162574 
L 414.72 224.162574 
" clip-path="url(#p9ceb6b799b)" style="fill: none; stroke: #b0b0b0; stroke-width: 0.8; stroke-linecap: square"/>
     </g>
     <g id="line2d_18">
      <g>
       <use xlink:href="#m2cb23b54d3" x="57.6" y="224.162574" style="stroke: #000000; stroke-width: 0.8"/>
      </g>
     </g>
     <g id="text_10">
      <!-- −30 -->
      <g transform="translate(29.495313 227.961793) scale(0.1 -0.1)">
       <use xlink:href="#DejaVuSans-2212"/>
       <use xlink:href="#DejaVuSans-33" x="83.789062"/>
       <use xlink:href="#DejaVuSans-30" x="147.412109"/>
      </g>
     </g>
    </g>
    <g id="ytick_4">
     <g id="line2d_19">
      <path d="M 57.6 191.962792 
L 414.72 191.962792 
" clip-path="url(#p9ceb6b799b)" style="fill: none; stroke: #b0b0b0; stroke-width: 0.8; stroke-linecap: square"/>
     </g>
     <g id="line2d_20">
      <g>
       <use xlink:href="#m2cb23b54d3" x="57.6" y="191.962792" style="stroke: #000000; stroke-width: 0.8"/>
      </g>
     </g>
     <g id="text_11">
      <!-- −28 -->
      <g transform="translate(29.495313 195.762011) scale(0.1 -0.1)">
       <defs>
        <path id="DejaVuSans-38" d="M 2034 2216 
Q 1584 2216 1326 1975 
Q 1069 1734 1069 1313 
Q 1069 891 1326 650 
Q 1584 409 2034 409 
Q 2484 409 2743 651 
Q 3003 894 3003 1313 
Q 3003 1734 2745 1975 
Q 2488 2216 2034 2216 
z
M 1403 2484 
Q 997 2584 770 2862 
Q 544 3141 544 3541 
Q 544 4100 942 4425 
Q 1341 4750 2034 4750 
Q 2731 4750 3128 4425 
Q 3525 4100 3525 3541 
Q 3525 3141 3298 2862 
Q 3072 2584 2669 2484 
Q 3125 2378 3379 2068 
Q 3634 1759 3634 1313 
Q 3634 634 3220 271 
Q 2806 -91 2034 -91 
Q 1263 -91 848 271 
Q 434 634 434 1313 
Q 434 1759 690 2068 
Q 947 2378 1403 2484 
z
M 1172 3481 
Q 1172 3119 1398 2916 
Q 1625 2713 2034 2713 
Q 2441 2713 2670 2916 
Q 2900 3119 2900 3481 
Q 2900 3844 2670 4047 
Q 2441 4250 2034 4250 
Q 1625 4250 1398 4047 
Q 1172 3844 1172 3481 
z
" transform="scale(0.015625)"/>
       </defs>
       <use xlink:href="#DejaVuSans-2212"/>
       <use xlink:href="#DejaVuSans-32" x="83.789062"/>
       <use xlink:href="#DejaVuSans-38" x="147.412109"/>
      </g>
     </g>
    </g>
    <g id="ytick_5">
     <g id="line2d_21">
      <path d="M 57.6 159.76301 
L 414.72 159.76301 
" clip-path="url(#p9ceb6b799b)" style="fill: none; stroke: #b0b0b0; stroke-width: 0.8; stroke-linecap: square"/>
     </g>
     <g id="line2d_22">
      <g>
       <use xlink:href="#m2cb23b54d3" x="57.6" y="159.76301" style="stroke: #000000; stroke-width: 0.8"/>
      </g>
     </g>
     <g id="text_12">
      <!-- −26 -->
      <g transform="translate(29.495313 163.562229) scale(0.1 -0.1)">
       <defs>
        <path id="DejaVuSans-36" d="M 2113 2584 
Q 1688 2584 1439 2293 
Q 1191 2003 1191 1497 
Q 1191 994 1439 701 
Q 1688 409 2113 409 
Q 2538 409 2786 701 
Q 3034 994 3034 1497 
Q 3034 2003 2786 2293 
Q 2538 2584 2113 2584 
z
M 3366 4563 
L 3366 3988 
Q 3128 4100 2886 4159 
Q 2644 4219 2406 4219 
Q 1781 4219 1451 3797 
Q 1122 3375 1075 2522 
Q 1259 2794 1537 2939 
Q 1816 3084 2150 3084 
Q 2853 3084 3261 2657 
Q 3669 2231 3669 1497 
Q 3669 778 3244 343 
Q 2819 -91 2113 -91 
Q 1303 -91 875 529 
Q 447 1150 447 2328 
Q 447 3434 972 4092 
Q 1497 4750 2381 4750 
Q 2619 4750 2861 4703 
Q 3103 4656 3366 4563 
z
" transform="scale(0.015625)"/>
       </defs>
       <use xlink:href="#DejaVuSans-2212"/>
       <use xlink:href="#DejaVuSans-32" x="83.789062"/>
       <use xlink:href="#DejaVuSans-36" x="147.412109"/>
      </g>
     </g>
    </g>
    <g id="ytick_6">
     <g id="line2d_23">
      <path d="M 57.6 127.563229 
L 414.72 127.563229 
" clip-path="url(#p9ceb6b799b)" style="fill: none; stroke: #b0b0b0; stroke-width: 0.8; stroke-linecap: square"/>
     </g>
     <g id="line2d_24">
      <g>
       <use xlink:href="#m2cb23b54d3" x="57.6" y="127.563229" style="stroke: #000000; stroke-width: 0.8"/>
      </g>
     </g>
     <g id="text_13">
      <!-- −24 -->
      <g transform="translate(29.495313 131.362447) scale(0.1 -0.1)">
       <use xlink:href="#DejaVuSans-2212"/>
       <use xlink:href="#DejaVuSans-32" x="83.789062"/>
       <use xlink:href="#DejaVuSans-34" x="147.412109"/>
      </g>
     </g>
    </g>
    <g id="ytick_7">
     <g id="line2d_25">
      <path d="M 57.6 95.363447 
L 414.72 95.363447 
" clip-path="url(#p9ceb6b799b)" style="fill: none; stroke: #b0b0b0; stroke-width: 0.8; stroke-linecap: square"/>
     </g>
     <g id="line2d_26">
      <g>
       <use xlink:href="#m2cb23b54d3" x="57.6" y="95.363447" style="stroke: #000000; stroke-width: 0.8"/>
      </g>
     </g>
     <g id="text_14">
      <!-- −22 -->
      <g transform="translate(29.495313 99.162665) scale(0.1 -0.1)">
       <use xlink:href="#DejaVuSans-2212"/>
       <use xlink:href="#DejaVuSans-32" x="83.789062"/>
       <use xlink:href="#DejaVuSans-32" x="147.412109"/>
      </g>
     </g>
    </g>
    <g id="ytick_8">
     <g id="line2d_27">
      <path d="M 57.6 63.163665 
L 414.72 63.163665 
" clip-path="url(#p9ceb6b799b)" style="fill: none; stroke: #b0b0b0; stroke-width: 0.8; stroke-linecap: square"/>
     </g>
     <g id="line2d_28">
      <g>
       <use xlink:href="#m2cb23b54d3" x="57.6" y="63.163665" style="stroke: #000000; stroke-width: 0.8"/>
      </g>
     </g>
     <g id="text_15">
      <!-- −20 -->
      <g transform="translate(29.495313 66.962883) scale(0.1 -0.1)">
       <use xlink:href="#DejaVuSans-2212"/>
       <use xlink:href="#DejaVuSans-32" x="83.789062"/>
       <use xlink:href="#DejaVuSans-30" x="147.412109"/>
      </g>
     </g>
    </g>
    <g id="text_16">
     <!-- Fitness -->
     <g transform="translate(23.415625 191.845187) rotate(-90) scale(0.1 -0.1)">
      <defs>
       <path id="DejaVuSans-46" d="M 628 4666 
L 3309 4666 
L 3309 4134 
L 1259 4134 
L 1259 2759 
L 3109 2759 
L 3109 2228 
L 1259 2228 
L 1259 0 
L 628 0 
L 628 4666 
z
" transform="scale(0.015625)"/>
      </defs>
      <use xlink:href="#DejaVuSans-46"/>
      <use xlink:href="#DejaVuSans-69" x="50.269531"/>
      <use xlink:href="#DejaVuSans-74" x="78.052734"/>
      <use xlink:href="#DejaVuSans-6e" x="117.261719"/>
      <use xlink:href="#DejaVuSans-65" x="180.640625"/>
      <use xlink:href="#DejaVuSans-73" x="242.164062"/>
      <use xlink:href="#DejaVuSans-73" x="294.263672"/>
     </g>
    </g>
   </g>
   <g id="line2d_29">
    <path d="M 73.832727 275.653661 
L 74.483338 271.961276 
L 75.133948 271.174182 
L 75.784558 269.283634 
L 76.435169 268.539192 
L 77.085779 268.258125 
L 77.736389 267.167387 
L 78.386999 267.878752 
L 79.03761 267.416413 
L 80.33883 266.823702 
L 80.989441 267.581878 
L 81.640051 267.123445 
L 82.290661 267.148922 
L 82.941272 266.673271 
L 83.591882 265.917721 
L 84.242492 259.029642 
L 84.893103 256.455608 
L 85.543713 253.139457 
L 86.194323 252.398008 
L 86.844934 252.606234 
L 87.495544 253.82912 
L 88.146154 250.510741 
L 88.796764 251.540721 
L 89.447375 247.155437 
L 90.097985 247.922465 
L 90.748595 245.581281 
L 91.399206 246.144351 
L 92.049816 246.944699 
L 92.700426 245.859078 
L 93.351037 241.146101 
L 94.001647 244.205249 
L 94.652257 242.960668 
L 95.302868 242.644974 
L 95.953478 239.708679 
L 96.604088 245.4909 
L 97.254698 242.608344 
L 97.905309 240.322524 
L 98.555919 241.292447 
L 99.206529 242.819238 
L 99.85714 235.945327 
L 100.50775 240.990264 
L 101.15836 237.124485 
L 101.808971 235.969079 
L 102.459581 238.418653 
L 103.110191 228.47495 
L 103.760802 233.929302 
L 104.411412 226.32495 
L 105.062022 232.138591 
L 105.712633 219.749773 
L 106.363243 219.302457 
L 107.013853 215.218477 
L 107.664463 217.10741 
L 108.315074 222.476546 
L 108.965684 217.980442 
L 109.616294 216.243218 
L 110.266905 215.520628 
L 110.917515 218.239105 
L 111.568125 214.790136 
L 112.218736 215.04377 
L 112.869346 212.535673 
L 113.519956 212.651605 
L 114.170567 208.996454 
L 114.821177 203.974362 
L 115.471787 212.625464 
L 116.122398 208.319689 
L 116.773008 206.935871 
L 117.423618 209.36543 
L 118.074228 206.583561 
L 118.724839 211.022437 
L 119.375449 204.712171 
L 120.026059 211.620097 
L 120.67667 209.787607 
L 121.32728 206.031756 
L 121.97789 211.17279 
L 122.628501 209.998206 
L 123.279111 215.850853 
L 123.929721 214.384967 
L 124.580332 213.36886 
L 125.230942 211.430732 
L 125.881552 209.850644 
L 126.532163 211.598884 
L 127.182773 214.794577 
L 127.833383 209.139085 
L 128.483993 213.682986 
L 129.134604 211.574864 
L 129.785214 204.195679 
L 130.435824 203.966079 
L 131.086435 201.539362 
L 132.387655 211.144523 
L 133.038266 204.120103 
L 133.688876 208.370562 
L 134.339486 206.176186 
L 134.990097 209.372404 
L 135.640707 200.30872 
L 136.291317 208.024689 
L 136.941927 217.267438 
L 137.592538 208.333383 
L 138.243148 210.592495 
L 138.893758 199.955516 
L 139.544369 199.544444 
L 140.194979 205.344029 
L 140.845589 200.130761 
L 141.4962 196.043415 
L 142.14681 192.907471 
L 142.79742 199.791025 
L 143.448031 204.892797 
L 144.098641 203.909062 
L 144.749251 207.059532 
L 145.399862 203.621604 
L 146.050472 202.306893 
L 146.701082 212.510258 
L 147.351692 197.269604 
L 148.002303 201.363214 
L 148.652913 206.248067 
L 149.303523 197.186881 
L 149.954134 197.636381 
L 150.604744 194.697368 
L 151.255354 195.65444 
L 151.905965 199.90859 
L 152.556575 194.185553 
L 153.207185 194.46498 
L 153.857796 201.8434 
L 154.508406 193.657352 
L 155.159016 195.059767 
L 155.809627 184.838071 
L 156.460237 194.437281 
L 157.110847 190.341818 
L 157.761457 194.388651 
L 158.412068 184.133254 
L 159.062678 189.070034 
L 160.363899 193.601648 
L 161.014509 189.971269 
L 161.665119 199.183951 
L 162.31573 201.666645 
L 162.96634 192.223748 
L 163.61695 196.375917 
L 164.267561 192.402354 
L 164.918171 201.168793 
L 165.568781 190.376188 
L 166.219392 195.546721 
L 167.520612 201.618719 
L 168.171222 208.539826 
L 168.821833 184.75914 
L 169.472443 193.106252 
L 170.123053 189.239641 
L 170.773664 196.473324 
L 171.424274 191.225444 
L 172.074884 190.645974 
L 172.725495 194.10328 
L 173.376105 179.882097 
L 174.026715 179.214899 
L 174.677326 189.195835 
L 175.327936 187.157235 
L 175.978546 190.71769 
L 176.629156 183.265314 
L 177.279767 184.895814 
L 177.930377 199.547018 
L 178.580987 192.258099 
L 179.231598 175.566313 
L 179.882208 177.417237 
L 180.532818 180.682098 
L 181.183429 191.177161 
L 181.834039 178.115341 
L 182.484649 188.390804 
L 183.13526 186.562253 
L 183.78587 185.790945 
L 184.43648 189.381681 
L 185.087091 184.759382 
L 185.737701 181.3038 
L 186.388311 181.822453 
L 187.689532 188.365882 
L 188.340142 189.372537 
L 188.990752 177.697094 
L 189.641363 185.00569 
L 190.291973 187.2573 
L 190.942583 186.238858 
L 191.593194 192.282811 
L 192.243804 192.967619 
L 192.894414 182.907608 
L 193.545025 190.121108 
L 195.496856 182.043725 
L 196.147466 176.66214 
L 196.798076 176.762751 
L 197.448686 183.455594 
L 198.099297 179.381407 
L 198.749907 178.598255 
L 199.400517 166.98612 
L 200.051128 181.08579 
L 200.701738 184.143137 
L 201.352348 176.62389 
L 202.002959 182.096124 
L 202.653569 173.690961 
L 203.304179 181.217389 
L 203.95479 179.209928 
L 204.6054 173.715217 
L 205.25601 176.036871 
L 205.906621 187.287954 
L 206.557231 188.473891 
L 207.207841 180.357635 
L 207.858451 173.665335 
L 208.509062 181.385391 
L 209.159672 181.826541 
L 209.810282 171.203111 
L 210.460893 173.005283 
L 211.111503 168.321163 
L 211.762113 172.242412 
L 212.412724 180.753751 
L 213.063334 185.059895 
L 213.713944 178.916568 
L 214.364555 169.417545 
L 215.015165 179.081067 
L 215.665775 182.599898 
L 216.316385 176.388764 
L 217.617606 186.513381 
L 218.268216 176.986478 
L 218.918827 173.879249 
L 219.569437 171.928927 
L 220.220047 177.388561 
L 220.870658 180.111984 
L 221.521268 181.675782 
L 222.171878 190.343732 
L 222.822489 183.611327 
L 223.473099 182.872606 
L 224.123709 193.542162 
L 224.77432 195.882814 
L 225.42493 170.575517 
L 226.07554 177.114478 
L 226.72615 175.703333 
L 227.376761 177.4283 
L 228.677981 173.018763 
L 229.328592 173.682658 
L 229.979202 165.527747 
L 230.629812 176.624221 
L 231.280423 170.858494 
L 231.931033 177.26538 
L 232.581643 176.279368 
L 233.232254 180.611902 
L 233.882864 170.957894 
L 234.533474 174.990251 
L 235.184085 169.264632 
L 235.834695 165.632472 
L 236.485305 171.106731 
L 237.135915 175.005639 
L 237.786526 175.342961 
L 238.437136 170.907316 
L 239.087746 173.143577 
L 239.738357 167.572744 
L 240.388967 177.503873 
L 241.039577 181.522787 
L 241.690188 175.330384 
L 242.340798 174.726932 
L 242.991408 169.862702 
L 243.642019 169.576349 
L 244.292629 173.604211 
L 244.943239 176.352145 
L 245.59385 183.634819 
L 246.24446 174.958822 
L 246.89507 175.276341 
L 247.54568 173.878491 
L 248.196291 179.069635 
L 248.846901 175.473964 
L 249.497511 175.68325 
L 250.148122 177.768982 
L 250.798732 177.265955 
L 251.449342 170.70622 
L 252.099953 166.555785 
L 252.750563 171.191403 
L 253.401173 168.433872 
L 254.051784 170.751234 
L 254.702394 165.640642 
L 255.353004 164.852532 
L 256.003615 171.972463 
L 256.654225 169.139699 
L 257.304835 170.512917 
L 257.955445 152.231438 
L 258.606056 161.69078 
L 259.256666 162.802143 
L 259.907276 165.72904 
L 260.557887 165.562668 
L 261.208497 165.844901 
L 261.859107 160.807652 
L 262.509718 158.647154 
L 263.160328 163.447982 
L 264.461549 159.253515 
L 265.112159 164.656896 
L 265.762769 163.789952 
L 266.413379 169.655695 
L 267.06399 162.000139 
L 267.7146 165.193259 
L 268.36521 165.092256 
L 269.015821 160.913303 
L 269.666431 174.045959 
L 270.317041 163.37927 
L 270.967652 164.203201 
L 271.618262 171.212923 
L 272.268872 169.02494 
L 272.919483 164.745322 
L 273.570093 167.390055 
L 274.220703 176.70065 
L 274.871314 168.40775 
L 275.521924 173.478358 
L 276.172534 160.787637 
L 276.823144 168.289353 
L 277.473755 171.600528 
L 278.124365 164.624691 
L 278.774975 170.240843 
L 279.425586 170.66172 
L 280.076196 166.299735 
L 280.726806 166.947392 
L 281.377417 173.101449 
L 282.028027 166.219627 
L 282.678637 168.587366 
L 283.329248 167.70129 
L 283.979858 170.263937 
L 284.630468 171.995299 
L 285.281079 164.429878 
L 285.931689 166.056871 
L 286.582299 171.599566 
L 287.232909 157.330402 
L 287.88352 161.900019 
L 288.53413 169.607303 
L 289.18474 161.815739 
L 289.835351 177.98195 
L 290.485961 163.763555 
L 291.136571 167.673142 
L 291.787182 161.953032 
L 292.437792 164.041726 
L 293.088402 162.059347 
L 293.739013 160.705576 
L 294.389623 163.218331 
L 295.040233 159.661854 
L 295.690844 165.705172 
L 296.341454 170.424693 
L 296.992064 172.335238 
L 297.642674 167.689014 
L 298.293285 168.596052 
L 298.943895 172.735294 
L 299.594505 174.759884 
L 300.245116 170.218337 
L 300.895726 168.591428 
L 301.546336 164.280529 
L 302.196947 170.235224 
L 302.847557 165.32993 
L 303.498167 172.907053 
L 304.148778 157.332496 
L 304.799388 157.681601 
L 305.449998 160.447352 
L 306.100608 159.826578 
L 306.751219 158.411222 
L 307.401829 169.602959 
L 308.052439 167.800995 
L 308.70305 166.771467 
L 309.35366 163.123491 
L 310.00427 165.920806 
L 310.654881 160.409635 
L 311.305491 159.953039 
L 311.956101 161.494517 
L 312.606712 163.544812 
L 313.257322 170.553287 
L 313.907932 163.640557 
L 314.558543 163.002932 
L 315.209153 160.861662 
L 315.859763 179.780088 
L 316.510373 161.591542 
L 317.160984 166.394627 
L 318.462204 160.918804 
L 319.112815 161.57936 
L 319.763425 160.621328 
L 320.414035 168.947765 
L 321.064646 161.941391 
L 321.715256 157.555941 
L 322.365866 160.159603 
L 323.016477 164.442895 
L 323.667087 166.007055 
L 324.317697 164.491083 
L 324.968308 163.787596 
L 325.618918 162.099893 
L 326.269528 171.3884 
L 326.920138 173.656893 
L 327.570749 168.893338 
L 328.221359 167.095328 
L 330.17319 188.521095 
L 330.8238 179.449068 
L 331.474411 181.708752 
L 332.125021 181.514176 
L 332.775631 179.990269 
L 333.426242 186.559471 
L 334.076852 187.924035 
L 334.727462 172.717593 
L 335.378073 177.840434 
L 336.028683 177.521625 
L 336.679293 177.387855 
L 337.329903 172.068425 
L 337.980514 169.054597 
L 338.631124 169.871527 
L 339.281734 175.552744 
L 339.932345 173.105996 
L 340.582955 175.148745 
L 341.233565 169.6298 
L 341.884176 172.213926 
L 342.534786 183.036893 
L 343.185396 181.458172 
L 343.836007 179.344656 
L 344.486617 175.247967 
L 345.137227 175.88141 
L 345.787837 176.323263 
L 346.438448 177.496113 
L 347.089058 181.342112 
L 347.739668 180.881802 
L 348.390279 182.703257 
L 349.040889 180.540792 
L 349.691499 190.981785 
L 350.34211 193.705 
L 350.99272 186.988667 
L 351.64333 190.567123 
L 352.293941 191.027071 
L 352.944551 190.854791 
L 353.595161 197.752733 
L 354.245772 187.890559 
L 354.896382 183.829214 
L 355.546992 195.857874 
L 356.197602 188.908352 
L 356.848213 194.838974 
L 357.498823 191.553473 
L 358.149433 189.199453 
L 358.800044 188.942465 
L 359.450654 184.660897 
L 360.101264 190.740746 
L 360.751875 190.217695 
L 361.402485 188.5311 
L 362.053095 183.699021 
L 362.703706 182.191172 
L 363.354316 172.854792 
L 364.004926 184.7643 
L 364.655537 180.359718 
L 365.306147 177.020891 
L 365.956757 183.186566 
L 366.607367 177.554973 
L 367.257978 179.98015 
L 367.908588 174.736083 
L 368.559198 176.625874 
L 369.209809 176.843235 
L 369.860419 172.308455 
L 370.511029 179.201249 
L 371.16164 175.143205 
L 371.81225 180.019958 
L 372.46286 181.395127 
L 373.113471 174.558801 
L 373.764081 182.20773 
L 374.414691 178.397274 
L 375.065302 171.372928 
L 375.715912 184.782323 
L 376.366522 182.488059 
L 377.017132 182.32524 
L 377.667743 180.165941 
L 378.318353 169.962899 
L 378.968963 170.222996 
L 379.619574 173.244209 
L 380.920794 171.282456 
L 381.571405 161.069879 
L 382.222015 178.439748 
L 382.872625 177.533405 
L 383.523236 179.278376 
L 384.173846 168.81877 
L 384.824456 177.525409 
L 385.475066 165.933163 
L 386.125677 182.749004 
L 386.776287 175.33631 
L 387.426897 171.500839 
L 388.077508 175.218907 
L 388.728118 176.01204 
L 389.378728 176.995025 
L 390.029339 166.863323 
L 390.679949 181.819722 
L 391.330559 171.756428 
L 392.63178 178.735026 
L 393.28239 179.697757 
L 393.933001 180.425612 
L 394.583611 191.839485 
L 395.234221 183.472501 
L 395.884831 188.969881 
L 396.535442 180.432808 
L 397.186052 177.190543 
L 397.836662 190.463029 
L 398.487273 183.100646 
L 398.487273 183.100646 
" clip-path="url(#p9ceb6b799b)" style="fill: none; stroke: #0000ff; stroke-width: 1.5; stroke-linecap: square"/>
   </g>
   <g id="line2d_30">
    <path d="M 73.832727 293.810201 
L 74.483338 292.935443 
L 75.133948 295.241505 
L 75.784558 294.90582 
L 76.435169 295.172582 
L 77.085779 295.157231 
L 77.736389 294.476793 
L 78.386999 294.763575 
L 79.03761 294.581131 
L 79.68822 295.223546 
L 80.33883 295.022979 
L 80.989441 295.086061 
L 82.290661 294.85638 
L 82.941272 295.488 
L 83.591882 294.922974 
L 84.242492 290.934174 
L 84.893103 289.349721 
L 85.543713 285.260157 
L 86.194323 285.529421 
L 86.844934 287.392521 
L 87.495544 288.062578 
L 88.146154 286.025821 
L 88.796764 286.864182 
L 89.447375 283.926215 
L 90.097985 286.266209 
L 90.748595 283.995273 
L 91.399206 286.963406 
L 92.049816 287.793461 
L 92.700426 288.249273 
L 93.351037 284.451564 
L 94.001647 289.779729 
L 94.652257 285.818565 
L 95.302868 287.981725 
L 95.953478 287.240876 
L 96.604088 289.964424 
L 97.254698 289.68633 
L 97.905309 287.692064 
L 98.555919 291.71119 
L 99.206529 294.144384 
L 99.85714 287.553487 
L 100.50775 293.899966 
L 101.15836 289.945076 
L 101.808971 289.92893 
L 102.459581 291.159812 
L 103.110191 282.217272 
L 103.760802 288.782478 
L 104.411412 281.285183 
L 105.062022 285.666881 
L 105.712633 278.043135 
L 106.363243 280.261042 
L 107.013853 276.287046 
L 108.315074 283.142191 
L 108.965684 278.536586 
L 109.616294 280.449515 
L 110.266905 281.020817 
L 111.568125 282.712033 
L 112.218736 280.220607 
L 112.869346 278.205019 
L 113.519956 282.897935 
L 114.821177 275.392869 
L 115.471787 282.01996 
L 116.122398 279.081214 
L 116.773008 277.929732 
L 117.423618 280.322485 
L 118.074228 277.077949 
L 118.724839 280.846008 
L 119.375449 276.855215 
L 120.026059 284.463682 
L 120.67667 283.257582 
L 121.32728 277.380251 
L 121.97789 283.109758 
L 122.628501 282.71343 
L 123.279111 285.956671 
L 123.929721 288.53441 
L 124.580332 285.275171 
L 125.230942 283.980074 
L 125.881552 283.911059 
L 126.532163 285.077436 
L 127.182773 290.002711 
L 127.833383 285.064683 
L 128.483993 288.520464 
L 129.134604 286.723119 
L 130.435824 280.122666 
L 131.086435 279.944598 
L 131.737045 280.936478 
L 132.387655 284.396378 
L 133.038266 281.129457 
L 133.688876 284.563198 
L 134.339486 280.416469 
L 134.990097 286.705387 
L 135.640707 280.239249 
L 136.291317 284.391258 
L 136.941927 289.686381 
L 137.592538 282.76629 
L 138.243148 285.110409 
L 138.893758 275.647053 
L 139.544369 273.668103 
L 140.194979 278.861912 
L 140.845589 277.895232 
L 142.14681 273.188791 
L 142.79742 277.203869 
L 143.448031 281.931709 
L 144.098641 284.161646 
L 144.749251 286.808179 
L 145.399862 281.985147 
L 146.050472 280.94291 
L 146.701082 287.126368 
L 147.351692 284.430484 
L 148.002303 283.674043 
L 148.652913 287.542899 
L 149.303523 280.244322 
L 149.954134 282.047675 
L 150.604744 280.88747 
L 151.255354 282.460811 
L 151.905965 285.491224 
L 152.556575 282.215677 
L 153.207185 281.64931 
L 153.857796 285.162005 
L 154.508406 281.645383 
L 155.159016 281.869499 
L 155.809627 273.799372 
L 156.460237 284.160635 
L 157.110847 282.714947 
L 157.761457 283.505687 
L 158.412068 278.100262 
L 159.062678 280.953221 
L 159.713288 279.729911 
L 160.363899 286.481741 
L 161.014509 281.045949 
L 162.31573 289.45795 
L 162.96634 283.701276 
L 163.61695 283.70957 
L 164.267561 282.740297 
L 164.918171 289.741537 
L 165.568781 281.553434 
L 166.219392 286.637932 
L 166.870002 289.746633 
L 167.520612 288.555505 
L 168.171222 294.411595 
L 168.821833 278.271868 
L 169.472443 284.348012 
L 170.123053 284.956557 
L 170.773664 287.835912 
L 171.424274 287.27126 
L 172.074884 281.037186 
L 172.725495 288.044615 
L 173.376105 271.836841 
L 174.026715 272.602389 
L 174.677326 283.784206 
L 175.327936 281.568408 
L 175.978546 282.496728 
L 176.629156 278.454288 
L 177.279767 279.763599 
L 177.930377 289.219215 
L 178.580987 283.265219 
L 179.231598 268.915745 
L 179.882208 270.434132 
L 180.532818 273.90106 
L 181.183429 283.290854 
L 181.834039 272.880139 
L 182.484649 280.713774 
L 183.13526 279.110853 
L 183.78587 279.503493 
L 184.43648 281.949945 
L 185.087091 277.484069 
L 185.737701 278.28609 
L 186.388311 276.568366 
L 187.038921 277.247982 
L 187.689532 284.090754 
L 188.340142 281.289434 
L 188.990752 272.233795 
L 189.641363 280.038768 
L 190.291973 281.134463 
L 190.942583 279.669666 
L 192.243804 287.76171 
L 192.894414 281.41233 
L 193.545025 287.696034 
L 194.195635 282.713288 
L 194.846245 281.474811 
L 195.496856 279.317621 
L 196.147466 272.424477 
L 196.798076 272.538466 
L 197.448686 279.457756 
L 198.099297 276.30374 
L 198.749907 276.023532 
L 199.400517 266.211922 
L 200.051128 275.611578 
L 200.701738 280.888337 
L 201.352348 273.149907 
L 202.002959 278.136782 
L 202.653569 270.903669 
L 203.304179 278.89461 
L 203.95479 276.981411 
L 204.6054 269.852902 
L 205.25601 272.923414 
L 205.906621 281.207601 
L 206.557231 282.151045 
L 207.858451 269.342774 
L 208.509062 275.977671 
L 209.159672 273.991307 
L 209.810282 267.098991 
L 210.460893 266.418889 
L 211.111503 262.985255 
L 211.762113 266.932179 
L 212.412724 275.480116 
L 213.063334 278.692079 
L 213.713944 274.099261 
L 214.364555 266.525173 
L 215.015165 273.141079 
L 215.665775 277.220984 
L 216.316385 271.271865 
L 216.966996 277.382732 
L 217.617606 280.369033 
L 218.268216 272.133953 
L 218.918827 267.300307 
L 219.569437 268.381372 
L 220.220047 272.584661 
L 220.870658 273.66122 
L 221.521268 277.330058 
L 222.171878 282.980998 
L 222.822489 278.181837 
L 223.473099 276.134577 
L 224.123709 284.675056 
L 224.77432 286.403394 
L 225.42493 266.634477 
L 226.07554 274.574549 
L 226.72615 272.013929 
L 227.376761 275.307886 
L 228.027371 273.79364 
L 229.328592 268.579641 
L 229.979202 262.827217 
L 230.629812 273.415299 
L 231.280423 267.555015 
L 231.931033 272.85646 
L 232.581643 270.396443 
L 233.232254 276.842987 
L 233.882864 267.370407 
L 234.533474 272.3167 
L 235.184085 267.422525 
L 235.834695 261.111335 
L 237.135915 271.597571 
L 237.786526 270.789213 
L 238.437136 267.377552 
L 239.087746 271.522663 
L 239.738357 265.130894 
L 240.388967 275.49466 
L 241.039577 278.197457 
L 241.690188 271.801547 
L 242.340798 271.034876 
L 242.991408 266.911976 
L 243.642019 265.571407 
L 244.292629 269.951132 
L 244.943239 273.037487 
L 245.59385 279.563007 
L 246.24446 271.985456 
L 246.89507 271.491249 
L 247.54568 269.76769 
L 248.196291 274.839973 
L 248.846901 273.34215 
L 249.497511 270.953853 
L 250.148122 272.844853 
L 250.798732 273.371885 
L 251.449342 267.492043 
L 252.099953 265.617151 
L 252.750563 267.044988 
L 253.401173 265.358009 
L 254.051784 267.664574 
L 254.702394 263.279187 
L 255.353004 262.645134 
L 256.003615 268.623278 
L 256.654225 266.816612 
L 257.304835 268.593241 
L 257.955445 250.894876 
L 258.606056 259.883335 
L 259.907276 263.129239 
L 260.557887 262.068449 
L 261.208497 263.90869 
L 261.859107 259.36183 
L 262.509718 258.17942 
L 263.160328 262.243821 
L 263.810938 258.395326 
L 264.461549 255.912659 
L 265.112159 264.061326 
L 265.762769 261.219834 
L 266.413379 266.188872 
L 267.06399 257.567789 
L 268.36521 261.675292 
L 269.015821 257.334903 
L 269.666431 269.784684 
L 270.317041 258.072944 
L 270.967652 259.621179 
L 271.618262 266.595625 
L 272.268872 265.565965 
L 272.919483 261.132703 
L 273.570093 261.228362 
L 274.220703 272.704389 
L 274.871314 264.494031 
L 275.521924 269.959518 
L 276.172534 257.460176 
L 276.823144 266.193172 
L 277.473755 264.233214 
L 278.124365 258.207011 
L 278.774975 264.971678 
L 279.425586 266.93679 
L 280.076196 259.896008 
L 280.726806 262.619902 
L 281.377417 266.173625 
L 282.028027 261.893304 
L 283.329248 260.204008 
L 283.979858 265.772242 
L 284.630468 267.586445 
L 285.281079 260.388638 
L 285.931689 261.824527 
L 286.582299 266.857217 
L 287.232909 252.488651 
L 287.88352 256.91147 
L 288.53413 265.803878 
L 289.18474 255.721636 
L 289.835351 271.46527 
L 290.485961 258.638221 
L 291.136571 262.538536 
L 291.787182 258.321455 
L 292.437792 260.117514 
L 293.088402 257.596792 
L 293.739013 257.626707 
L 294.389623 258.933261 
L 295.040233 255.588943 
L 296.341454 265.884858 
L 296.992064 268.1316 
L 297.642674 263.24421 
L 298.293285 263.448492 
L 298.943895 269.605869 
L 299.594505 269.946728 
L 300.245116 267.984968 
L 300.895726 264.883008 
L 301.546336 260.442072 
L 302.196947 267.061557 
L 302.847557 261.46961 
L 303.498167 268.626898 
L 304.148778 252.576697 
L 304.799388 253.137802 
L 305.449998 257.533677 
L 306.100608 257.000328 
L 306.751219 256.291415 
L 307.401829 266.564133 
L 308.052439 264.416196 
L 308.70305 260.919829 
L 309.35366 258.467792 
L 310.00427 263.843344 
L 310.654881 258.129335 
L 311.305491 256.720723 
L 311.956101 260.223464 
L 312.606712 261.699005 
L 313.257322 267.578346 
L 313.907932 258.774646 
L 314.558543 258.941382 
L 315.209153 256.764701 
L 315.859763 274.816266 
L 316.510373 256.653519 
L 317.160984 263.392034 
L 317.811594 261.610086 
L 318.462204 257.404216 
L 319.112815 258.152516 
L 319.763425 258.053913 
L 320.414035 266.159912 
L 321.064646 258.449265 
L 321.715256 254.460588 
L 322.365866 256.951038 
L 323.016477 262.863477 
L 323.667087 263.360621 
L 324.317697 260.361654 
L 324.968308 258.603191 
L 325.618918 256.017867 
L 326.269528 267.795034 
L 326.920138 268.755763 
L 327.570749 267.254234 
L 328.221359 267.156387 
L 329.52258 279.457694 
L 330.17319 282.805862 
L 330.8238 278.009028 
L 331.474411 278.083545 
L 332.125021 277.791087 
L 332.775631 274.246628 
L 333.426242 277.342946 
L 334.076852 284.387803 
L 334.727462 271.829897 
L 335.378073 274.908425 
L 336.028683 274.722682 
L 336.679293 272.736526 
L 337.329903 268.457379 
L 337.980514 265.103146 
L 338.631124 267.198155 
L 339.281734 272.202941 
L 339.932345 267.393732 
L 340.582955 271.26908 
L 341.233565 268.706393 
L 341.884176 269.213987 
L 342.534786 279.226769 
L 343.185396 277.182584 
L 343.836007 276.710027 
L 344.486617 273.199599 
L 345.137227 273.431832 
L 345.787837 271.521284 
L 346.438448 274.152975 
L 347.089058 279.786515 
L 347.739668 277.638166 
L 348.390279 278.412267 
L 349.040889 274.633124 
L 349.691499 283.326288 
L 350.34211 285.978919 
L 350.99272 280.711567 
L 351.64333 283.284911 
L 352.293941 284.303614 
L 352.944551 285.107318 
L 353.595161 289.724702 
L 354.245772 279.922822 
L 354.896382 273.910481 
L 355.546992 287.054742 
L 356.197602 281.069308 
L 356.848213 286.163691 
L 357.498823 282.410342 
L 358.149433 283.904892 
L 358.800044 281.840387 
L 359.450654 278.588359 
L 360.751875 286.054921 
L 361.402485 288.623967 
L 362.053095 281.652389 
L 362.703706 284.32351 
L 363.354316 272.858926 
L 364.004926 282.181937 
L 364.655537 279.89901 
L 365.306147 275.48704 
L 365.956757 280.922083 
L 366.607367 278.026091 
L 367.257978 275.953734 
L 367.908588 271.298549 
L 368.559198 274.362555 
L 369.209809 276.295997 
L 369.860419 270.315787 
L 370.511029 277.254723 
L 371.16164 274.023156 
L 371.81225 278.572219 
L 372.46286 280.257515 
L 373.113471 273.608427 
L 373.764081 279.058653 
L 374.414691 278.438094 
L 375.065302 271.469544 
L 375.715912 285.195581 
L 376.366522 281.039238 
L 377.017132 281.951978 
L 377.667743 280.761163 
L 378.318353 270.908915 
L 378.968963 269.860209 
L 379.619574 270.784565 
L 380.270184 272.588162 
L 380.920794 271.065611 
L 381.571405 260.585492 
L 382.222015 277.460601 
L 382.872625 277.272542 
L 383.523236 275.062972 
L 384.173846 267.616245 
L 384.824456 277.548614 
L 385.475066 266.642515 
L 386.125677 280.581065 
L 386.776287 274.633816 
L 387.426897 271.111181 
L 388.077508 274.258448 
L 389.378728 276.358394 
L 390.029339 264.679488 
L 390.679949 279.506979 
L 391.330559 270.60281 
L 391.98117 273.670506 
L 392.63178 274.516385 
L 393.28239 274.110859 
L 393.933001 276.16797 
L 394.583611 286.438968 
L 395.234221 277.603251 
L 395.884831 280.345295 
L 396.535442 272.472506 
L 397.186052 269.770112 
L 397.836662 280.348773 
L 398.487273 273.727081 
L 398.487273 273.727081 
" clip-path="url(#p9ceb6b799b)" style="fill: none; stroke-dasharray: 9.6,2.4,1.5,2.4; stroke-dashoffset: 0; stroke: #008000; stroke-width: 1.5"/>
   </g>
   <g id="line2d_31">
    <path d="M 73.832727 257.497121 
L 74.483338 250.987108 
L 75.784558 243.661449 
L 76.435169 241.905802 
L 77.085779 241.35902 
L 77.736389 239.85798 
L 78.386999 240.99393 
L 79.03761 240.251695 
L 79.68822 239.129922 
L 80.33883 238.624424 
L 80.989441 240.077696 
L 81.640051 239.260344 
L 82.290661 239.441464 
L 82.941272 237.858542 
L 83.591882 236.912467 
L 84.242492 227.125111 
L 84.893103 223.561494 
L 85.543713 221.018756 
L 86.844934 217.819947 
L 87.495544 219.595663 
L 88.146154 214.99566 
L 88.796764 216.217259 
L 89.447375 210.384659 
L 90.097985 209.578722 
L 90.748595 207.16729 
L 91.399206 205.325296 
L 92.049816 206.095937 
L 92.700426 203.468883 
L 93.351037 197.840639 
L 94.001647 198.63077 
L 94.652257 200.102771 
L 95.302868 197.308223 
L 95.953478 192.176482 
L 96.604088 201.017377 
L 97.254698 195.530358 
L 97.905309 192.952985 
L 98.555919 190.873705 
L 99.206529 191.494092 
L 99.85714 184.337167 
L 100.50775 188.080562 
L 101.15836 184.303893 
L 101.808971 182.009227 
L 102.459581 185.677494 
L 103.110191 174.732628 
L 103.760802 179.076126 
L 104.411412 171.364718 
L 105.062022 178.610301 
L 105.712633 161.456412 
L 106.363243 158.343871 
L 107.013853 154.149909 
L 107.664463 154.548016 
L 108.315074 161.810901 
L 108.965684 157.424298 
L 109.616294 152.036921 
L 110.266905 150.02044 
L 110.917515 154.656743 
L 111.568125 146.868239 
L 112.218736 149.866932 
L 112.869346 146.866326 
L 113.519956 142.405275 
L 114.170567 139.101511 
L 114.821177 132.555854 
L 115.471787 143.230968 
L 116.122398 137.558165 
L 116.773008 135.94201 
L 117.423618 138.408375 
L 118.074228 136.089173 
L 118.724839 141.198865 
L 119.375449 132.569128 
L 120.026059 138.776513 
L 120.67667 136.317633 
L 121.32728 134.683261 
L 121.97789 139.235821 
L 122.628501 137.282982 
L 123.279111 145.745035 
L 123.929721 140.235524 
L 124.580332 141.46255 
L 125.230942 138.881389 
L 125.881552 135.790228 
L 126.532163 138.120331 
L 127.182773 139.586444 
L 127.833383 133.213487 
L 128.483993 138.845508 
L 129.134604 136.426608 
L 129.785214 124.747604 
L 130.435824 127.809491 
L 131.086435 123.134126 
L 131.737045 131.99117 
L 132.387655 137.892668 
L 133.038266 127.110748 
L 133.688876 132.177926 
L 134.339486 131.935902 
L 134.990097 132.039421 
L 135.640707 120.378191 
L 136.941927 144.848495 
L 137.592538 133.900477 
L 138.243148 136.07458 
L 138.893758 124.263979 
L 139.544369 125.420785 
L 140.194979 131.826146 
L 140.845589 122.366289 
L 141.4962 116.629664 
L 142.14681 112.626152 
L 142.79742 122.378181 
L 143.448031 127.853884 
L 144.098641 123.656479 
L 144.749251 127.310885 
L 145.399862 125.258061 
L 146.050472 123.670876 
L 146.701082 137.894147 
L 147.351692 110.108724 
L 148.002303 119.052385 
L 148.652913 124.953236 
L 149.303523 114.129441 
L 149.954134 113.225086 
L 150.604744 108.507265 
L 151.255354 108.848068 
L 151.905965 114.325956 
L 152.556575 106.155428 
L 153.207185 107.28065 
L 153.857796 118.524794 
L 154.508406 105.669321 
L 155.159016 108.250035 
L 155.809627 95.87677 
L 156.460237 104.713928 
L 157.110847 97.96869 
L 157.761457 105.271616 
L 158.412068 90.166246 
L 159.713288 103.257768 
L 160.363899 100.721555 
L 161.014509 98.896589 
L 161.665119 112.735505 
L 162.31573 113.875339 
L 162.96634 100.74622 
L 163.61695 109.042264 
L 164.267561 102.06441 
L 164.918171 112.596048 
L 165.568781 99.198943 
L 166.219392 104.45551 
L 166.870002 107.532199 
L 168.171222 122.668058 
L 168.821833 91.246411 
L 169.472443 101.864493 
L 170.123053 93.522725 
L 170.773664 105.110736 
L 171.424274 95.179628 
L 172.074884 100.254762 
L 172.725495 100.161945 
L 173.376105 87.927353 
L 174.026715 85.827409 
L 174.677326 94.607463 
L 175.327936 92.746063 
L 175.978546 98.938651 
L 176.629156 88.07634 
L 177.279767 90.028028 
L 177.930377 109.874821 
L 178.580987 101.25098 
L 179.231598 82.216881 
L 179.882208 84.400342 
L 180.532818 87.463137 
L 181.183429 99.063469 
L 181.834039 83.350543 
L 182.484649 96.067833 
L 183.78587 92.078398 
L 184.43648 96.813417 
L 185.087091 92.034695 
L 185.737701 84.32151 
L 186.388311 87.076539 
L 187.038921 92.597595 
L 187.689532 92.641011 
L 188.340142 97.455641 
L 188.990752 83.160393 
L 189.641363 89.972612 
L 190.291973 93.380137 
L 190.942583 92.80805 
L 191.593194 100.960105 
L 192.243804 98.173527 
L 192.894414 84.402886 
L 193.545025 92.546182 
L 194.195635 92.435186 
L 194.846245 89.115917 
L 196.147466 80.899804 
L 196.798076 80.987035 
L 197.448686 87.453433 
L 198.099297 82.459074 
L 198.749907 81.172979 
L 199.400517 67.760317 
L 200.051128 86.560002 
L 200.701738 87.397937 
L 201.352348 80.097872 
L 202.002959 86.055465 
L 202.653569 76.478253 
L 203.304179 83.540168 
L 203.95479 81.438445 
L 204.6054 77.577533 
L 205.25601 79.150328 
L 205.906621 93.368306 
L 206.557231 94.796737 
L 207.207841 84.99727 
L 207.858451 77.987895 
L 208.509062 86.793111 
L 209.159672 89.661774 
L 209.810282 75.307231 
L 210.460893 79.591678 
L 211.111503 73.657071 
L 211.762113 77.552645 
L 212.412724 86.027386 
L 213.063334 91.427711 
L 213.713944 83.733875 
L 214.364555 72.309918 
L 215.015165 85.021055 
L 215.665775 87.978812 
L 216.316385 81.505662 
L 216.966996 85.388717 
L 217.617606 92.657729 
L 218.268216 81.839002 
L 218.918827 80.458192 
L 219.569437 75.476482 
L 220.220047 82.19246 
L 220.870658 86.562747 
L 221.521268 86.021506 
L 222.171878 97.706467 
L 222.822489 89.040817 
L 223.473099 89.610635 
L 224.123709 102.409267 
L 224.77432 105.362233 
L 225.42493 74.516556 
L 226.07554 79.654407 
L 226.72615 79.392738 
L 227.376761 79.548714 
L 228.027371 76.549439 
L 228.677981 75.011144 
L 229.328592 78.785674 
L 229.979202 68.228276 
L 230.629812 79.833142 
L 231.280423 74.161973 
L 231.931033 81.6743 
L 232.581643 82.162293 
L 233.232254 84.380817 
L 233.882864 74.545381 
L 234.533474 77.663803 
L 235.184085 71.106739 
L 235.834695 70.15361 
L 236.485305 75.946883 
L 237.135915 78.413707 
L 237.786526 79.896709 
L 238.437136 74.437081 
L 239.087746 74.764491 
L 239.738357 70.014594 
L 240.388967 79.513086 
L 241.039577 84.848118 
L 241.690188 78.859221 
L 242.340798 78.418987 
L 242.991408 72.813429 
L 243.642019 73.581291 
L 244.292629 77.25729 
L 244.943239 79.666803 
L 245.59385 87.706632 
L 246.24446 77.932189 
L 246.89507 79.061433 
L 247.54568 77.989292 
L 248.196291 83.299296 
L 248.846901 77.605777 
L 249.497511 80.412646 
L 250.148122 82.69311 
L 250.798732 81.160025 
L 252.099953 67.494419 
L 252.750563 75.337818 
L 253.401173 71.509736 
L 254.051784 73.837894 
L 254.702394 68.002097 
L 255.353004 67.05993 
L 256.003615 75.321648 
L 256.654225 71.462785 
L 257.304835 72.432592 
L 257.955445 53.568 
L 258.606056 63.498225 
L 259.256666 64.044738 
L 259.907276 68.328841 
L 260.557887 69.056886 
L 261.208497 67.781112 
L 261.859107 62.253474 
L 262.509718 59.114888 
L 263.160328 64.652143 
L 263.810938 64.044414 
L 264.461549 62.594371 
L 265.112159 65.252466 
L 265.762769 66.360071 
L 266.413379 73.122519 
L 267.06399 66.432489 
L 267.7146 70.628591 
L 268.36521 68.50922 
L 269.015821 64.491703 
L 269.666431 78.307234 
L 270.317041 68.685597 
L 270.967652 68.785222 
L 271.618262 75.830221 
L 272.268872 72.483915 
L 272.919483 68.357941 
L 273.570093 73.551748 
L 274.220703 80.69691 
L 274.871314 72.321469 
L 275.521924 76.997199 
L 276.172534 64.115097 
L 276.823144 70.385535 
L 277.473755 78.967843 
L 278.124365 71.04237 
L 278.774975 75.510008 
L 279.425586 74.386651 
L 280.726806 71.274883 
L 281.377417 80.029273 
L 282.028027 70.545951 
L 282.678637 76.135831 
L 283.329248 75.198572 
L 283.979858 74.755632 
L 284.630468 76.404153 
L 285.281079 68.471117 
L 285.931689 70.289214 
L 286.582299 76.341914 
L 287.232909 62.172154 
L 287.88352 66.888569 
L 288.53413 73.410727 
L 289.18474 67.909842 
L 289.835351 84.49863 
L 290.485961 68.888888 
L 291.136571 72.807747 
L 291.787182 65.584609 
L 292.437792 67.965938 
L 293.088402 66.521903 
L 293.739013 63.784444 
L 294.389623 67.503401 
L 295.040233 63.734766 
L 295.690844 70.556225 
L 296.341454 74.964529 
L 296.992064 76.538875 
L 297.642674 72.133817 
L 298.293285 73.743613 
L 298.943895 75.86472 
L 299.594505 79.57304 
L 300.245116 72.451707 
L 300.895726 72.299848 
L 301.546336 68.118987 
L 302.196947 73.408892 
L 302.847557 69.190251 
L 303.498167 77.187208 
L 304.148778 62.088295 
L 304.799388 62.225401 
L 305.449998 63.361026 
L 306.100608 62.652828 
L 306.751219 60.53103 
L 307.401829 72.641784 
L 308.052439 71.185794 
L 308.70305 72.623105 
L 309.35366 67.779191 
L 310.00427 67.998267 
L 310.654881 62.689935 
L 311.305491 63.185354 
L 311.956101 62.76557 
L 312.606712 65.390619 
L 313.257322 73.528227 
L 313.907932 68.506467 
L 314.558543 67.064483 
L 315.209153 64.958623 
L 315.859763 84.74391 
L 316.510373 66.529565 
L 317.160984 69.39722 
L 317.811594 65.985323 
L 318.462204 64.433393 
L 319.112815 65.006203 
L 319.763425 63.188743 
L 320.414035 71.735617 
L 321.064646 65.433517 
L 321.715256 60.651295 
L 323.667087 68.653489 
L 324.317697 68.620512 
L 324.968308 68.972001 
L 325.618918 68.181918 
L 326.269528 74.981766 
L 326.920138 78.558022 
L 327.570749 70.532441 
L 328.221359 67.034269 
L 328.871969 75.406615 
L 329.52258 82.257919 
L 330.17319 94.236329 
L 330.8238 80.889109 
L 331.474411 85.33396 
L 332.125021 85.237265 
L 332.775631 85.73391 
L 333.426242 95.775997 
L 334.076852 91.460267 
L 334.727462 73.605289 
L 335.378073 80.772443 
L 336.028683 80.320567 
L 336.679293 82.039183 
L 337.329903 75.67947 
L 337.980514 73.006048 
L 338.631124 72.544898 
L 339.281734 78.902546 
L 339.932345 78.818259 
L 340.582955 79.028411 
L 341.233565 70.553206 
L 341.884176 75.213865 
L 342.534786 86.847017 
L 343.185396 85.73376 
L 343.836007 81.979285 
L 344.486617 77.296334 
L 345.137227 78.330987 
L 345.787837 81.125241 
L 346.438448 80.839252 
L 347.089058 82.897709 
L 347.739668 84.125438 
L 348.390279 86.994247 
L 349.040889 86.44846 
L 349.691499 98.637282 
L 350.34211 101.431081 
L 350.99272 93.265767 
L 351.64333 97.849336 
L 352.293941 97.750528 
L 352.944551 96.602264 
L 353.595161 105.780764 
L 354.245772 95.858296 
L 354.896382 93.747947 
L 355.546992 104.661007 
L 356.197602 96.747397 
L 356.848213 103.514258 
L 357.498823 100.696604 
L 358.149433 94.494015 
L 358.800044 96.044543 
L 359.450654 90.733434 
L 360.101264 99.264258 
L 360.751875 94.380468 
L 361.402485 88.438234 
L 362.053095 85.745654 
L 362.703706 80.058833 
L 363.354316 72.850658 
L 364.004926 87.346662 
L 364.655537 80.820427 
L 365.306147 78.554741 
L 365.956757 85.451048 
L 366.607367 77.083855 
L 367.257978 84.006567 
L 367.908588 78.173618 
L 368.559198 78.889192 
L 369.209809 77.390473 
L 369.860419 74.301122 
L 370.511029 81.147775 
L 371.16164 76.263253 
L 371.81225 81.467697 
L 372.46286 82.532739 
L 373.113471 75.509175 
L 373.764081 85.356807 
L 375.065302 71.276313 
L 375.715912 84.369064 
L 376.366522 83.93688 
L 377.017132 82.698502 
L 377.667743 79.57072 
L 378.318353 69.016884 
L 378.968963 70.585782 
L 379.619574 75.703853 
L 380.270184 72.111533 
L 380.920794 71.499301 
L 381.571405 61.554267 
L 382.222015 79.418896 
L 382.872625 77.794268 
L 383.523236 83.493779 
L 384.173846 70.021295 
L 384.824456 77.502203 
L 385.475066 65.22381 
L 386.125677 84.916943 
L 386.776287 76.038803 
L 387.426897 71.890496 
L 388.077508 76.179365 
L 388.728118 76.735954 
L 389.378728 77.631655 
L 390.029339 69.047157 
L 390.679949 84.132465 
L 391.330559 72.910047 
L 391.98117 77.051261 
L 392.63178 82.953666 
L 393.28239 85.284655 
L 393.933001 84.683253 
L 394.583611 97.240003 
L 395.234221 89.34175 
L 395.884831 97.594466 
L 396.535442 88.393111 
L 397.186052 84.610973 
L 397.836662 100.577285 
L 398.487273 92.474212 
L 398.487273 92.474212 
" clip-path="url(#p9ceb6b799b)" style="fill: none; stroke-dasharray: 9.6,2.4,1.5,2.4; stroke-dashoffset: 0; stroke: #008000; stroke-width: 1.5"/>
   </g>
   <g id="line2d_32">
    <path d="M 73.832727 185.301116 
L 74.483338 156.655342 
L 84.242492 156.655342 
L 84.893103 128.902565 
L 89.447375 128.902565 
L 90.097985 117.021584 
L 90.748595 89.45974 
L 95.953478 89.45974 
L 96.604088 67.163791 
L 101.808971 67.163791 
L 102.459581 60.739556 
L 398.487273 60.739556 
L 398.487273 60.739556 
" clip-path="url(#p9ceb6b799b)" style="fill: none; stroke: #ff0000; stroke-width: 1.5; stroke-linecap: square"/>
   </g>
   <g id="patch_3">
    <path d="M 57.6 307.584 
L 57.6 41.472 
" style="fill: none; stroke: #000000; stroke-width: 0.8; stroke-linejoin: miter; stroke-linecap: square"/>
   </g>
   <g id="patch_4">
    <path d="M 414.72 307.584 
L 414.72 41.472 
" style="fill: none; stroke: #000000; stroke-width: 0.8; stroke-linejoin: miter; stroke-linecap: square"/>
   </g>
   <g id="patch_5">
    <path d="M 57.6 307.584 
L 414.72 307.584 
" style="fill: none; stroke: #000000; stroke-width: 0.8; stroke-linejoin: miter; stroke-linecap: square"/>
   </g>
   <g id="patch_6">
    <path d="M 57.6 41.472 
L 414.72 41.472 
" style="fill: none; stroke: #000000; stroke-width: 0.8; stroke-linejoin: miter; stroke-linecap: square"/>
   </g>
   <g id="text_17">
    <!-- Population's average and best fitness -->
    <g transform="translate(123.529687 35.472) scale(0.12 -0.12)">
     <defs>
      <path id="DejaVuSans-50" d="M 1259 4147 
L 1259 2394 
L 2053 2394 
Q 2494 2394 2734 2622 
Q 2975 2850 2975 3272 
Q 2975 3691 2734 3919 
Q 2494 4147 2053 4147 
L 1259 4147 
z
M 628 4666 
L 2053 4666 
Q 2838 4666 3239 4311 
Q 3641 3956 3641 3272 
Q 3641 2581 3239 2228 
Q 2838 1875 2053 1875 
L 1259 1875 
L 1259 0 
L 628 0 
L 628 4666 
z
" transform="scale(0.015625)"/>
      <path id="DejaVuSans-70" d="M 1159 525 
L 1159 -1331 
L 581 -1331 
L 581 3500 
L 1159 3500 
L 1159 2969 
Q 1341 3281 1617 3432 
Q 1894 3584 2278 3584 
Q 2916 3584 3314 3078 
Q 3713 2572 3713 1747 
Q 3713 922 3314 415 
Q 2916 -91 2278 -91 
Q 1894 -91 1617 61 
Q 1341 213 1159 525 
z
M 3116 1747 
Q 3116 2381 2855 2742 
Q 2594 3103 2138 3103 
Q 1681 3103 1420 2742 
Q 1159 2381 1159 1747 
Q 1159 1113 1420 752 
Q 1681 391 2138 391 
Q 2594 391 2855 752 
Q 3116 1113 3116 1747 
z
" transform="scale(0.015625)"/>
      <path id="DejaVuSans-75" d="M 544 1381 
L 544 3500 
L 1119 3500 
L 1119 1403 
Q 1119 906 1312 657 
Q 1506 409 1894 409 
Q 2359 409 2629 706 
Q 2900 1003 2900 1516 
L 2900 3500 
L 3475 3500 
L 3475 0 
L 2900 0 
L 2900 538 
Q 2691 219 2414 64 
Q 2138 -91 1772 -91 
Q 1169 -91 856 284 
Q 544 659 544 1381 
z
M 1991 3584 
L 1991 3584 
z
" transform="scale(0.015625)"/>
      <path id="DejaVuSans-6c" d="M 603 4863 
L 1178 4863 
L 1178 0 
L 603 0 
L 603 4863 
z
" transform="scale(0.015625)"/>
      <path id="DejaVuSans-27" d="M 1147 4666 
L 1147 2931 
L 616 2931 
L 616 4666 
L 1147 4666 
z
" transform="scale(0.015625)"/>
      <path id="DejaVuSans-20" transform="scale(0.015625)"/>
      <path id="DejaVuSans-76" d="M 191 3500 
L 800 3500 
L 1894 563 
L 2988 3500 
L 3597 3500 
L 2284 0 
L 1503 0 
L 191 3500 
z
" transform="scale(0.015625)"/>
      <path id="DejaVuSans-67" d="M 2906 1791 
Q 2906 2416 2648 2759 
Q 2391 3103 1925 3103 
Q 1463 3103 1205 2759 
Q 947 2416 947 1791 
Q 947 1169 1205 825 
Q 1463 481 1925 481 
Q 2391 481 2648 825 
Q 2906 1169 2906 1791 
z
M 3481 434 
Q 3481 -459 3084 -895 
Q 2688 -1331 1869 -1331 
Q 1566 -1331 1297 -1286 
Q 1028 -1241 775 -1147 
L 775 -588 
Q 1028 -725 1275 -790 
Q 1522 -856 1778 -856 
Q 2344 -856 2625 -561 
Q 2906 -266 2906 331 
L 2906 616 
Q 2728 306 2450 153 
Q 2172 0 1784 0 
Q 1141 0 747 490 
Q 353 981 353 1791 
Q 353 2603 747 3093 
Q 1141 3584 1784 3584 
Q 2172 3584 2450 3431 
Q 2728 3278 2906 2969 
L 2906 3500 
L 3481 3500 
L 3481 434 
z
" transform="scale(0.015625)"/>
      <path id="DejaVuSans-64" d="M 2906 2969 
L 2906 4863 
L 3481 4863 
L 3481 0 
L 2906 0 
L 2906 525 
Q 2725 213 2448 61 
Q 2172 -91 1784 -91 
Q 1150 -91 751 415 
Q 353 922 353 1747 
Q 353 2572 751 3078 
Q 1150 3584 1784 3584 
Q 2172 3584 2448 3432 
Q 2725 3281 2906 2969 
z
M 947 1747 
Q 947 1113 1208 752 
Q 1469 391 1925 391 
Q 2381 391 2643 752 
Q 2906 1113 2906 1747 
Q 2906 2381 2643 2742 
Q 2381 3103 1925 3103 
Q 1469 3103 1208 2742 
Q 947 2381 947 1747 
z
" transform="scale(0.015625)"/>
      <path id="DejaVuSans-62" d="M 3116 1747 
Q 3116 2381 2855 2742 
Q 2594 3103 2138 3103 
Q 1681 3103 1420 2742 
Q 1159 2381 1159 1747 
Q 1159 1113 1420 752 
Q 1681 391 2138 391 
Q 2594 391 2855 752 
Q 3116 1113 3116 1747 
z
M 1159 2969 
Q 1341 3281 1617 3432 
Q 1894 3584 2278 3584 
Q 2916 3584 3314 3078 
Q 3713 2572 3713 1747 
Q 3713 922 3314 415 
Q 2916 -91 2278 -91 
Q 1894 -91 1617 61 
Q 1341 213 1159 525 
L 1159 0 
L 581 0 
L 581 4863 
L 1159 4863 
L 1159 2969 
z
" transform="scale(0.015625)"/>
      <path id="DejaVuSans-66" d="M 2375 4863 
L 2375 4384 
L 1825 4384 
Q 1516 4384 1395 4259 
Q 1275 4134 1275 3809 
L 1275 3500 
L 2222 3500 
L 2222 3053 
L 1275 3053 
L 1275 0 
L 697 0 
L 697 3053 
L 147 3053 
L 147 3500 
L 697 3500 
L 697 3744 
Q 697 4328 969 4595 
Q 1241 4863 1831 4863 
L 2375 4863 
z
" transform="scale(0.015625)"/>
     </defs>
     <use xlink:href="#DejaVuSans-50"/>
     <use xlink:href="#DejaVuSans-6f" x="56.677734"/>
     <use xlink:href="#DejaVuSans-70" x="117.859375"/>
     <use xlink:href="#DejaVuSans-75" x="181.335938"/>
     <use xlink:href="#DejaVuSans-6c" x="244.714844"/>
     <use xlink:href="#DejaVuSans-61" x="272.498047"/>
     <use xlink:href="#DejaVuSans-74" x="333.777344"/>
     <use xlink:href="#DejaVuSans-69" x="372.986328"/>
     <use xlink:href="#DejaVuSans-6f" x="400.769531"/>
     <use xlink:href="#DejaVuSans-6e" x="461.951172"/>
     <use xlink:href="#DejaVuSans-27" x="525.330078"/>
     <use xlink:href="#DejaVuSans-73" x="552.820312"/>
     <use xlink:href="#DejaVuSans-20" x="604.919922"/>
     <use xlink:href="#DejaVuSans-61" x="636.707031"/>
     <use xlink:href="#DejaVuSans-76" x="697.986328"/>
     <use xlink:href="#DejaVuSans-65" x="757.166016"/>
     <use xlink:href="#DejaVuSans-72" x="818.689453"/>
     <use xlink:href="#DejaVuSans-61" x="859.802734"/>
     <use xlink:href="#DejaVuSans-67" x="921.082031"/>
     <use xlink:href="#DejaVuSans-65" x="984.558594"/>
     <use xlink:href="#DejaVuSans-20" x="1046.082031"/>
     <use xlink:href="#DejaVuSans-61" x="1077.869141"/>
     <use xlink:href="#DejaVuSans-6e" x="1139.148438"/>
     <use xlink:href="#DejaVuSans-64" x="1202.527344"/>
     <use xlink:href="#DejaVuSans-20" x="1266.003906"/>
     <use xlink:href="#DejaVuSans-62" x="1297.791016"/>
     <use xlink:href="#DejaVuSans-65" x="1361.267578"/>
     <use xlink:href="#DejaVuSans-73" x="1422.791016"/>
     <use xlink:href="#DejaVuSans-74" x="1474.890625"/>
     <use xlink:href="#DejaVuSans-20" x="1514.099609"/>
     <use xlink:href="#DejaVuSans-66" x="1545.886719"/>
     <use xlink:href="#DejaVuSans-69" x="1581.091797"/>
     <use xlink:href="#DejaVuSans-74" x="1608.875"/>
     <use xlink:href="#DejaVuSans-6e" x="1648.083984"/>
     <use xlink:href="#DejaVuSans-65" x="1711.462891"/>
     <use xlink:href="#DejaVuSans-73" x="1772.986328"/>
     <use xlink:href="#DejaVuSans-73" x="1825.085938"/>
    </g>
   </g>
   <g id="legend_1">
    <g id="patch_7">
     <path d="M 64.6 205.38425 
L 137.540625 205.38425 
Q 139.540625 205.38425 139.540625 203.38425 
L 139.540625 145.67175 
Q 139.540625 143.67175 137.540625 143.67175 
L 64.6 143.67175 
Q 62.6 143.67175 62.6 145.67175 
L 62.6 203.38425 
Q 62.6 205.38425 64.6 205.38425 
z
" style="fill: #ffffff; opacity: 0.8; stroke: #cccccc; stroke-linejoin: miter"/>
    </g>
    <g id="line2d_33">
     <path d="M 66.6 151.770188 
L 76.6 151.770188 
L 86.6 151.770188 
" style="fill: none; stroke: #0000ff; stroke-width: 1.5; stroke-linecap: square"/>
    </g>
    <g id="text_18">
     <!-- average -->
     <g transform="translate(94.6 155.270188) scale(0.1 -0.1)">
      <use xlink:href="#DejaVuSans-61"/>
      <use xlink:href="#DejaVuSans-76" x="61.279297"/>
      <use xlink:href="#DejaVuSans-65" x="120.458984"/>
      <use xlink:href="#DejaVuSans-72" x="181.982422"/>
      <use xlink:href="#DejaVuSans-61" x="223.095703"/>
      <use xlink:href="#DejaVuSans-67" x="284.375"/>
      <use xlink:href="#DejaVuSans-65" x="347.851562"/>
     </g>
    </g>
    <g id="line2d_34">
     <path d="M 66.6 166.448313 
L 76.6 166.448313 
L 86.6 166.448313 
" style="fill: none; stroke-dasharray: 9.6,2.4,1.5,2.4; stroke-dashoffset: 0; stroke: #008000; stroke-width: 1.5"/>
    </g>
    <g id="text_19">
     <!-- -1 sd -->
     <g transform="translate(94.6 169.948313) scale(0.1 -0.1)">
      <defs>
       <path id="DejaVuSans-2d" d="M 313 2009 
L 1997 2009 
L 1997 1497 
L 313 1497 
L 313 2009 
z
" transform="scale(0.015625)"/>
      </defs>
      <use xlink:href="#DejaVuSans-2d"/>
      <use xlink:href="#DejaVuSans-31" x="36.083984"/>
      <use xlink:href="#DejaVuSans-20" x="99.707031"/>
      <use xlink:href="#DejaVuSans-73" x="131.494141"/>
      <use xlink:href="#DejaVuSans-64" x="183.59375"/>
     </g>
    </g>
    <g id="line2d_35">
     <path d="M 66.6 181.126438 
L 76.6 181.126438 
L 86.6 181.126438 
" style="fill: none; stroke-dasharray: 9.6,2.4,1.5,2.4; stroke-dashoffset: 0; stroke: #008000; stroke-width: 1.5"/>
    </g>
    <g id="text_20">
     <!-- +1 sd -->
     <g transform="translate(94.6 184.626438) scale(0.1 -0.1)">
      <defs>
       <path id="DejaVuSans-2b" d="M 2944 4013 
L 2944 2272 
L 4684 2272 
L 4684 1741 
L 2944 1741 
L 2944 0 
L 2419 0 
L 2419 1741 
L 678 1741 
L 678 2272 
L 2419 2272 
L 2419 4013 
L 2944 4013 
z
" transform="scale(0.015625)"/>
      </defs>
      <use xlink:href="#DejaVuSans-2b"/>
      <use xlink:href="#DejaVuSans-31" x="83.789062"/>
      <use xlink:href="#DejaVuSans-20" x="147.412109"/>
      <use xlink:href="#DejaVuSans-73" x="179.199219"/>
      <use xlink:href="#DejaVuSans-64" x="231.298828"/>
     </g>
    </g>
    <g id="line2d_36">
     <path d="M 66.6 195.804563 
L 76.6 195.804563 
L 86.6 195.804563 
" style="fill: none; stroke: #ff0000; stroke-width: 1.5; stroke-linecap: square"/>
    </g>
    <g id="text_21">
     <!-- best -->
     <g transform="translate(94.6 199.304563) scale(0.1 -0.1)">
      <use xlink:href="#DejaVuSans-62"/>
      <use xlink:href="#DejaVuSans-65" x="63.476562"/>
      <use xlink:href="#DejaVuSans-73" x="125"/>
      <use xlink:href="#DejaVuSans-74" x="177.099609"/>
     </g>
    </g>
   </g>
  </g>
 </g>
 <defs>
  <clipPath id="p9ceb6b799b">
   <rect x="57.6" y="41.472" width="357.12" height="266.112"/>
  </clipPath>
 </defs>
</svg>
