<?xml version="1.0" encoding="UTF-8" standalone="no"?>
<!DOCTYPE svg PUBLIC "-//W3C//DTD SVG 1.1//EN"
 "http://www.w3.org/Graphics/SVG/1.1/DTD/svg11.dtd">
<!-- Generated by graphviz version 2.43.0 (0)
 -->
<!-- Title: %3 Pages: 1 -->
<svg width="707pt" height="180pt"
 viewBox="0.00 0.00 706.69 180.02" xmlns="http://www.w3.org/2000/svg" xmlns:xlink="http://www.w3.org/1999/xlink">
<g id="graph0" class="graph" transform="scale(1 1) rotate(0) translate(4 176.02)">
<title>%3</title>
<polygon fill="white" stroke="transparent" points="-4,4 -4,-176.02 702.69,-176.02 702.69,4 -4,4"/>
<!-- &#45;1 -->
<g id="node1" class="node">
<title>&#45;1</title>
<polygon fill="lightgray" stroke="black" points="143,-172.02 117,-172.02 117,-154.02 143,-154.02 143,-172.02"/>
<text text-anchor="middle" x="130" y="-160.82" font-family="Times,serif" font-size="9.00">&#45;1</text>
</g>
<!-- 0 -->
<g id="node10" class="node">
<title>0</title>
<ellipse fill="lightblue" stroke="black" cx="403" cy="-16.26" rx="16.03" ry="16.03"/>
<text text-anchor="middle" x="403" y="-14.06" font-family="Times,serif" font-size="9.00">0</text>
</g>
<!-- &#45;1&#45;&gt;0 -->
<g id="edge24" class="edge">
<title>&#45;1&#45;&gt;0</title>
<path fill="none" stroke="green" stroke-width="0.26" d="M125.08,-153.88C115.04,-136.1 94.84,-93.41 116,-68.53 148.23,-30.62 288.18,-42.14 337,-32.53 350.39,-29.89 365.2,-26.51 377.39,-23.6"/>
<polygon fill="green" stroke="green" stroke-width="0.26" points="378.43,-26.95 387.33,-21.19 376.78,-20.14 378.43,-26.95"/>
</g>
<!-- 1 -->
<g id="node11" class="node">
<title>1</title>
<ellipse fill="lightblue" stroke="black" cx="312" cy="-16.26" rx="16.03" ry="16.03"/>
<text text-anchor="middle" x="312" y="-14.06" font-family="Times,serif" font-size="9.00">1</text>
</g>
<!-- &#45;1&#45;&gt;1 -->
<g id="edge18" class="edge">
<title>&#45;1&#45;&gt;1</title>
<path fill="none" stroke="red" stroke-width="0.26" d="M116.91,-155.34C104.28,-148.09 85.96,-135.19 78,-118.02 68.74,-98.07 64.21,-85.67 78,-68.53 103.85,-36.4 230.03,-23.29 285.62,-19.01"/>
<polygon fill="red" stroke="red" stroke-width="0.26" points="286.03,-22.49 295.75,-18.27 285.52,-15.51 286.03,-22.49"/>
</g>
<!-- 3 -->
<g id="node13" class="node">
<title>3</title>
<ellipse fill="lightblue" stroke="black" cx="482" cy="-16.26" rx="16.03" ry="16.03"/>
<text text-anchor="middle" x="482" y="-14.06" font-family="Times,serif" font-size="9.00">3</text>
</g>
<!-- &#45;1&#45;&gt;3 -->
<g id="edge21" class="edge">
<title>&#45;1&#45;&gt;3</title>
<path fill="none" stroke="red" stroke-width="0.21" d="M135.55,-153.89C148.68,-135.33 183.67,-89.86 225,-68.53 306.42,-26.5 338.69,-53.01 428,-32.53 437.42,-30.37 447.65,-27.59 456.64,-25"/>
<polygon fill="red" stroke="red" stroke-width="0.21" points="457.91,-28.27 466.51,-22.09 455.93,-21.56 457.91,-28.27"/>
</g>
<!-- 316 -->
<g id="node14" class="node">
<title>316</title>
<ellipse fill="white" stroke="black" cx="259" cy="-93.28" rx="25" ry="25"/>
<text text-anchor="middle" x="259" y="-91.08" font-family="Times,serif" font-size="9.00">316</text>
</g>
<!-- &#45;1&#45;&gt;316 -->
<g id="edge30" class="edge">
<title>&#45;1&#45;&gt;316</title>
<path fill="none" stroke="red" stroke-width="0.65" d="M143.32,-155.03C163.24,-144.57 201.35,-124.55 228.38,-110.36"/>
<polygon fill="red" stroke="red" stroke-width="0.65" points="230.2,-113.35 237.43,-105.6 226.95,-107.16 230.2,-113.35"/>
</g>
<!-- 318 -->
<g id="node15" class="node">
<title>318</title>
<ellipse fill="white" stroke="black" cx="403" cy="-93.28" rx="25" ry="25"/>
<text text-anchor="middle" x="403" y="-91.08" font-family="Times,serif" font-size="9.00">318</text>
</g>
<!-- &#45;1&#45;&gt;318 -->
<g id="edge29" class="edge">
<title>&#45;1&#45;&gt;318</title>
<path fill="none" stroke="red" stroke-width="0.25" d="M143.17,-158.76C183.84,-148.66 308.4,-117.75 369.08,-102.69"/>
<polygon fill="red" stroke="red" stroke-width="0.25" points="370.08,-106.05 378.94,-100.25 368.39,-99.26 370.08,-106.05"/>
</g>
<!-- &#45;2 -->
<g id="node2" class="node">
<title>&#45;2</title>
<polygon fill="lightgray" stroke="black" points="276,-172.02 250,-172.02 250,-154.02 276,-154.02 276,-172.02"/>
<text text-anchor="middle" x="263" y="-160.82" font-family="Times,serif" font-size="9.00">&#45;2</text>
</g>
<!-- &#45;2&#45;&gt;1 -->
<g id="edge14" class="edge">
<title>&#45;2&#45;&gt;1</title>
<path fill="none" stroke="red" stroke-width="0.27" d="M252.65,-153.88C243.4,-145.89 230.49,-132.78 225,-118.02 217.33,-97.41 214.09,-87.63 225,-68.53 238.1,-45.61 265.88,-31.92 286.55,-24.53"/>
<polygon fill="red" stroke="red" stroke-width="0.27" points="287.91,-27.76 296.31,-21.3 285.71,-21.12 287.91,-27.76"/>
</g>
<!-- &#45;2&#45;&gt;316 -->
<g id="edge11" class="edge">
<title>&#45;2&#45;&gt;316</title>
<path fill="none" stroke="red" stroke-width="0.28" d="M262.53,-153.99C262.14,-147.43 261.56,-137.7 260.99,-127.98"/>
<polygon fill="red" stroke="red" stroke-width="0.28" points="264.48,-127.77 260.4,-118 257.5,-128.19 264.48,-127.77"/>
</g>
<!-- &#45;2&#45;&gt;318 -->
<g id="edge20" class="edge">
<title>&#45;2&#45;&gt;318</title>
<path fill="none" stroke="red" stroke-width="0.16" d="M276.17,-155.65C297.91,-145.13 341.89,-123.85 371.9,-109.33"/>
<polygon fill="red" stroke="red" stroke-width="0.16" points="373.63,-112.38 381.1,-104.87 370.58,-106.08 373.63,-112.38"/>
</g>
<!-- 319 -->
<g id="node16" class="node">
<title>319</title>
<ellipse fill="white" stroke="black" cx="509" cy="-93.28" rx="25" ry="25"/>
<text text-anchor="middle" x="509" y="-91.08" font-family="Times,serif" font-size="9.00">319</text>
</g>
<!-- &#45;2&#45;&gt;319 -->
<g id="edge32" class="edge">
<title>&#45;2&#45;&gt;319</title>
<path fill="none" stroke="red" stroke-width="0.35" d="M276.18,-159.03C305.35,-152.33 377.46,-135.35 437,-118.02 449.84,-114.29 463.82,-109.78 476.02,-105.7"/>
<polygon fill="red" stroke="red" stroke-width="0.35" points="477.43,-108.92 485.78,-102.4 475.19,-102.28 477.43,-108.92"/>
</g>
<!-- &#45;3 -->
<g id="node3" class="node">
<title>&#45;3</title>
<polygon fill="lightgray" stroke="black" points="416,-172.02 390,-172.02 390,-154.02 416,-154.02 416,-172.02"/>
<text text-anchor="middle" x="403" y="-160.82" font-family="Times,serif" font-size="9.00">&#45;3</text>
</g>
<!-- &#45;3&#45;&gt;1 -->
<g id="edge36" class="edge">
<title>&#45;3&#45;&gt;1</title>
<path fill="none" stroke="green" stroke-width="0.12" d="M396.11,-153.85C388.97,-145.21 377.65,-131.05 369,-118.02 351.82,-92.15 334.61,-60.8 323.67,-40.01"/>
<polygon fill="green" stroke="green" stroke-width="0.12" points="326.69,-38.24 318.97,-30.99 320.48,-41.48 326.69,-38.24"/>
</g>
<!-- &#45;3&#45;&gt;318 -->
<g id="edge6" class="edge">
<title>&#45;3&#45;&gt;318</title>
<path fill="none" stroke="green" stroke-width="0.62" d="M403,-153.99C403,-147.55 403,-138.05 403,-128.52"/>
<polygon fill="green" stroke="green" stroke-width="0.62" points="406.5,-128.3 403,-118.3 399.5,-128.3 406.5,-128.3"/>
</g>
<!-- &#45;3&#45;&gt;319 -->
<g id="edge25" class="edge">
<title>&#45;3&#45;&gt;319</title>
<path fill="none" stroke="green" stroke-width="0.37" d="M415.58,-153.99C431.32,-143.93 458.76,-126.38 479.85,-112.91"/>
<polygon fill="green" stroke="green" stroke-width="0.37" points="481.9,-115.75 488.44,-107.41 478.13,-109.85 481.9,-115.75"/>
</g>
<!-- &#45;4 -->
<g id="node4" class="node">
<title>&#45;4</title>
<polygon fill="lightgray" stroke="black" points="348,-172.02 322,-172.02 322,-154.02 348,-154.02 348,-172.02"/>
<text text-anchor="middle" x="335" y="-160.82" font-family="Times,serif" font-size="9.00">&#45;4</text>
</g>
<!-- &#45;4&#45;&gt;1 -->
<g id="edge31" class="edge">
<title>&#45;4&#45;&gt;1</title>
<path fill="none" stroke="red" stroke-width="0.4" d="M333.7,-153.83C330.34,-132.67 321.26,-75.57 315.98,-42.28"/>
<polygon fill="red" stroke="red" stroke-width="0.4" points="319.43,-41.72 314.4,-32.39 312.52,-42.81 319.43,-41.72"/>
</g>
<!-- &#45;4&#45;&gt;316 -->
<g id="edge33" class="edge">
<title>&#45;4&#45;&gt;316</title>
<path fill="none" stroke="red" stroke-width="0.48" d="M325.98,-153.99C315.9,-145 299.11,-130.03 284.86,-117.33"/>
<polygon fill="red" stroke="red" stroke-width="0.48" points="287.06,-114.6 277.26,-110.56 282.4,-119.82 287.06,-114.6"/>
</g>
<!-- &#45;4&#45;&gt;318 -->
<g id="edge15" class="edge">
<title>&#45;4&#45;&gt;318</title>
<path fill="none" stroke="red" stroke-width="0.49" d="M343.07,-153.99C351.75,-145.34 365.99,-131.15 378.4,-118.78"/>
<polygon fill="red" stroke="red" stroke-width="0.49" points="381.22,-120.91 385.84,-111.38 376.28,-115.95 381.22,-120.91"/>
</g>
<!-- &#45;4&#45;&gt;319 -->
<g id="edge17" class="edge">
<title>&#45;4&#45;&gt;319</title>
<path fill="none" stroke="green" stroke-width="0.36" d="M348.08,-156.93C375.07,-146.42 437.64,-122.06 476.32,-107"/>
<polygon fill="green" stroke="green" stroke-width="0.36" points="478.03,-110.09 486.08,-103.2 475.49,-103.57 478.03,-110.09"/>
</g>
<!-- &#45;5 -->
<g id="node5" class="node">
<title>&#45;5</title>
<polygon fill="lightgray" stroke="black" points="469,-172.02 443,-172.02 443,-154.02 469,-154.02 469,-172.02"/>
<text text-anchor="middle" x="456" y="-160.82" font-family="Times,serif" font-size="9.00">&#45;5</text>
</g>
<!-- &#45;5&#45;&gt;1 -->
<g id="edge3" class="edge">
<title>&#45;5&#45;&gt;1</title>
<path fill="none" stroke="green" stroke-width="0.26" d="M456.72,-153.96C457.84,-136.33 458.01,-93.93 437,-68.53 423.85,-52.63 369.72,-34.36 337.16,-24.5"/>
<polygon fill="green" stroke="green" stroke-width="0.26" points="338.01,-21.1 327.43,-21.61 336.01,-27.81 338.01,-21.1"/>
</g>
<!-- 2 -->
<g id="node12" class="node">
<title>2</title>
<ellipse fill="lightblue" stroke="black" cx="535" cy="-16.26" rx="16.03" ry="16.03"/>
<text text-anchor="middle" x="535" y="-14.06" font-family="Times,serif" font-size="9.00">2</text>
</g>
<!-- &#45;5&#45;&gt;2 -->
<g id="edge39" class="edge">
<title>&#45;5&#45;&gt;2</title>
<path fill="none" stroke="green" stroke-width="0.78" d="M469.23,-159.77C489.29,-155.56 526.78,-144.41 543,-118.02 557.22,-94.9 551.33,-62.93 544.45,-41.25"/>
<polygon fill="green" stroke="green" stroke-width="0.78" points="547.66,-39.82 541.07,-31.52 541.04,-42.11 547.66,-39.82"/>
</g>
<!-- &#45;5&#45;&gt;318 -->
<g id="edge27" class="edge">
<title>&#45;5&#45;&gt;318</title>
<path fill="none" stroke="red" stroke-width="0.27" d="M449.71,-153.99C443.38,-145.9 433.27,-132.97 424.07,-121.21"/>
<polygon fill="red" stroke="red" stroke-width="0.27" points="426.83,-119.05 417.91,-113.33 421.31,-123.36 426.83,-119.05"/>
</g>
<!-- &#45;6 -->
<g id="node6" class="node">
<title>&#45;6</title>
<polygon fill="lightgray" stroke="black" points="26,-102.28 0,-102.28 0,-84.28 26,-84.28 26,-102.28"/>
<text text-anchor="middle" x="13" y="-91.08" font-family="Times,serif" font-size="9.00">&#45;6</text>
</g>
<!-- &#45;6&#45;&gt;1 -->
<g id="edge28" class="edge">
<title>&#45;6&#45;&gt;1</title>
<path fill="none" stroke="green" stroke-width="0.4" d="M20.21,-83.97C25.23,-78.72 32.37,-72.25 40,-68.53 123.29,-27.9 235.45,-19.39 285.72,-17.67"/>
<polygon fill="green" stroke="green" stroke-width="0.4" points="285.85,-21.16 295.75,-17.39 285.65,-14.17 285.85,-21.16"/>
</g>
<!-- &#45;7 -->
<g id="node7" class="node">
<title>&#45;7</title>
<polygon fill="lightgray" stroke="black" points="689,-172.02 663,-172.02 663,-154.02 689,-154.02 689,-172.02"/>
<text text-anchor="middle" x="676" y="-160.82" font-family="Times,serif" font-size="9.00">&#45;7</text>
</g>
<!-- &#45;7&#45;&gt;0 -->
<g id="edge13" class="edge">
<title>&#45;7&#45;&gt;0</title>
<path fill="none" stroke="green" stroke-width="0.11" d="M666.24,-153.79C645,-136.19 592.52,-94.43 543,-68.53 504.8,-48.55 457.05,-32.87 428.34,-24.35"/>
<polygon fill="green" stroke="green" stroke-width="0.11" points="429.26,-20.97 418.68,-21.54 427.31,-27.69 429.26,-20.97"/>
</g>
<!-- &#45;7&#45;&gt;2 -->
<g id="edge5" class="edge">
<title>&#45;7&#45;&gt;2</title>
<path fill="none" stroke="green" stroke-width="0.32" d="M680.76,-153.86C690.25,-136.39 709.03,-94.87 690,-68.53 660.59,-27.82 597.65,-18.91 561.67,-17.27"/>
<polygon fill="green" stroke="green" stroke-width="0.32" points="561.54,-13.77 551.44,-16.97 561.33,-20.77 561.54,-13.77"/>
</g>
<!-- &#45;7&#45;&gt;319 -->
<g id="edge8" class="edge">
<title>&#45;7&#45;&gt;319</title>
<path fill="none" stroke="red" stroke-width="0.16" d="M662.9,-156.71C636.85,-146.14 577.91,-122.23 541,-107.26"/>
<polygon fill="red" stroke="red" stroke-width="0.16" points="542.25,-103.99 531.67,-103.47 539.62,-110.47 542.25,-103.99"/>
</g>
<!-- &#45;8 -->
<g id="node8" class="node">
<title>&#45;8</title>
<polygon fill="lightgray" stroke="black" points="567,-172.02 541,-172.02 541,-154.02 567,-154.02 567,-172.02"/>
<text text-anchor="middle" x="554" y="-160.82" font-family="Times,serif" font-size="9.00">&#45;8</text>
</g>
<!-- &#45;8&#45;&gt;2 -->
<g id="edge19" class="edge">
<title>&#45;8&#45;&gt;2</title>
<path fill="none" stroke="green" stroke-width="0.35" d="M567.18,-156.75C581.69,-150.13 604.25,-137.27 614,-118.02 623.94,-98.4 624.5,-87.86 614,-68.53 602.56,-47.46 578.3,-33.71 559.67,-25.8"/>
<polygon fill="green" stroke="green" stroke-width="0.35" points="560.86,-22.51 550.27,-22.1 558.29,-29.02 560.86,-22.51"/>
</g>
<!-- &#45;8&#45;&gt;3 -->
<g id="edge34" class="edge">
<title>&#45;8&#45;&gt;3</title>
<path fill="none" stroke="green" stroke-width="0.36" d="M554.95,-153.93C556.56,-136.96 558.28,-96.87 543,-68.53 534.31,-52.4 518.28,-39.24 504.84,-30.29"/>
<polygon fill="green" stroke="green" stroke-width="0.36" points="506.4,-27.14 496.07,-24.79 502.67,-33.07 506.4,-27.14"/>
</g>
<!-- &#45;8&#45;&gt;318 -->
<g id="edge35" class="edge">
<title>&#45;8&#45;&gt;318</title>
<path fill="none" stroke="red" stroke-width="0.11" d="M540.86,-156.13C517.35,-145.58 467.47,-123.2 434.6,-108.45"/>
<polygon fill="red" stroke="red" stroke-width="0.11" points="435.96,-105.23 425.41,-104.33 433.1,-111.62 435.96,-105.23"/>
</g>
<!-- &#45;8&#45;&gt;319 -->
<g id="edge23" class="edge">
<title>&#45;8&#45;&gt;319</title>
<path fill="none" stroke="green" stroke-width="0.55" d="M548.66,-153.99C543.54,-146.28 535.5,-134.17 527.99,-122.87"/>
<polygon fill="green" stroke="green" stroke-width="0.55" points="530.86,-120.87 522.42,-114.47 525.03,-124.74 530.86,-120.87"/>
</g>
<!-- &#45;9 -->
<g id="node9" class="node">
<title>&#45;9</title>
<polygon fill="lightgray" stroke="black" points="212,-172.02 186,-172.02 186,-154.02 212,-154.02 212,-172.02"/>
<text text-anchor="middle" x="199" y="-160.82" font-family="Times,serif" font-size="9.00">&#45;9</text>
</g>
<!-- &#45;9&#45;&gt;0 -->
<g id="edge16" class="edge">
<title>&#45;9&#45;&gt;0</title>
<path fill="none" stroke="red" stroke-width="0.29" d="M198.78,-154C198.75,-136.07 201.28,-92.46 225,-68.53 235.87,-57.56 330.6,-34.2 377.25,-23.21"/>
<polygon fill="red" stroke="red" stroke-width="0.29" points="378.28,-26.57 387.22,-20.88 376.69,-19.75 378.28,-26.57"/>
</g>
<!-- &#45;9&#45;&gt;318 -->
<g id="edge38" class="edge">
<title>&#45;9&#45;&gt;318</title>
<path fill="none" stroke="green" stroke-width="0.29" d="M212.07,-157.68C243.47,-147.26 323.91,-120.54 369.73,-105.32"/>
<polygon fill="green" stroke="green" stroke-width="0.29" points="371.11,-108.55 379.5,-102.08 368.91,-101.91 371.11,-108.55"/>
</g>
<!-- 316&#45;&gt;1 -->
<g id="edge10" class="edge">
<title>316&#45;&gt;1</title>
<path fill="none" stroke="red" stroke-width="0.29" stroke-dasharray="1,5" d="M272.93,-72.57C280.31,-62.12 289.38,-49.28 296.92,-38.6"/>
<polygon fill="red" stroke="red" stroke-width="0.29" points="299.92,-40.43 302.83,-30.24 294.2,-36.39 299.92,-40.43"/>
</g>
<!-- 316&#45;&gt;2 -->
<g id="edge37" class="edge">
<title>316&#45;&gt;2</title>
<path fill="none" stroke="red" stroke-width="0.32" d="M282.93,-86.89C340.96,-73.77 485.92,-40.65 507,-32.53 508.67,-31.88 510.36,-31.16 512.05,-30.39"/>
<polygon fill="red" stroke="red" stroke-width="0.32" points="514.07,-33.28 521.39,-25.62 510.89,-27.05 514.07,-33.28"/>
</g>
<!-- 318&#45;&gt;0 -->
<g id="edge7" class="edge">
<title>318&#45;&gt;0</title>
<path fill="none" stroke="red" stroke-width="0.12" d="M403,-68.13C403,-60.03 403,-50.97 403,-42.77"/>
<polygon fill="red" stroke="red" stroke-width="0.12" points="406.5,-42.64 403,-32.64 399.5,-42.64 406.5,-42.64"/>
</g>
<!-- 318&#45;&gt;1 -->
<g id="edge9" class="edge">
<title>318&#45;&gt;1</title>
<path fill="none" stroke="red" stroke-width="0.63" d="M384.14,-76.73C368.95,-64.21 347.62,-46.63 332.1,-33.83"/>
<polygon fill="red" stroke="red" stroke-width="0.63" points="334.1,-30.94 324.15,-27.28 329.64,-36.34 334.1,-30.94"/>
</g>
<!-- 318&#45;&gt;2 -->
<g id="edge22" class="edge">
<title>318&#45;&gt;2</title>
<path fill="none" stroke="green" stroke-width="0.38" d="M424.21,-80.22C448.38,-66.49 487.72,-44.13 512.44,-30.09"/>
<polygon fill="green" stroke="green" stroke-width="0.38" points="514.17,-33.13 521.13,-25.14 510.71,-27.04 514.17,-33.13"/>
</g>
<!-- 318&#45;&gt;3 -->
<g id="edge26" class="edge">
<title>318&#45;&gt;3</title>
<path fill="none" stroke="green" stroke-width="0.16" d="M420.53,-75.63C433.18,-63.62 450.24,-47.42 463.17,-35.14"/>
<polygon fill="green" stroke="green" stroke-width="0.16" points="465.78,-37.49 470.62,-28.07 460.96,-32.42 465.78,-37.49"/>
</g>
<!-- 319&#45;&gt;0 -->
<g id="edge1" class="edge">
<title>319&#45;&gt;0</title>
<path fill="none" stroke="green" stroke-width="0.24" d="M489.06,-78.17C470.53,-65.05 443.01,-45.58 424.11,-32.2"/>
<polygon fill="green" stroke="green" stroke-width="0.24" points="426.03,-29.27 415.85,-26.35 421.99,-34.99 426.03,-29.27"/>
</g>
<!-- 319&#45;&gt;1 -->
<g id="edge12" class="edge">
<title>319&#45;&gt;1</title>
<path fill="none" stroke="green" stroke-width="0.34" d="M488.85,-78.78C482.93,-75.15 476.34,-71.44 470,-68.53 425.03,-47.88 369.35,-31.88 337.53,-23.57"/>
<polygon fill="green" stroke="green" stroke-width="0.34" points="338.26,-20.15 327.7,-21.06 336.52,-26.93 338.26,-20.15"/>
</g>
<!-- 319&#45;&gt;2 -->
<g id="edge2" class="edge">
<title>319&#45;&gt;2</title>
<path fill="none" stroke="green" stroke-width="0.13" d="M516.8,-69.77C519.89,-60.86 523.44,-50.61 526.59,-41.54"/>
<polygon fill="green" stroke="green" stroke-width="0.13" points="529.95,-42.53 529.91,-31.94 523.33,-40.24 529.95,-42.53"/>
</g>
<!-- 319&#45;&gt;3 -->
<g id="edge4" class="edge">
<title>319&#45;&gt;3</title>
<path fill="none" stroke="green" stroke-width="0.61" d="M500.9,-69.77C497.69,-60.86 494,-50.61 490.74,-41.54"/>
<polygon fill="green" stroke="green" stroke-width="0.61" points="493.96,-40.16 487.28,-31.94 487.37,-42.53 493.96,-40.16"/>
</g>
</g>
</svg>
