<?xml version="1.0" encoding="UTF-8" standalone="no"?>
<!DOCTYPE svg PUBLIC "-//W3C//DTD SVG 1.1//EN"
 "http://www.w3.org/Graphics/SVG/1.1/DTD/svg11.dtd">
<!-- Generated by graphviz version 2.43.0 (0)
 -->
<!-- Title: %3 Pages: 1 -->
<svg width="863pt" height="228pt"
 viewBox="0.00 0.00 863.00 228.11" xmlns="http://www.w3.org/2000/svg" xmlns:xlink="http://www.w3.org/1999/xlink">
<g id="graph0" class="graph" transform="scale(1 1) rotate(0) translate(4 224.11)">
<title>%3</title>
<polygon fill="white" stroke="transparent" points="-4,4 -4,-224.11 859,-224.11 859,4 -4,4"/>
<!-- angle closest rock -->
<g id="node1" class="node">
<title>angle closest rock</title>
<polygon fill="lightgray" stroke="black" points="100,-143.99 0,-143.99 0,-125.99 100,-125.99 100,-143.99"/>
<text text-anchor="middle" x="50" y="-132.79" font-family="Times,serif" font-size="9.00">angle closest rock</text>
</g>
<!-- RIGHT -->
<g id="node10" class="node">
<title>RIGHT</title>
<ellipse fill="lightblue" stroke="black" cx="367" cy="-33.94" rx="33.88" ry="33.88"/>
<text text-anchor="middle" x="367" y="-31.74" font-family="Times,serif" font-size="9.00">RIGHT</text>
</g>
<!-- angle closest rock&#45;&gt;RIGHT -->
<g id="edge1" class="edge">
<title>angle closest rock&#45;&gt;RIGHT</title>
<path fill="none" stroke="red" stroke-width="0.19" d="M65.2,-125.92C77.97,-119.37 96.83,-110.21 114,-103.88 185.94,-77.39 272.71,-55.92 323.67,-44.33"/>
<polygon fill="red" stroke="red" stroke-width="0.19" points="324.69,-47.68 333.68,-42.07 323.15,-40.86 324.69,-47.68"/>
</g>
<!-- distance closest rock -->
<g id="node2" class="node">
<title>distance closest rock</title>
<polygon fill="lightgray" stroke="black" points="415.5,-220.11 302.5,-220.11 302.5,-202.11 415.5,-202.11 415.5,-220.11"/>
<text text-anchor="middle" x="359" y="-208.91" font-family="Times,serif" font-size="9.00">distance closest rock</text>
</g>
<!-- FIRE -->
<g id="node12" class="node">
<title>FIRE</title>
<ellipse fill="lightblue" stroke="black" cx="412" cy="-134.99" rx="28.07" ry="28.07"/>
<text text-anchor="middle" x="412" y="-132.79" font-family="Times,serif" font-size="9.00">FIRE</text>
</g>
<!-- distance closest rock&#45;&gt;FIRE -->
<g id="edge7" class="edge">
<title>distance closest rock&#45;&gt;FIRE</title>
<path fill="none" stroke="green" stroke-width="0.53" d="M364.87,-201.89C370.98,-193.36 380.9,-179.49 390.07,-166.67"/>
<polygon fill="green" stroke="green" stroke-width="0.53" points="392.96,-168.63 395.93,-158.46 387.27,-164.56 392.96,-168.63"/>
</g>
<!-- angle ship -->
<g id="node3" class="node">
<title>angle ship</title>
<polygon fill="lightgray" stroke="black" points="498.5,-220.11 433.5,-220.11 433.5,-202.11 498.5,-202.11 498.5,-220.11"/>
<text text-anchor="middle" x="466" y="-208.91" font-family="Times,serif" font-size="9.00">angle ship</text>
</g>
<!-- angle ship&#45;&gt;FIRE -->
<g id="edge9" class="edge">
<title>angle ship&#45;&gt;FIRE</title>
<path fill="none" stroke="green" stroke-width="1.18" d="M460.01,-201.89C453.8,-193.36 443.69,-179.49 434.35,-166.67"/>
<polygon fill="green" stroke="green" stroke-width="1.18" points="437.09,-164.48 428.37,-158.46 431.43,-168.6 437.09,-164.48"/>
</g>
<!-- angle closest rock (OLD) -->
<g id="node4" class="node">
<title>angle closest rock (OLD)</title>
<polygon fill="lightgray" stroke="black" points="175.5,-220.11 44.5,-220.11 44.5,-202.11 175.5,-202.11 175.5,-220.11"/>
<text text-anchor="middle" x="110" y="-208.91" font-family="Times,serif" font-size="9.00">angle closest rock (OLD)</text>
</g>
<!-- LEFT -->
<g id="node9" class="node">
<title>LEFT</title>
<ellipse fill="lightblue" stroke="black" cx="185" cy="-134.99" rx="28.98" ry="28.98"/>
<text text-anchor="middle" x="185" y="-132.79" font-family="Times,serif" font-size="9.00">LEFT</text>
</g>
<!-- angle closest rock (OLD)&#45;&gt;LEFT -->
<g id="edge6" class="edge">
<title>angle closest rock (OLD)&#45;&gt;LEFT</title>
<path fill="none" stroke="red" stroke-width="1.34" d="M118.31,-201.89C127.71,-192.61 143.5,-177 157.36,-163.3"/>
<polygon fill="red" stroke="red" stroke-width="1.34" points="160.16,-165.46 164.81,-155.94 155.24,-160.48 160.16,-165.46"/>
</g>
<!-- angle closest rock (OLD)&#45;&gt;RIGHT -->
<g id="edge8" class="edge">
<title>angle closest rock (OLD)&#45;&gt;RIGHT</title>
<path fill="none" stroke="green" stroke-width="2.02" d="M110.44,-201.88C111.95,-182.1 118.53,-131.47 147,-103.88 194.9,-57.47 273.66,-42.27 322.81,-37.31"/>
<polygon fill="green" stroke="green" stroke-width="2.02" points="323.18,-40.79 332.83,-36.4 322.55,-33.82 323.18,-40.79"/>
</g>
<!-- distance closest rock (OLD) -->
<g id="node5" class="node">
<title>distance closest rock (OLD)</title>
<polygon fill="lightgray" stroke="black" points="661.5,-220.11 516.5,-220.11 516.5,-202.11 661.5,-202.11 661.5,-220.11"/>
<text text-anchor="middle" x="589" y="-208.91" font-family="Times,serif" font-size="9.00">distance closest rock (OLD)</text>
</g>
<!-- distance closest rock (OLD)&#45;&gt;FIRE -->
<g id="edge5" class="edge">
<title>distance closest rock (OLD)&#45;&gt;FIRE</title>
<path fill="none" stroke="green" stroke-width="0.86" d="M569.72,-202.04C540.36,-189.74 483.97,-166.13 447.18,-150.72"/>
<polygon fill="green" stroke="green" stroke-width="0.86" points="448.39,-147.44 437.82,-146.81 445.69,-153.9 448.39,-147.44"/>
</g>
<!-- 1408 -->
<g id="node13" class="node">
<title>1408</title>
<ellipse fill="white" stroke="black" cx="589" cy="-134.99" rx="28.98" ry="28.98"/>
<text text-anchor="middle" x="589" y="-132.79" font-family="Times,serif" font-size="9.00">1408</text>
</g>
<!-- distance closest rock (OLD)&#45;&gt;1408 -->
<g id="edge14" class="edge">
<title>distance closest rock (OLD)&#45;&gt;1408</title>
<path fill="none" stroke="green" stroke-width="0.42" d="M589,-201.89C589,-194.98 589,-184.57 589,-174.04"/>
<polygon fill="green" stroke="green" stroke-width="0.42" points="592.5,-174.04 589,-164.04 585.5,-174.04 592.5,-174.04"/>
</g>
<!-- angle ship (OLD) -->
<g id="node6" class="node">
<title>angle ship (OLD)</title>
<polygon fill="lightgray" stroke="black" points="855,-220.11 759,-220.11 759,-202.11 855,-202.11 855,-220.11"/>
<text text-anchor="middle" x="807" y="-208.91" font-family="Times,serif" font-size="9.00">angle ship (OLD)</text>
</g>
<!-- two valid values -->
<g id="node7" class="node">
<title>two valid values</title>
<polygon fill="lightgray" stroke="black" points="284.5,-220.11 193.5,-220.11 193.5,-202.11 284.5,-202.11 284.5,-220.11"/>
<text text-anchor="middle" x="239" y="-208.91" font-family="Times,serif" font-size="9.00">two valid values</text>
</g>
<!-- two valid values&#45;&gt;LEFT -->
<g id="edge4" class="edge">
<title>two valid values&#45;&gt;LEFT</title>
<path fill="none" stroke="green" stroke-width="0.68" d="M233.01,-201.89C226.84,-193.42 216.84,-179.69 207.55,-166.95"/>
<polygon fill="green" stroke="green" stroke-width="0.68" points="210.32,-164.8 201.6,-158.78 204.66,-168.92 210.32,-164.8"/>
</g>
<!-- DASH -->
<g id="node11" class="node">
<title>DASH</title>
<ellipse fill="lightblue" stroke="black" cx="263" cy="-134.99" rx="31.23" ry="31.23"/>
<text text-anchor="middle" x="263" y="-132.79" font-family="Times,serif" font-size="9.00">DASH</text>
</g>
<!-- two valid values&#45;&gt;DASH -->
<g id="edge2" class="edge">
<title>two valid values&#45;&gt;DASH</title>
<path fill="none" stroke="red" stroke-width="0.36" d="M241.66,-201.89C243.88,-195.03 247.23,-184.7 250.61,-174.25"/>
<polygon fill="red" stroke="red" stroke-width="0.36" points="253.95,-175.3 253.7,-164.71 247.29,-173.14 253.95,-175.3"/>
</g>
<!-- two valid values&#45;&gt;FIRE -->
<g id="edge3" class="edge">
<title>two valid values&#45;&gt;FIRE</title>
<path fill="none" stroke="green" stroke-width="0.78" d="M257.84,-202.04C286.26,-189.86 340.58,-166.59 376.55,-151.18"/>
<polygon fill="green" stroke="green" stroke-width="0.78" points="378.36,-154.21 386.17,-147.06 375.6,-147.78 378.36,-154.21"/>
</g>
<!-- can shoot -->
<g id="node8" class="node">
<title>can shoot</title>
<polygon fill="lightgray" stroke="black" points="740.5,-220.11 679.5,-220.11 679.5,-202.11 740.5,-202.11 740.5,-220.11"/>
<text text-anchor="middle" x="710" y="-208.91" font-family="Times,serif" font-size="9.00">can shoot</text>
</g>
<!-- can shoot&#45;&gt;1408 -->
<g id="edge10" class="edge">
<title>can shoot&#45;&gt;1408</title>
<path fill="none" stroke="green" stroke-width="0.13" d="M696.59,-201.89C678.72,-190.95 646.52,-171.23 621.99,-156.2"/>
<polygon fill="green" stroke="green" stroke-width="0.13" points="623.69,-153.14 613.34,-150.9 620.04,-159.11 623.69,-153.14"/>
</g>
<!-- 1434 -->
<g id="node14" class="node">
<title>1434</title>
<ellipse fill="white" stroke="black" cx="687" cy="-134.99" rx="28.98" ry="28.98"/>
<text text-anchor="middle" x="687" y="-132.79" font-family="Times,serif" font-size="9.00">1434</text>
</g>
<!-- can shoot&#45;&gt;1434 -->
<g id="edge12" class="edge">
<title>can shoot&#45;&gt;1434</title>
<path fill="none" stroke="green" stroke-width="0.34" d="M707.45,-201.89C705.21,-194.66 701.77,-183.6 698.36,-172.6"/>
<polygon fill="green" stroke="green" stroke-width="0.34" points="701.7,-171.55 695.39,-163.03 695.01,-173.62 701.7,-171.55"/>
</g>
<!-- 1408&#45;&gt;RIGHT -->
<g id="edge11" class="edge">
<title>1408&#45;&gt;RIGHT</title>
<path fill="none" stroke="green" stroke-width="0.13" d="M562.66,-122.24C524.17,-105.07 452.23,-72.97 407.12,-52.84"/>
<polygon fill="green" stroke="green" stroke-width="0.13" points="408.49,-49.62 397.93,-48.74 405.63,-56.01 408.49,-49.62"/>
</g>
<!-- 1434&#45;&gt;RIGHT -->
<g id="edge13" class="edge">
<title>1434&#45;&gt;RIGHT</title>
<path fill="none" stroke="green" stroke-width="0.46" d="M662.12,-120.06C651.52,-114.51 638.88,-108.38 627,-103.88 552.9,-75.81 462.8,-54.66 410.47,-43.59"/>
<polygon fill="green" stroke="green" stroke-width="0.46" points="411.02,-40.13 400.52,-41.51 409.59,-46.99 411.02,-40.13"/>
</g>
</g>
</svg>
