<?xml version="1.0" encoding="UTF-8" standalone="no"?>
<!DOCTYPE svg PUBLIC "-//W3C//DTD SVG 1.1//EN"
 "http://www.w3.org/Graphics/SVG/1.1/DTD/svg11.dtd">
<!-- Generated by graphviz version 2.43.0 (0)
 -->
<!-- Title: %3 Pages: 1 -->
<svg width="592pt" height="510pt"
 viewBox="0.00 0.00 591.77 510.06" xmlns="http://www.w3.org/2000/svg" xmlns:xlink="http://www.w3.org/1999/xlink">
<g id="graph0" class="graph" transform="scale(1 1) rotate(0) translate(4 506.06)">
<title>%3</title>
<polygon fill="white" stroke="transparent" points="-4,4 -4,-506.06 587.77,-506.06 587.77,4 -4,4"/>
<!-- angle closest rock -->
<g id="node1" class="node">
<title>angle closest rock</title>
<polygon fill="lightgray" stroke="black" points="103.99,-240.1 3.99,-240.1 3.99,-222.1 103.99,-222.1 103.99,-240.1"/>
<text text-anchor="middle" x="53.99" y="-228.9" font-family="Times,serif" font-size="9.00">angle closest rock</text>
</g>
<!-- LEFT -->
<g id="node4" class="node">
<title>LEFT</title>
<ellipse fill="lightblue" stroke="black" cx="28.99" cy="-132.17" rx="28.98" ry="28.98"/>
<text text-anchor="middle" x="28.99" y="-129.97" font-family="Times,serif" font-size="9.00">LEFT</text>
</g>
<!-- angle closest rock&#45;&gt;LEFT -->
<g id="edge2" class="edge">
<title>angle closest rock&#45;&gt;LEFT</title>
<path fill="none" stroke="red" stroke-width="1.05" d="M51.86,-221.83C48.92,-210.42 43.42,-189.12 38.55,-170.25"/>
<polygon fill="red" stroke="red" stroke-width="1.05" points="41.9,-169.19 36.01,-160.38 35.12,-170.94 41.9,-169.19"/>
</g>
<!-- RIGHT -->
<g id="node5" class="node">
<title>RIGHT</title>
<ellipse fill="lightblue" stroke="black" cx="220.99" cy="-132.17" rx="33.88" ry="33.88"/>
<text text-anchor="middle" x="220.99" y="-129.97" font-family="Times,serif" font-size="9.00">RIGHT</text>
</g>
<!-- angle closest rock&#45;&gt;RIGHT -->
<g id="edge7" class="edge">
<title>angle closest rock&#45;&gt;RIGHT</title>
<path fill="none" stroke="green" stroke-width="1.44" d="M67.94,-222C93.02,-207.45 146.5,-176.4 183.11,-155.15"/>
<polygon fill="green" stroke="green" stroke-width="1.44" points="185.13,-158.03 192.03,-149.98 181.62,-151.97 185.13,-158.03"/>
</g>
<!-- 100 -->
<g id="node9" class="node">
<title>100</title>
<ellipse fill="white" stroke="black" cx="100.99" cy="-132.17" rx="25" ry="25"/>
<text text-anchor="middle" x="100.99" y="-129.97" font-family="Times,serif" font-size="9.00">100</text>
</g>
<!-- angle closest rock&#45;&gt;100 -->
<g id="edge3" class="edge">
<title>angle closest rock&#45;&gt;100</title>
<path fill="none" stroke="green" stroke-width="0.4" d="M58,-221.83C64.17,-209.11 76.31,-184.06 86.12,-163.83"/>
<polygon fill="green" stroke="green" stroke-width="0.4" points="89.36,-165.17 90.58,-154.65 83.06,-162.12 89.36,-165.17"/>
</g>
<!-- distance closest rock -->
<g id="node2" class="node">
<title>distance closest rock</title>
<polygon fill="lightgray" stroke="black" points="389.49,-502.06 276.49,-502.06 276.49,-484.06 389.49,-484.06 389.49,-502.06"/>
<text text-anchor="middle" x="332.99" y="-490.86" font-family="Times,serif" font-size="9.00">distance closest rock</text>
</g>
<!-- 1792 -->
<g id="node8" class="node">
<title>1792</title>
<ellipse fill="white" stroke="black" cx="150.99" cy="-231.1" rx="28.98" ry="28.98"/>
<text text-anchor="middle" x="150.99" y="-228.9" font-family="Times,serif" font-size="9.00">1792</text>
</g>
<!-- distance closest rock&#45;&gt;1792 -->
<g id="edge23" class="edge">
<title>distance closest rock&#45;&gt;1792</title>
<path fill="none" stroke="green" stroke-width="0.46" d="M276.19,-488.63C246.04,-483.77 210.81,-472.73 188.99,-448.06 145.49,-398.88 143.36,-317.96 146.59,-270.37"/>
<polygon fill="green" stroke="green" stroke-width="0.46" points="150.1,-270.42 147.4,-260.18 143.12,-269.87 150.1,-270.42"/>
</g>
<!-- 1167 -->
<g id="node11" class="node">
<title>1167</title>
<ellipse fill="white" stroke="black" cx="342.99" cy="-325.08" rx="28.98" ry="28.98"/>
<text text-anchor="middle" x="342.99" y="-322.88" font-family="Times,serif" font-size="9.00">1167</text>
</g>
<!-- distance closest rock&#45;&gt;1167 -->
<g id="edge17" class="edge">
<title>distance closest rock&#45;&gt;1167</title>
<path fill="none" stroke="green" stroke-width="0.16" d="M343.34,-483.91C352.59,-475.92 365.5,-462.81 370.99,-448.06 381.69,-419.29 372.06,-385.14 361.28,-360.3"/>
<polygon fill="green" stroke="green" stroke-width="0.16" points="364.33,-358.55 356.96,-350.93 357.97,-361.48 364.33,-358.55"/>
</g>
<!-- 272 -->
<g id="node12" class="node">
<title>272</title>
<ellipse fill="white" stroke="black" cx="222.99" cy="-419.06" rx="25" ry="25"/>
<text text-anchor="middle" x="222.99" y="-416.86" font-family="Times,serif" font-size="9.00">272</text>
</g>
<!-- distance closest rock&#45;&gt;272 -->
<g id="edge8" class="edge">
<title>distance closest rock&#45;&gt;272</title>
<path fill="none" stroke="red" stroke-width="0.15" d="M319.47,-484.05C305.06,-475.43 281.65,-461.18 261.99,-448.06 258.4,-445.66 254.67,-443.09 251,-440.51"/>
<polygon fill="red" stroke="red" stroke-width="0.15" points="252.83,-437.51 242.65,-434.57 248.77,-443.22 252.83,-437.51"/>
</g>
<!-- 49 -->
<g id="node13" class="node">
<title>49</title>
<ellipse fill="white" stroke="black" cx="447.99" cy="-31.11" rx="20.51" ry="20.51"/>
<text text-anchor="middle" x="447.99" y="-28.91" font-family="Times,serif" font-size="9.00">49</text>
</g>
<!-- distance closest rock&#45;&gt;49 -->
<g id="edge4" class="edge">
<title>distance closest rock&#45;&gt;49</title>
<path fill="none" stroke="green" stroke-width="0.33" d="M389.67,-488.39C449.09,-483.32 536.97,-471.94 559.99,-448.06 598.06,-408.55 578.99,-380.95 578.99,-326.08 578.99,-326.08 578.99,-326.08 578.99,-230.1 578.99,-153.27 509.54,-83.36 471.77,-51.02"/>
<polygon fill="green" stroke="green" stroke-width="0.33" points="473.71,-48.08 463.79,-44.34 469.22,-53.44 473.71,-48.08"/>
</g>
<!-- 1521 -->
<g id="node15" class="node">
<title>1521</title>
<ellipse fill="white" stroke="black" cx="332.99" cy="-419.06" rx="28.98" ry="28.98"/>
<text text-anchor="middle" x="332.99" y="-416.86" font-family="Times,serif" font-size="9.00">1521</text>
</g>
<!-- distance closest rock&#45;&gt;1521 -->
<g id="edge19" class="edge">
<title>distance closest rock&#45;&gt;1521</title>
<path fill="none" stroke="green" stroke-width="0.49" d="M332.99,-483.8C332.99,-477.33 332.99,-467.83 332.99,-458.12"/>
<polygon fill="green" stroke="green" stroke-width="0.49" points="336.49,-458.06 332.99,-448.06 329.49,-458.06 336.49,-458.06"/>
</g>
<!-- 248 -->
<g id="node17" class="node">
<title>248</title>
<ellipse fill="white" stroke="black" cx="442.99" cy="-419.06" rx="25" ry="25"/>
<text text-anchor="middle" x="442.99" y="-416.86" font-family="Times,serif" font-size="9.00">248</text>
</g>
<!-- distance closest rock&#45;&gt;248 -->
<g id="edge5" class="edge">
<title>distance closest rock&#45;&gt;248</title>
<path fill="none" stroke="red" stroke-width="0.24" d="M346.51,-484.05C360.92,-475.43 384.33,-461.18 403.99,-448.06 407.58,-445.66 411.31,-443.09 414.98,-440.51"/>
<polygon fill="red" stroke="red" stroke-width="0.24" points="417.22,-443.22 423.33,-434.57 413.16,-437.51 417.22,-443.22"/>
</g>
<!-- 861 -->
<g id="node19" class="node">
<title>861</title>
<ellipse fill="white" stroke="black" cx="289.99" cy="-231.1" rx="25" ry="25"/>
<text text-anchor="middle" x="289.99" y="-228.9" font-family="Times,serif" font-size="9.00">861</text>
</g>
<!-- distance closest rock&#45;&gt;861 -->
<g id="edge16" class="edge">
<title>distance closest rock&#45;&gt;861</title>
<path fill="none" stroke="red" stroke-width="0.24" d="M322.72,-483.89C313.52,-475.87 300.65,-462.75 294.99,-448.06 271.51,-387.11 277.66,-309.15 284,-265.53"/>
<polygon fill="red" stroke="red" stroke-width="0.24" points="287.48,-265.88 285.55,-255.46 280.56,-264.81 287.48,-265.88"/>
</g>
<!-- angle ship -->
<g id="node3" class="node">
<title>angle ship</title>
<polygon fill="lightgray" stroke="black" points="550.49,-428.06 485.49,-428.06 485.49,-410.06 550.49,-410.06 550.49,-428.06"/>
<text text-anchor="middle" x="517.99" y="-416.86" font-family="Times,serif" font-size="9.00">angle ship</text>
</g>
<!-- FIRE -->
<g id="node7" class="node">
<title>FIRE</title>
<ellipse fill="lightblue" stroke="black" cx="442.99" cy="-325.08" rx="28.07" ry="28.07"/>
<text text-anchor="middle" x="442.99" y="-322.88" font-family="Times,serif" font-size="9.00">FIRE</text>
</g>
<!-- angle ship&#45;&gt;FIRE -->
<g id="edge1" class="edge">
<title>angle ship&#45;&gt;FIRE</title>
<path fill="none" stroke="green" stroke-width="0.34" d="M511.34,-409.9C501.42,-397.74 482.28,-374.27 466.78,-355.25"/>
<polygon fill="green" stroke="green" stroke-width="0.34" points="469.42,-352.96 460.39,-347.42 464,-357.38 469.42,-352.96"/>
</g>
<!-- 1732 -->
<g id="node10" class="node">
<title>1732</title>
<ellipse fill="white" stroke="black" cx="517.99" cy="-325.08" rx="28.98" ry="28.98"/>
<text text-anchor="middle" x="517.99" y="-322.88" font-family="Times,serif" font-size="9.00">1732</text>
</g>
<!-- angle ship&#45;&gt;1732 -->
<g id="edge22" class="edge">
<title>angle ship&#45;&gt;1732</title>
<path fill="none" stroke="green" stroke-width="0.42" d="M517.99,-409.9C517.99,-399.63 517.99,-381.29 517.99,-364.38"/>
<polygon fill="green" stroke="green" stroke-width="0.42" points="521.49,-364.12 517.99,-354.12 514.49,-364.12 521.49,-364.12"/>
</g>
<!-- DASH -->
<g id="node6" class="node">
<title>DASH</title>
<ellipse fill="lightblue" stroke="black" cx="153.99" cy="-31.11" rx="31.23" ry="31.23"/>
<text text-anchor="middle" x="153.99" y="-28.91" font-family="Times,serif" font-size="9.00">DASH</text>
</g>
<!-- 1792&#45;&gt;DASH -->
<g id="edge24" class="edge">
<title>1792&#45;&gt;DASH</title>
<path fill="none" stroke="red" stroke-width="0.62" d="M151.42,-201.73C151.93,-167.92 152.79,-111.16 153.38,-72.7"/>
<polygon fill="red" stroke="red" stroke-width="0.62" points="156.88,-72.43 153.53,-62.37 149.88,-72.32 156.88,-72.43"/>
</g>
<!-- 100&#45;&gt;DASH -->
<g id="edge10" class="edge">
<title>100&#45;&gt;DASH</title>
<path fill="none" stroke="red" stroke-width="0.19" d="M112.49,-109.67C119.03,-97.44 127.4,-81.82 134.9,-67.8"/>
<polygon fill="red" stroke="red" stroke-width="0.19" points="138.04,-69.34 139.68,-58.87 131.87,-66.03 138.04,-69.34"/>
</g>
<!-- 886 -->
<g id="node16" class="node">
<title>886</title>
<ellipse fill="white" stroke="black" cx="318.99" cy="-132.17" rx="25" ry="25"/>
<text text-anchor="middle" x="318.99" y="-129.97" font-family="Times,serif" font-size="9.00">886</text>
</g>
<!-- 1167&#45;&gt;886 -->
<g id="edge18" class="edge">
<title>1167&#45;&gt;886</title>
<path fill="none" stroke="green" stroke-width="1.79" d="M339.45,-295.91C335.14,-261.64 327.88,-203.83 323.26,-167.13"/>
<polygon fill="green" stroke="green" stroke-width="1.79" points="326.7,-166.41 321.98,-156.93 319.75,-167.29 326.7,-166.41"/>
</g>
<!-- 146 -->
<g id="node14" class="node">
<title>146</title>
<ellipse fill="white" stroke="black" cx="222.99" cy="-325.08" rx="25" ry="25"/>
<text text-anchor="middle" x="222.99" y="-322.88" font-family="Times,serif" font-size="9.00">146</text>
</g>
<!-- 272&#45;&gt;146 -->
<g id="edge12" class="edge">
<title>272&#45;&gt;146</title>
<path fill="none" stroke="red" stroke-width="0.2" d="M222.99,-393.9C222.99,-383.65 222.99,-371.52 222.99,-360.38"/>
<polygon fill="red" stroke="red" stroke-width="0.2" points="226.49,-360.09 222.99,-350.09 219.49,-360.09 226.49,-360.09"/>
</g>
<!-- 985 -->
<g id="node18" class="node">
<title>985</title>
<ellipse fill="white" stroke="black" cx="222.99" cy="-231.1" rx="25" ry="25"/>
<text text-anchor="middle" x="222.99" y="-228.9" font-family="Times,serif" font-size="9.00">985</text>
</g>
<!-- 146&#45;&gt;985 -->
<g id="edge21" class="edge">
<title>146&#45;&gt;985</title>
<path fill="none" stroke="red" stroke-width="0.52" d="M222.99,-299.91C222.99,-289.67 222.99,-277.54 222.99,-266.4"/>
<polygon fill="red" stroke="red" stroke-width="0.52" points="226.49,-266.1 222.99,-256.11 219.49,-266.11 226.49,-266.1"/>
</g>
<!-- 146&#45;&gt;861 -->
<g id="edge9" class="edge">
<title>146&#45;&gt;861</title>
<path fill="none" stroke="red" stroke-width="0.21" d="M237.2,-304.57C246.71,-291.53 259.35,-274.16 269.89,-259.7"/>
<polygon fill="red" stroke="red" stroke-width="0.21" points="272.74,-261.72 275.8,-251.58 267.09,-257.6 272.74,-261.72"/>
</g>
<!-- 1521&#45;&gt;1167 -->
<g id="edge20" class="edge">
<title>1521&#45;&gt;1167</title>
<path fill="none" stroke="red" stroke-width="0.28" d="M336.05,-389.97C336.94,-381.76 337.93,-372.66 338.87,-363.96"/>
<polygon fill="red" stroke="red" stroke-width="0.28" points="342.35,-364.33 339.96,-354.01 335.4,-363.57 342.35,-364.33"/>
</g>
<!-- 886&#45;&gt;DASH -->
<g id="edge15" class="edge">
<title>886&#45;&gt;DASH</title>
<path fill="none" stroke="red" stroke-width="0.34" d="M298.09,-118.62C270.75,-102.2 222.42,-73.19 189.33,-53.33"/>
<polygon fill="red" stroke="red" stroke-width="0.34" points="190.81,-50.13 180.43,-47.99 187.21,-56.13 190.81,-50.13"/>
</g>
<!-- 886&#45;&gt;49 -->
<g id="edge11" class="edge">
<title>886&#45;&gt;49</title>
<path fill="none" stroke="red" stroke-width="0.15" d="M338.3,-116.34C361.19,-98.76 399.33,-69.48 424.06,-50.49"/>
<polygon fill="red" stroke="red" stroke-width="0.15" points="426.41,-53.1 432.21,-44.23 422.14,-47.55 426.41,-53.1"/>
</g>
<!-- 248&#45;&gt;FIRE -->
<g id="edge6" class="edge">
<title>248&#45;&gt;FIRE</title>
<path fill="none" stroke="green" stroke-width="1.16" d="M442.99,-393.9C442.99,-384.73 442.99,-374.06 442.99,-363.93"/>
<polygon fill="green" stroke="green" stroke-width="1.16" points="446.49,-363.66 442.99,-353.66 439.49,-363.66 446.49,-363.66"/>
</g>
<!-- 985&#45;&gt;RIGHT -->
<g id="edge13" class="edge">
<title>985&#45;&gt;RIGHT</title>
<path fill="none" stroke="red" stroke-width="0.61" d="M222.5,-206.14C222.31,-197.14 222.09,-186.61 221.88,-176.4"/>
<polygon fill="red" stroke="red" stroke-width="0.61" points="225.38,-176.28 221.68,-166.36 218.38,-176.43 225.38,-176.28"/>
</g>
<!-- 861&#45;&gt;886 -->
<g id="edge14" class="edge">
<title>861&#45;&gt;886</title>
<path fill="none" stroke="red" stroke-width="0.5" d="M296.86,-207.13C300.55,-194.81 305.15,-179.43 309.2,-165.89"/>
<polygon fill="red" stroke="red" stroke-width="0.5" points="312.65,-166.56 312.17,-155.97 305.95,-164.55 312.65,-166.56"/>
</g>
</g>
</svg>
