<?xml version="1.0" encoding="UTF-8" standalone="no"?>
<!DOCTYPE svg PUBLIC "-//W3C//DTD SVG 1.1//EN"
 "http://www.w3.org/Graphics/SVG/1.1/DTD/svg11.dtd">
<!-- Generated by graphviz version 2.43.0 (0)
 -->
<!-- Title: %3 Pages: 1 -->
<svg width="998pt" height="406pt"
 viewBox="0.00 0.00 998.45 406.17" xmlns="http://www.w3.org/2000/svg" xmlns:xlink="http://www.w3.org/1999/xlink">
<g id="graph0" class="graph" transform="scale(1 1) rotate(0) translate(4 402.17)">
<title>%3</title>
<polygon fill="white" stroke="transparent" points="-4,4 -4,-402.17 994.45,-402.17 994.45,4 -4,4"/>
<!-- angle closest rock -->
<g id="node1" class="node">
<title>angle closest rock</title>
<polygon fill="lightgray" stroke="black" points="122.45,-233.74 22.45,-233.74 22.45,-215.74 122.45,-215.74 122.45,-233.74"/>
<text text-anchor="middle" x="72.45" y="-222.54" font-family="Times,serif" font-size="9.00">angle closest rock</text>
</g>
<!-- DASH -->
<g id="node11" class="node">
<title>DASH</title>
<ellipse fill="lightblue" stroke="black" cx="199.45" cy="-123.68" rx="31.23" ry="31.23"/>
<text text-anchor="middle" x="199.45" y="-121.48" font-family="Times,serif" font-size="9.00">DASH</text>
</g>
<!-- angle closest rock&#45;&gt;DASH -->
<g id="edge2" class="edge">
<title>angle closest rock&#45;&gt;DASH</title>
<path fill="none" stroke="green" stroke-width="0.23" d="M82.84,-215.63C100.99,-201.48 139.16,-171.71 166.9,-150.07"/>
<polygon fill="green" stroke="green" stroke-width="0.23" points="169.4,-152.55 175.14,-143.64 165.1,-147.03 169.4,-152.55"/>
</g>
<!-- distance closest rock -->
<g id="node2" class="node">
<title>distance closest rock</title>
<polygon fill="lightgray" stroke="black" points="707.95,-233.74 594.95,-233.74 594.95,-215.74 707.95,-215.74 707.95,-233.74"/>
<text text-anchor="middle" x="651.45" y="-222.54" font-family="Times,serif" font-size="9.00">distance closest rock</text>
</g>
<!-- LEFT -->
<g id="node9" class="node">
<title>LEFT</title>
<ellipse fill="lightblue" stroke="black" cx="516.45" cy="-123.68" rx="28.98" ry="28.98"/>
<text text-anchor="middle" x="516.45" y="-121.48" font-family="Times,serif" font-size="9.00">LEFT</text>
</g>
<!-- distance closest rock&#45;&gt;LEFT -->
<g id="edge4" class="edge">
<title>distance closest rock&#45;&gt;LEFT</title>
<path fill="none" stroke="green" stroke-width="0.35" d="M640.4,-215.63C620.4,-200.95 577.51,-169.48 547.82,-147.7"/>
<polygon fill="green" stroke="green" stroke-width="0.35" points="549.59,-144.66 539.46,-141.56 545.45,-150.3 549.59,-144.66"/>
</g>
<!-- 120 -->
<g id="node17" class="node">
<title>120</title>
<ellipse fill="white" stroke="black" cx="651.45" cy="-123.68" rx="25" ry="25"/>
<text text-anchor="middle" x="651.45" y="-121.48" font-family="Times,serif" font-size="9.00">120</text>
</g>
<!-- distance closest rock&#45;&gt;120 -->
<g id="edge11" class="edge">
<title>distance closest rock&#45;&gt;120</title>
<path fill="none" stroke="red" stroke-width="0.43" d="M651.45,-215.63C651.45,-203.27 651.45,-179.02 651.45,-158.66"/>
<polygon fill="red" stroke="red" stroke-width="0.43" points="654.95,-158.46 651.45,-148.46 647.95,-158.46 654.95,-158.46"/>
</g>
<!-- angle ship -->
<g id="node3" class="node">
<title>angle ship</title>
<polygon fill="lightgray" stroke="black" points="790.95,-233.74 725.95,-233.74 725.95,-215.74 790.95,-215.74 790.95,-233.74"/>
<text text-anchor="middle" x="758.45" y="-222.54" font-family="Times,serif" font-size="9.00">angle ship</text>
</g>
<!-- FIRE -->
<g id="node12" class="node">
<title>FIRE</title>
<ellipse fill="lightblue" stroke="black" cx="817.45" cy="-28.28" rx="28.07" ry="28.07"/>
<text text-anchor="middle" x="817.45" y="-26.08" font-family="Times,serif" font-size="9.00">FIRE</text>
</g>
<!-- angle ship&#45;&gt;FIRE -->
<g id="edge8" class="edge">
<title>angle ship&#45;&gt;FIRE</title>
<path fill="none" stroke="green" stroke-width="0.16" d="M759.14,-215.53C761.09,-194.53 767.57,-137.36 783.45,-92.57 787.17,-82.06 792.45,-71.17 797.73,-61.45"/>
<polygon fill="green" stroke="green" stroke-width="0.16" points="800.89,-62.97 802.75,-52.53 794.79,-59.53 800.89,-62.97"/>
</g>
<!-- 605 -->
<g id="node18" class="node">
<title>605</title>
<ellipse fill="white" stroke="black" cx="817.45" cy="-123.68" rx="25" ry="25"/>
<text text-anchor="middle" x="817.45" y="-121.48" font-family="Times,serif" font-size="9.00">605</text>
</g>
<!-- angle ship&#45;&gt;605 -->
<g id="edge17" class="edge">
<title>angle ship&#45;&gt;605</title>
<path fill="none" stroke="green" stroke-width="0.48" d="M763.28,-215.63C771.22,-202.29 787.44,-175.07 800.06,-153.87"/>
<polygon fill="green" stroke="green" stroke-width="0.48" points="803.11,-155.59 805.22,-145.21 797.1,-152.01 803.11,-155.59"/>
</g>
<!-- angle closest rock (OLD) -->
<g id="node4" class="node">
<title>angle closest rock (OLD)</title>
<polygon fill="lightgray" stroke="black" points="424.95,-398.17 293.95,-398.17 293.95,-380.17 424.95,-380.17 424.95,-398.17"/>
<text text-anchor="middle" x="359.45" y="-386.97" font-family="Times,serif" font-size="9.00">angle closest rock (OLD)</text>
</g>
<!-- angle closest rock (OLD)&#45;&gt;LEFT -->
<g id="edge9" class="edge">
<title>angle closest rock (OLD)&#45;&gt;LEFT</title>
<path fill="none" stroke="red" stroke-width="0.75" d="M374.98,-380.09C388.76,-372.32 408.79,-359.52 422.45,-344.17 470.08,-290.66 496.24,-209.37 508.21,-162.19"/>
<polygon fill="red" stroke="red" stroke-width="0.75" points="511.64,-162.93 510.62,-152.38 504.84,-161.26 511.64,-162.93"/>
</g>
<!-- 267 -->
<g id="node16" class="node">
<title>267</title>
<ellipse fill="white" stroke="black" cx="232.45" cy="-319.42" rx="25" ry="25"/>
<text text-anchor="middle" x="232.45" y="-317.22" font-family="Times,serif" font-size="9.00">267</text>
</g>
<!-- angle closest rock (OLD)&#45;&gt;267 -->
<g id="edge14" class="edge">
<title>angle closest rock (OLD)&#45;&gt;267</title>
<path fill="none" stroke="green" stroke-width="0.3" d="M344.38,-380.14C324.48,-369.52 288.97,-350.58 263.27,-336.87"/>
<polygon fill="green" stroke="green" stroke-width="0.3" points="264.76,-333.7 254.29,-332.08 261.47,-339.87 264.76,-333.7"/>
</g>
<!-- distance closest rock (OLD) -->
<g id="node5" class="node">
<title>distance closest rock (OLD)</title>
<polygon fill="lightgray" stroke="black" points="458.95,-233.74 313.95,-233.74 313.95,-215.74 458.95,-215.74 458.95,-233.74"/>
<text text-anchor="middle" x="386.45" y="-222.54" font-family="Times,serif" font-size="9.00">distance closest rock (OLD)</text>
</g>
<!-- distance closest rock (OLD)&#45;&gt;LEFT -->
<g id="edge7" class="edge">
<title>distance closest rock (OLD)&#45;&gt;LEFT</title>
<path fill="none" stroke="red" stroke-width="0.22" d="M397.09,-215.63C416.18,-201.08 456.94,-170.02 485.49,-148.27"/>
<polygon fill="red" stroke="red" stroke-width="0.22" points="487.73,-150.97 493.56,-142.12 483.48,-145.4 487.73,-150.97"/>
</g>
<!-- distance closest rock (OLD)&#45;&gt;DASH -->
<g id="edge5" class="edge">
<title>distance closest rock (OLD)&#45;&gt;DASH</title>
<path fill="none" stroke="green" stroke-width="0.38" d="M371.15,-215.63C341.71,-200.04 276.48,-165.49 235.44,-143.74"/>
<polygon fill="green" stroke="green" stroke-width="0.38" points="237.04,-140.63 226.56,-139.04 233.76,-146.82 237.04,-140.63"/>
</g>
<!-- angle ship (OLD) -->
<g id="node6" class="node">
<title>angle ship (OLD)</title>
<polygon fill="lightgray" stroke="black" points="990.45,-233.74 894.45,-233.74 894.45,-215.74 990.45,-215.74 990.45,-233.74"/>
<text text-anchor="middle" x="942.45" y="-222.54" font-family="Times,serif" font-size="9.00">angle ship (OLD)</text>
</g>
<!-- angle ship (OLD)&#45;&gt;FIRE -->
<g id="edge3" class="edge">
<title>angle ship (OLD)&#45;&gt;FIRE</title>
<path fill="none" stroke="green" stroke-width="0.49" d="M943.36,-215.51C945.37,-193.5 948.07,-132.2 921.45,-92.57 905.36,-68.62 876.86,-52.22 853.76,-42.12"/>
<polygon fill="green" stroke="green" stroke-width="0.49" points="854.82,-38.77 844.24,-38.18 852.14,-45.24 854.82,-38.77"/>
</g>
<!-- 646 -->
<g id="node13" class="node">
<title>646</title>
<ellipse fill="white" stroke="black" cx="887.45" cy="-123.68" rx="25" ry="25"/>
<text text-anchor="middle" x="887.45" y="-121.48" font-family="Times,serif" font-size="9.00">646</text>
</g>
<!-- angle ship (OLD)&#45;&gt;646 -->
<g id="edge22" class="edge">
<title>angle ship (OLD)&#45;&gt;646</title>
<path fill="none" stroke="green" stroke-width="0.3" d="M937.95,-215.63C930.62,-202.43 915.74,-175.64 904.03,-154.54"/>
<polygon fill="green" stroke="green" stroke-width="0.3" points="906.98,-152.65 899.07,-145.6 900.86,-156.05 906.98,-152.65"/>
</g>
<!-- two valid values -->
<g id="node7" class="node">
<title>two valid values</title>
<polygon fill="lightgray" stroke="black" points="412.95,-328.42 321.95,-328.42 321.95,-310.42 412.95,-310.42 412.95,-328.42"/>
<text text-anchor="middle" x="367.45" y="-317.22" font-family="Times,serif" font-size="9.00">two valid values</text>
</g>
<!-- RIGHT -->
<g id="node10" class="node">
<title>RIGHT</title>
<ellipse fill="lightblue" stroke="black" cx="842.45" cy="-224.74" rx="33.88" ry="33.88"/>
<text text-anchor="middle" x="842.45" y="-222.54" font-family="Times,serif" font-size="9.00">RIGHT</text>
</g>
<!-- two valid values&#45;&gt;RIGHT -->
<g id="edge6" class="edge">
<title>two valid values&#45;&gt;RIGHT</title>
<path fill="none" stroke="green" stroke-width="0.72" d="M413.04,-315.16C509.53,-307.76 731.2,-288.05 800.45,-258.68 803.43,-257.41 806.39,-255.87 809.26,-254.17"/>
<polygon fill="green" stroke="green" stroke-width="0.72" points="811.22,-257.07 817.61,-248.62 807.34,-251.24 811.22,-257.07"/>
</g>
<!-- two valid values&#45;&gt;DASH -->
<g id="edge10" class="edge">
<title>two valid values&#45;&gt;DASH</title>
<path fill="none" stroke="green" stroke-width="0.15" d="M357.15,-310.33C343.87,-299.54 320.55,-279.38 304.45,-258.68 283.22,-231.39 287.41,-218.29 266.45,-190.79 255.89,-176.93 242.5,-163.15 230.47,-151.78"/>
<polygon fill="green" stroke="green" stroke-width="0.15" points="232.52,-148.91 222.81,-144.68 227.76,-154.05 232.52,-148.91"/>
</g>
<!-- can shoot -->
<g id="node8" class="node">
<title>can shoot</title>
<polygon fill="lightgray" stroke="black" points="576.95,-233.74 515.95,-233.74 515.95,-215.74 576.95,-215.74 576.95,-233.74"/>
<text text-anchor="middle" x="546.45" y="-222.54" font-family="Times,serif" font-size="9.00">can shoot</text>
</g>
<!-- can shoot&#45;&gt;LEFT -->
<g id="edge1" class="edge">
<title>can shoot&#45;&gt;LEFT</title>
<path fill="none" stroke="green" stroke-width="0.31" d="M543.99,-215.63C540.43,-203.85 533.58,-181.25 527.61,-161.53"/>
<polygon fill="green" stroke="green" stroke-width="0.31" points="530.92,-160.4 524.68,-151.85 524.23,-162.43 530.92,-160.4"/>
</g>
<!-- can shoot&#45;&gt;120 -->
<g id="edge16" class="edge">
<title>can shoot&#45;&gt;120</title>
<path fill="none" stroke="red" stroke-width="0.56" d="M555.04,-215.63C570.44,-201.1 603.29,-170.11 626.35,-148.36"/>
<polygon fill="red" stroke="red" stroke-width="0.56" points="628.88,-150.79 633.75,-141.38 624.07,-145.69 628.88,-150.79"/>
</g>
<!-- RIGHT&#45;&gt;605 -->
<g id="edge19" class="edge">
<title>RIGHT&#45;&gt;605</title>
<path fill="none" stroke="green" stroke-width="0.29" d="M834.33,-191.58C831.61,-180.79 828.57,-168.74 825.83,-157.88"/>
<polygon fill="green" stroke="green" stroke-width="0.29" points="829.15,-156.74 823.31,-147.9 822.36,-158.45 829.15,-156.74"/>
</g>
<!-- 646&#45;&gt;FIRE -->
<g id="edge23" class="edge">
<title>646&#45;&gt;FIRE</title>
<path fill="none" stroke="red" stroke-width="0.19" d="M872.94,-103.33C863.5,-90.73 850.99,-74.04 840.24,-59.69"/>
<polygon fill="red" stroke="red" stroke-width="0.19" points="842.95,-57.47 834.15,-51.56 837.34,-61.67 842.95,-57.47"/>
</g>
<!-- 201 -->
<g id="node14" class="node">
<title>201</title>
<ellipse fill="white" stroke="black" cx="165.45" cy="-224.74" rx="25" ry="25"/>
<text text-anchor="middle" x="165.45" y="-222.54" font-family="Times,serif" font-size="9.00">201</text>
</g>
<!-- 201&#45;&gt;DASH -->
<g id="edge13" class="edge">
<title>201&#45;&gt;DASH</title>
<path fill="none" stroke="red" stroke-width="0.12" d="M173.33,-200.76C177.18,-189.56 181.91,-175.78 186.28,-163.04"/>
<polygon fill="red" stroke="red" stroke-width="0.12" points="189.6,-164.16 189.53,-153.56 182.98,-161.89 189.6,-164.16"/>
</g>
<!-- 618 -->
<g id="node15" class="node">
<title>618</title>
<ellipse fill="white" stroke="black" cx="232.45" cy="-224.74" rx="25" ry="25"/>
<text text-anchor="middle" x="232.45" y="-222.54" font-family="Times,serif" font-size="9.00">618</text>
</g>
<!-- 618&#45;&gt;DASH -->
<g id="edge21" class="edge">
<title>618&#45;&gt;DASH</title>
<path fill="none" stroke="red" stroke-width="0.1" d="M224.79,-200.76C221.1,-189.67 216.56,-176.05 212.35,-163.42"/>
<polygon fill="red" stroke="red" stroke-width="0.1" points="215.55,-161.95 209.07,-153.56 208.91,-164.16 215.55,-161.95"/>
</g>
<!-- 267&#45;&gt;DASH -->
<g id="edge15" class="edge">
<title>267&#45;&gt;DASH</title>
<path fill="none" stroke="red" stroke-width="0.54" d="M207.86,-315.44C155.78,-308.56 37.19,-289.76 13.45,-258.68 -4.86,-234.7 -3.95,-215.44 13.45,-190.79 46.11,-144.53 114.11,-130.44 158.21,-126.27"/>
<polygon fill="red" stroke="red" stroke-width="0.54" points="158.65,-129.75 168.33,-125.45 158.08,-122.77 158.65,-129.75"/>
</g>
<!-- 267&#45;&gt;618 -->
<g id="edge20" class="edge">
<title>267&#45;&gt;618</title>
<path fill="none" stroke="red" stroke-width="0.28" d="M232.45,-294.55C232.45,-283.96 232.45,-271.3 232.45,-259.74"/>
<polygon fill="red" stroke="red" stroke-width="0.28" points="235.95,-259.52 232.45,-249.52 228.95,-259.52 235.95,-259.52"/>
</g>
<!-- 120&#45;&gt;FIRE -->
<g id="edge12" class="edge">
<title>120&#45;&gt;FIRE</title>
<path fill="none" stroke="red" stroke-width="0.25" d="M672.81,-110.66C701.06,-94.77 751.15,-66.59 784.33,-47.92"/>
<polygon fill="red" stroke="red" stroke-width="0.25" points="786.21,-50.88 793.21,-42.92 782.78,-44.78 786.21,-50.88"/>
</g>
<!-- 605&#45;&gt;FIRE -->
<g id="edge18" class="edge">
<title>605&#45;&gt;FIRE</title>
<path fill="none" stroke="green" stroke-width="0.46" d="M817.45,-98.63C817.45,-89.06 817.45,-77.82 817.45,-67.21"/>
<polygon fill="green" stroke="green" stroke-width="0.46" points="820.95,-66.89 817.45,-56.89 813.95,-66.89 820.95,-66.89"/>
</g>
</g>
</svg>
